%TF.GenerationSoftware,KiCad,Pcbnew,10.0.0*%
%TF.CreationDate,2026-06-21T13:06:11+02:00*%
%TF.ProjectId,Boost_V2,426f6f73-745f-4563-922e-6b696361645f,rev?*%
%TF.SameCoordinates,Original*%
%TF.FileFunction,Legend,Top*%
%TF.FilePolarity,Positive*%
%FSLAX46Y46*%
G04 Gerber Fmt 4.6, Leading zero omitted, Abs format (unit mm)*
G04 Created by KiCad (PCBNEW 10.0.0) date 2026-06-21 13:06:11*
%MOMM*%
%LPD*%
G01*
G04 APERTURE LIST*
%ADD10C,0.150000*%
%ADD11C,0.300000*%
%ADD12C,0.400000*%
%ADD13C,0.200000*%
%ADD14C,0.010000*%
%ADD15C,0.000000*%
%ADD16C,0.120000*%
G04 APERTURE END LIST*
D10*
X28005800Y-166007200D02*
X136005800Y-166007200D01*
X136005800Y-198007200D01*
X28005800Y-198007200D01*
X28005800Y-166007200D01*
X10000000Y-10000000D02*
X138005800Y-10000000D01*
X138005800Y-200007200D01*
X10000000Y-200007200D01*
X10000000Y-10000000D01*
X12000000Y-12000000D02*
X136005800Y-12000000D01*
X136005800Y-198007200D01*
X12000000Y-198007200D01*
X12000000Y-12000000D01*
X60000000Y-12000000D02*
X60000000Y-10000000D01*
X110000000Y-12000000D02*
X110000000Y-10000000D01*
X36089160Y-11593604D02*
X35346303Y-11593604D01*
X35717731Y-11593604D02*
X35717731Y-10293604D01*
X35717731Y-10293604D02*
X35593922Y-10479319D01*
X35593922Y-10479319D02*
X35470112Y-10603128D01*
X35470112Y-10603128D02*
X35346303Y-10665033D01*
X85346303Y-10417414D02*
X85408207Y-10355509D01*
X85408207Y-10355509D02*
X85532017Y-10293604D01*
X85532017Y-10293604D02*
X85841541Y-10293604D01*
X85841541Y-10293604D02*
X85965350Y-10355509D01*
X85965350Y-10355509D02*
X86027255Y-10417414D01*
X86027255Y-10417414D02*
X86089160Y-10541223D01*
X86089160Y-10541223D02*
X86089160Y-10665033D01*
X86089160Y-10665033D02*
X86027255Y-10850747D01*
X86027255Y-10850747D02*
X85284398Y-11593604D01*
X85284398Y-11593604D02*
X86089160Y-11593604D01*
X135284398Y-10293604D02*
X136089160Y-10293604D01*
X136089160Y-10293604D02*
X135655826Y-10788842D01*
X135655826Y-10788842D02*
X135841541Y-10788842D01*
X135841541Y-10788842D02*
X135965350Y-10850747D01*
X135965350Y-10850747D02*
X136027255Y-10912652D01*
X136027255Y-10912652D02*
X136089160Y-11036461D01*
X136089160Y-11036461D02*
X136089160Y-11345985D01*
X136089160Y-11345985D02*
X136027255Y-11469795D01*
X136027255Y-11469795D02*
X135965350Y-11531700D01*
X135965350Y-11531700D02*
X135841541Y-11593604D01*
X135841541Y-11593604D02*
X135470112Y-11593604D01*
X135470112Y-11593604D02*
X135346303Y-11531700D01*
X135346303Y-11531700D02*
X135284398Y-11469795D01*
X60000000Y-198007200D02*
X60000000Y-200007200D01*
X110000000Y-198007200D02*
X110000000Y-200007200D01*
X36089160Y-199600804D02*
X35346303Y-199600804D01*
X35717731Y-199600804D02*
X35717731Y-198300804D01*
X35717731Y-198300804D02*
X35593922Y-198486519D01*
X35593922Y-198486519D02*
X35470112Y-198610328D01*
X35470112Y-198610328D02*
X35346303Y-198672233D01*
X85346303Y-198424614D02*
X85408207Y-198362709D01*
X85408207Y-198362709D02*
X85532017Y-198300804D01*
X85532017Y-198300804D02*
X85841541Y-198300804D01*
X85841541Y-198300804D02*
X85965350Y-198362709D01*
X85965350Y-198362709D02*
X86027255Y-198424614D01*
X86027255Y-198424614D02*
X86089160Y-198548423D01*
X86089160Y-198548423D02*
X86089160Y-198672233D01*
X86089160Y-198672233D02*
X86027255Y-198857947D01*
X86027255Y-198857947D02*
X85284398Y-199600804D01*
X85284398Y-199600804D02*
X86089160Y-199600804D01*
X135284398Y-198300804D02*
X136089160Y-198300804D01*
X136089160Y-198300804D02*
X135655826Y-198796042D01*
X135655826Y-198796042D02*
X135841541Y-198796042D01*
X135841541Y-198796042D02*
X135965350Y-198857947D01*
X135965350Y-198857947D02*
X136027255Y-198919852D01*
X136027255Y-198919852D02*
X136089160Y-199043661D01*
X136089160Y-199043661D02*
X136089160Y-199353185D01*
X136089160Y-199353185D02*
X136027255Y-199476995D01*
X136027255Y-199476995D02*
X135965350Y-199538900D01*
X135965350Y-199538900D02*
X135841541Y-199600804D01*
X135841541Y-199600804D02*
X135470112Y-199600804D01*
X135470112Y-199600804D02*
X135346303Y-199538900D01*
X135346303Y-199538900D02*
X135284398Y-199476995D01*
X10000000Y-60000000D02*
X12000000Y-60000000D01*
X10000000Y-110000000D02*
X12000000Y-110000000D01*
X10000000Y-160000000D02*
X12000000Y-160000000D01*
X10690476Y-35222176D02*
X11309523Y-35222176D01*
X10566666Y-35593604D02*
X10999999Y-34293604D01*
X10999999Y-34293604D02*
X11433333Y-35593604D01*
X11092857Y-84912652D02*
X11278571Y-84974557D01*
X11278571Y-84974557D02*
X11340476Y-85036461D01*
X11340476Y-85036461D02*
X11402380Y-85160271D01*
X11402380Y-85160271D02*
X11402380Y-85345985D01*
X11402380Y-85345985D02*
X11340476Y-85469795D01*
X11340476Y-85469795D02*
X11278571Y-85531700D01*
X11278571Y-85531700D02*
X11154761Y-85593604D01*
X11154761Y-85593604D02*
X10659523Y-85593604D01*
X10659523Y-85593604D02*
X10659523Y-84293604D01*
X10659523Y-84293604D02*
X11092857Y-84293604D01*
X11092857Y-84293604D02*
X11216666Y-84355509D01*
X11216666Y-84355509D02*
X11278571Y-84417414D01*
X11278571Y-84417414D02*
X11340476Y-84541223D01*
X11340476Y-84541223D02*
X11340476Y-84665033D01*
X11340476Y-84665033D02*
X11278571Y-84788842D01*
X11278571Y-84788842D02*
X11216666Y-84850747D01*
X11216666Y-84850747D02*
X11092857Y-84912652D01*
X11092857Y-84912652D02*
X10659523Y-84912652D01*
X11402380Y-135469795D02*
X11340476Y-135531700D01*
X11340476Y-135531700D02*
X11154761Y-135593604D01*
X11154761Y-135593604D02*
X11030952Y-135593604D01*
X11030952Y-135593604D02*
X10845238Y-135531700D01*
X10845238Y-135531700D02*
X10721428Y-135407890D01*
X10721428Y-135407890D02*
X10659523Y-135284080D01*
X10659523Y-135284080D02*
X10597619Y-135036461D01*
X10597619Y-135036461D02*
X10597619Y-134850747D01*
X10597619Y-134850747D02*
X10659523Y-134603128D01*
X10659523Y-134603128D02*
X10721428Y-134479319D01*
X10721428Y-134479319D02*
X10845238Y-134355509D01*
X10845238Y-134355509D02*
X11030952Y-134293604D01*
X11030952Y-134293604D02*
X11154761Y-134293604D01*
X11154761Y-134293604D02*
X11340476Y-134355509D01*
X11340476Y-134355509D02*
X11402380Y-134417414D01*
X10659523Y-185593604D02*
X10659523Y-184293604D01*
X10659523Y-184293604D02*
X10969047Y-184293604D01*
X10969047Y-184293604D02*
X11154761Y-184355509D01*
X11154761Y-184355509D02*
X11278571Y-184479319D01*
X11278571Y-184479319D02*
X11340476Y-184603128D01*
X11340476Y-184603128D02*
X11402380Y-184850747D01*
X11402380Y-184850747D02*
X11402380Y-185036461D01*
X11402380Y-185036461D02*
X11340476Y-185284080D01*
X11340476Y-185284080D02*
X11278571Y-185407890D01*
X11278571Y-185407890D02*
X11154761Y-185531700D01*
X11154761Y-185531700D02*
X10969047Y-185593604D01*
X10969047Y-185593604D02*
X10659523Y-185593604D01*
X138005800Y-60000000D02*
X136005800Y-60000000D01*
X138005800Y-110000000D02*
X136005800Y-110000000D01*
X138005800Y-160000000D02*
X136005800Y-160000000D01*
X136696276Y-35222176D02*
X137315323Y-35222176D01*
X136572466Y-35593604D02*
X137005799Y-34293604D01*
X137005799Y-34293604D02*
X137439133Y-35593604D01*
X137098657Y-84912652D02*
X137284371Y-84974557D01*
X137284371Y-84974557D02*
X137346276Y-85036461D01*
X137346276Y-85036461D02*
X137408180Y-85160271D01*
X137408180Y-85160271D02*
X137408180Y-85345985D01*
X137408180Y-85345985D02*
X137346276Y-85469795D01*
X137346276Y-85469795D02*
X137284371Y-85531700D01*
X137284371Y-85531700D02*
X137160561Y-85593604D01*
X137160561Y-85593604D02*
X136665323Y-85593604D01*
X136665323Y-85593604D02*
X136665323Y-84293604D01*
X136665323Y-84293604D02*
X137098657Y-84293604D01*
X137098657Y-84293604D02*
X137222466Y-84355509D01*
X137222466Y-84355509D02*
X137284371Y-84417414D01*
X137284371Y-84417414D02*
X137346276Y-84541223D01*
X137346276Y-84541223D02*
X137346276Y-84665033D01*
X137346276Y-84665033D02*
X137284371Y-84788842D01*
X137284371Y-84788842D02*
X137222466Y-84850747D01*
X137222466Y-84850747D02*
X137098657Y-84912652D01*
X137098657Y-84912652D02*
X136665323Y-84912652D01*
X137408180Y-135469795D02*
X137346276Y-135531700D01*
X137346276Y-135531700D02*
X137160561Y-135593604D01*
X137160561Y-135593604D02*
X137036752Y-135593604D01*
X137036752Y-135593604D02*
X136851038Y-135531700D01*
X136851038Y-135531700D02*
X136727228Y-135407890D01*
X136727228Y-135407890D02*
X136665323Y-135284080D01*
X136665323Y-135284080D02*
X136603419Y-135036461D01*
X136603419Y-135036461D02*
X136603419Y-134850747D01*
X136603419Y-134850747D02*
X136665323Y-134603128D01*
X136665323Y-134603128D02*
X136727228Y-134479319D01*
X136727228Y-134479319D02*
X136851038Y-134355509D01*
X136851038Y-134355509D02*
X137036752Y-134293604D01*
X137036752Y-134293604D02*
X137160561Y-134293604D01*
X137160561Y-134293604D02*
X137346276Y-134355509D01*
X137346276Y-134355509D02*
X137408180Y-134417414D01*
X136665323Y-185593604D02*
X136665323Y-184293604D01*
X136665323Y-184293604D02*
X136974847Y-184293604D01*
X136974847Y-184293604D02*
X137160561Y-184355509D01*
X137160561Y-184355509D02*
X137284371Y-184479319D01*
X137284371Y-184479319D02*
X137346276Y-184603128D01*
X137346276Y-184603128D02*
X137408180Y-184850747D01*
X137408180Y-184850747D02*
X137408180Y-185036461D01*
X137408180Y-185036461D02*
X137346276Y-185284080D01*
X137346276Y-185284080D02*
X137284371Y-185407890D01*
X137284371Y-185407890D02*
X137160561Y-185531700D01*
X137160561Y-185531700D02*
X136974847Y-185593604D01*
X136974847Y-185593604D02*
X136665323Y-185593604D01*
X51461626Y-193793328D02*
X51461626Y-192293328D01*
X51461626Y-192293328D02*
X51818769Y-192293328D01*
X51818769Y-192293328D02*
X52033055Y-192364757D01*
X52033055Y-192364757D02*
X52175912Y-192507614D01*
X52175912Y-192507614D02*
X52247341Y-192650471D01*
X52247341Y-192650471D02*
X52318769Y-192936185D01*
X52318769Y-192936185D02*
X52318769Y-193150471D01*
X52318769Y-193150471D02*
X52247341Y-193436185D01*
X52247341Y-193436185D02*
X52175912Y-193579042D01*
X52175912Y-193579042D02*
X52033055Y-193721900D01*
X52033055Y-193721900D02*
X51818769Y-193793328D01*
X51818769Y-193793328D02*
X51461626Y-193793328D01*
X53604484Y-193793328D02*
X53604484Y-193007614D01*
X53604484Y-193007614D02*
X53533055Y-192864757D01*
X53533055Y-192864757D02*
X53390198Y-192793328D01*
X53390198Y-192793328D02*
X53104484Y-192793328D01*
X53104484Y-192793328D02*
X52961626Y-192864757D01*
X53604484Y-193721900D02*
X53461626Y-193793328D01*
X53461626Y-193793328D02*
X53104484Y-193793328D01*
X53104484Y-193793328D02*
X52961626Y-193721900D01*
X52961626Y-193721900D02*
X52890198Y-193579042D01*
X52890198Y-193579042D02*
X52890198Y-193436185D01*
X52890198Y-193436185D02*
X52961626Y-193293328D01*
X52961626Y-193293328D02*
X53104484Y-193221900D01*
X53104484Y-193221900D02*
X53461626Y-193221900D01*
X53461626Y-193221900D02*
X53604484Y-193150471D01*
X54104484Y-192793328D02*
X54675912Y-192793328D01*
X54318769Y-192293328D02*
X54318769Y-193579042D01*
X54318769Y-193579042D02*
X54390198Y-193721900D01*
X54390198Y-193721900D02*
X54533055Y-193793328D01*
X54533055Y-193793328D02*
X54675912Y-193793328D01*
X55747341Y-193721900D02*
X55604484Y-193793328D01*
X55604484Y-193793328D02*
X55318770Y-193793328D01*
X55318770Y-193793328D02*
X55175912Y-193721900D01*
X55175912Y-193721900D02*
X55104484Y-193579042D01*
X55104484Y-193579042D02*
X55104484Y-193007614D01*
X55104484Y-193007614D02*
X55175912Y-192864757D01*
X55175912Y-192864757D02*
X55318770Y-192793328D01*
X55318770Y-192793328D02*
X55604484Y-192793328D01*
X55604484Y-192793328D02*
X55747341Y-192864757D01*
X55747341Y-192864757D02*
X55818770Y-193007614D01*
X55818770Y-193007614D02*
X55818770Y-193150471D01*
X55818770Y-193150471D02*
X55104484Y-193293328D01*
X56461626Y-193650471D02*
X56533055Y-193721900D01*
X56533055Y-193721900D02*
X56461626Y-193793328D01*
X56461626Y-193793328D02*
X56390198Y-193721900D01*
X56390198Y-193721900D02*
X56461626Y-193650471D01*
X56461626Y-193650471D02*
X56461626Y-193793328D01*
X56461626Y-192864757D02*
X56533055Y-192936185D01*
X56533055Y-192936185D02*
X56461626Y-193007614D01*
X56461626Y-193007614D02*
X56390198Y-192936185D01*
X56390198Y-192936185D02*
X56461626Y-192864757D01*
X56461626Y-192864757D02*
X56461626Y-193007614D01*
X58247341Y-192436185D02*
X58318769Y-192364757D01*
X58318769Y-192364757D02*
X58461627Y-192293328D01*
X58461627Y-192293328D02*
X58818769Y-192293328D01*
X58818769Y-192293328D02*
X58961627Y-192364757D01*
X58961627Y-192364757D02*
X59033055Y-192436185D01*
X59033055Y-192436185D02*
X59104484Y-192579042D01*
X59104484Y-192579042D02*
X59104484Y-192721900D01*
X59104484Y-192721900D02*
X59033055Y-192936185D01*
X59033055Y-192936185D02*
X58175912Y-193793328D01*
X58175912Y-193793328D02*
X59104484Y-193793328D01*
X60033055Y-192293328D02*
X60175912Y-192293328D01*
X60175912Y-192293328D02*
X60318769Y-192364757D01*
X60318769Y-192364757D02*
X60390198Y-192436185D01*
X60390198Y-192436185D02*
X60461626Y-192579042D01*
X60461626Y-192579042D02*
X60533055Y-192864757D01*
X60533055Y-192864757D02*
X60533055Y-193221900D01*
X60533055Y-193221900D02*
X60461626Y-193507614D01*
X60461626Y-193507614D02*
X60390198Y-193650471D01*
X60390198Y-193650471D02*
X60318769Y-193721900D01*
X60318769Y-193721900D02*
X60175912Y-193793328D01*
X60175912Y-193793328D02*
X60033055Y-193793328D01*
X60033055Y-193793328D02*
X59890198Y-193721900D01*
X59890198Y-193721900D02*
X59818769Y-193650471D01*
X59818769Y-193650471D02*
X59747340Y-193507614D01*
X59747340Y-193507614D02*
X59675912Y-193221900D01*
X59675912Y-193221900D02*
X59675912Y-192864757D01*
X59675912Y-192864757D02*
X59747340Y-192579042D01*
X59747340Y-192579042D02*
X59818769Y-192436185D01*
X59818769Y-192436185D02*
X59890198Y-192364757D01*
X59890198Y-192364757D02*
X60033055Y-192293328D01*
X61104483Y-192436185D02*
X61175911Y-192364757D01*
X61175911Y-192364757D02*
X61318769Y-192293328D01*
X61318769Y-192293328D02*
X61675911Y-192293328D01*
X61675911Y-192293328D02*
X61818769Y-192364757D01*
X61818769Y-192364757D02*
X61890197Y-192436185D01*
X61890197Y-192436185D02*
X61961626Y-192579042D01*
X61961626Y-192579042D02*
X61961626Y-192721900D01*
X61961626Y-192721900D02*
X61890197Y-192936185D01*
X61890197Y-192936185D02*
X61033054Y-193793328D01*
X61033054Y-193793328D02*
X61961626Y-193793328D01*
X63247340Y-192293328D02*
X62961625Y-192293328D01*
X62961625Y-192293328D02*
X62818768Y-192364757D01*
X62818768Y-192364757D02*
X62747340Y-192436185D01*
X62747340Y-192436185D02*
X62604482Y-192650471D01*
X62604482Y-192650471D02*
X62533054Y-192936185D01*
X62533054Y-192936185D02*
X62533054Y-193507614D01*
X62533054Y-193507614D02*
X62604482Y-193650471D01*
X62604482Y-193650471D02*
X62675911Y-193721900D01*
X62675911Y-193721900D02*
X62818768Y-193793328D01*
X62818768Y-193793328D02*
X63104482Y-193793328D01*
X63104482Y-193793328D02*
X63247340Y-193721900D01*
X63247340Y-193721900D02*
X63318768Y-193650471D01*
X63318768Y-193650471D02*
X63390197Y-193507614D01*
X63390197Y-193507614D02*
X63390197Y-193150471D01*
X63390197Y-193150471D02*
X63318768Y-193007614D01*
X63318768Y-193007614D02*
X63247340Y-192936185D01*
X63247340Y-192936185D02*
X63104482Y-192864757D01*
X63104482Y-192864757D02*
X62818768Y-192864757D01*
X62818768Y-192864757D02*
X62675911Y-192936185D01*
X62675911Y-192936185D02*
X62604482Y-193007614D01*
X62604482Y-193007614D02*
X62533054Y-193150471D01*
X64033053Y-193221900D02*
X65175911Y-193221900D01*
X66175911Y-192293328D02*
X66318768Y-192293328D01*
X66318768Y-192293328D02*
X66461625Y-192364757D01*
X66461625Y-192364757D02*
X66533054Y-192436185D01*
X66533054Y-192436185D02*
X66604482Y-192579042D01*
X66604482Y-192579042D02*
X66675911Y-192864757D01*
X66675911Y-192864757D02*
X66675911Y-193221900D01*
X66675911Y-193221900D02*
X66604482Y-193507614D01*
X66604482Y-193507614D02*
X66533054Y-193650471D01*
X66533054Y-193650471D02*
X66461625Y-193721900D01*
X66461625Y-193721900D02*
X66318768Y-193793328D01*
X66318768Y-193793328D02*
X66175911Y-193793328D01*
X66175911Y-193793328D02*
X66033054Y-193721900D01*
X66033054Y-193721900D02*
X65961625Y-193650471D01*
X65961625Y-193650471D02*
X65890196Y-193507614D01*
X65890196Y-193507614D02*
X65818768Y-193221900D01*
X65818768Y-193221900D02*
X65818768Y-192864757D01*
X65818768Y-192864757D02*
X65890196Y-192579042D01*
X65890196Y-192579042D02*
X65961625Y-192436185D01*
X65961625Y-192436185D02*
X66033054Y-192364757D01*
X66033054Y-192364757D02*
X66175911Y-192293328D01*
X67961625Y-192293328D02*
X67675910Y-192293328D01*
X67675910Y-192293328D02*
X67533053Y-192364757D01*
X67533053Y-192364757D02*
X67461625Y-192436185D01*
X67461625Y-192436185D02*
X67318767Y-192650471D01*
X67318767Y-192650471D02*
X67247339Y-192936185D01*
X67247339Y-192936185D02*
X67247339Y-193507614D01*
X67247339Y-193507614D02*
X67318767Y-193650471D01*
X67318767Y-193650471D02*
X67390196Y-193721900D01*
X67390196Y-193721900D02*
X67533053Y-193793328D01*
X67533053Y-193793328D02*
X67818767Y-193793328D01*
X67818767Y-193793328D02*
X67961625Y-193721900D01*
X67961625Y-193721900D02*
X68033053Y-193650471D01*
X68033053Y-193650471D02*
X68104482Y-193507614D01*
X68104482Y-193507614D02*
X68104482Y-193150471D01*
X68104482Y-193150471D02*
X68033053Y-193007614D01*
X68033053Y-193007614D02*
X67961625Y-192936185D01*
X67961625Y-192936185D02*
X67818767Y-192864757D01*
X67818767Y-192864757D02*
X67533053Y-192864757D01*
X67533053Y-192864757D02*
X67390196Y-192936185D01*
X67390196Y-192936185D02*
X67318767Y-193007614D01*
X67318767Y-193007614D02*
X67247339Y-193150471D01*
X68747338Y-193221900D02*
X69890196Y-193221900D01*
X70890196Y-192293328D02*
X71033053Y-192293328D01*
X71033053Y-192293328D02*
X71175910Y-192364757D01*
X71175910Y-192364757D02*
X71247339Y-192436185D01*
X71247339Y-192436185D02*
X71318767Y-192579042D01*
X71318767Y-192579042D02*
X71390196Y-192864757D01*
X71390196Y-192864757D02*
X71390196Y-193221900D01*
X71390196Y-193221900D02*
X71318767Y-193507614D01*
X71318767Y-193507614D02*
X71247339Y-193650471D01*
X71247339Y-193650471D02*
X71175910Y-193721900D01*
X71175910Y-193721900D02*
X71033053Y-193793328D01*
X71033053Y-193793328D02*
X70890196Y-193793328D01*
X70890196Y-193793328D02*
X70747339Y-193721900D01*
X70747339Y-193721900D02*
X70675910Y-193650471D01*
X70675910Y-193650471D02*
X70604481Y-193507614D01*
X70604481Y-193507614D02*
X70533053Y-193221900D01*
X70533053Y-193221900D02*
X70533053Y-192864757D01*
X70533053Y-192864757D02*
X70604481Y-192579042D01*
X70604481Y-192579042D02*
X70675910Y-192436185D01*
X70675910Y-192436185D02*
X70747339Y-192364757D01*
X70747339Y-192364757D02*
X70890196Y-192293328D01*
X72104481Y-193793328D02*
X72390195Y-193793328D01*
X72390195Y-193793328D02*
X72533052Y-193721900D01*
X72533052Y-193721900D02*
X72604481Y-193650471D01*
X72604481Y-193650471D02*
X72747338Y-193436185D01*
X72747338Y-193436185D02*
X72818767Y-193150471D01*
X72818767Y-193150471D02*
X72818767Y-192579042D01*
X72818767Y-192579042D02*
X72747338Y-192436185D01*
X72747338Y-192436185D02*
X72675910Y-192364757D01*
X72675910Y-192364757D02*
X72533052Y-192293328D01*
X72533052Y-192293328D02*
X72247338Y-192293328D01*
X72247338Y-192293328D02*
X72104481Y-192364757D01*
X72104481Y-192364757D02*
X72033052Y-192436185D01*
X72033052Y-192436185D02*
X71961624Y-192579042D01*
X71961624Y-192579042D02*
X71961624Y-192936185D01*
X71961624Y-192936185D02*
X72033052Y-193079042D01*
X72033052Y-193079042D02*
X72104481Y-193150471D01*
X72104481Y-193150471D02*
X72247338Y-193221900D01*
X72247338Y-193221900D02*
X72533052Y-193221900D01*
X72533052Y-193221900D02*
X72675910Y-193150471D01*
X72675910Y-193150471D02*
X72747338Y-193079042D01*
X72747338Y-193079042D02*
X72818767Y-192936185D01*
X28005800Y-194507200D02*
X136005800Y-194507200D01*
X29461626Y-196593328D02*
X29461626Y-195093328D01*
X30318769Y-196593328D02*
X29675912Y-195736185D01*
X30318769Y-195093328D02*
X29461626Y-195950471D01*
X30961626Y-196593328D02*
X30961626Y-195593328D01*
X30961626Y-195093328D02*
X30890198Y-195164757D01*
X30890198Y-195164757D02*
X30961626Y-195236185D01*
X30961626Y-195236185D02*
X31033055Y-195164757D01*
X31033055Y-195164757D02*
X30961626Y-195093328D01*
X30961626Y-195093328D02*
X30961626Y-195236185D01*
X32533055Y-196450471D02*
X32461627Y-196521900D01*
X32461627Y-196521900D02*
X32247341Y-196593328D01*
X32247341Y-196593328D02*
X32104484Y-196593328D01*
X32104484Y-196593328D02*
X31890198Y-196521900D01*
X31890198Y-196521900D02*
X31747341Y-196379042D01*
X31747341Y-196379042D02*
X31675912Y-196236185D01*
X31675912Y-196236185D02*
X31604484Y-195950471D01*
X31604484Y-195950471D02*
X31604484Y-195736185D01*
X31604484Y-195736185D02*
X31675912Y-195450471D01*
X31675912Y-195450471D02*
X31747341Y-195307614D01*
X31747341Y-195307614D02*
X31890198Y-195164757D01*
X31890198Y-195164757D02*
X32104484Y-195093328D01*
X32104484Y-195093328D02*
X32247341Y-195093328D01*
X32247341Y-195093328D02*
X32461627Y-195164757D01*
X32461627Y-195164757D02*
X32533055Y-195236185D01*
X33818770Y-196593328D02*
X33818770Y-195807614D01*
X33818770Y-195807614D02*
X33747341Y-195664757D01*
X33747341Y-195664757D02*
X33604484Y-195593328D01*
X33604484Y-195593328D02*
X33318770Y-195593328D01*
X33318770Y-195593328D02*
X33175912Y-195664757D01*
X33818770Y-196521900D02*
X33675912Y-196593328D01*
X33675912Y-196593328D02*
X33318770Y-196593328D01*
X33318770Y-196593328D02*
X33175912Y-196521900D01*
X33175912Y-196521900D02*
X33104484Y-196379042D01*
X33104484Y-196379042D02*
X33104484Y-196236185D01*
X33104484Y-196236185D02*
X33175912Y-196093328D01*
X33175912Y-196093328D02*
X33318770Y-196021900D01*
X33318770Y-196021900D02*
X33675912Y-196021900D01*
X33675912Y-196021900D02*
X33818770Y-195950471D01*
X35175913Y-196593328D02*
X35175913Y-195093328D01*
X35175913Y-196521900D02*
X35033055Y-196593328D01*
X35033055Y-196593328D02*
X34747341Y-196593328D01*
X34747341Y-196593328D02*
X34604484Y-196521900D01*
X34604484Y-196521900D02*
X34533055Y-196450471D01*
X34533055Y-196450471D02*
X34461627Y-196307614D01*
X34461627Y-196307614D02*
X34461627Y-195879042D01*
X34461627Y-195879042D02*
X34533055Y-195736185D01*
X34533055Y-195736185D02*
X34604484Y-195664757D01*
X34604484Y-195664757D02*
X34747341Y-195593328D01*
X34747341Y-195593328D02*
X35033055Y-195593328D01*
X35033055Y-195593328D02*
X35175913Y-195664757D01*
X37033055Y-195807614D02*
X37533055Y-195807614D01*
X37747341Y-196593328D02*
X37033055Y-196593328D01*
X37033055Y-196593328D02*
X37033055Y-195093328D01*
X37033055Y-195093328D02*
X37747341Y-195093328D01*
X38390198Y-196450471D02*
X38461627Y-196521900D01*
X38461627Y-196521900D02*
X38390198Y-196593328D01*
X38390198Y-196593328D02*
X38318770Y-196521900D01*
X38318770Y-196521900D02*
X38390198Y-196450471D01*
X38390198Y-196450471D02*
X38390198Y-196593328D01*
X39104484Y-196593328D02*
X39104484Y-195093328D01*
X39104484Y-195093328D02*
X39461627Y-195093328D01*
X39461627Y-195093328D02*
X39675913Y-195164757D01*
X39675913Y-195164757D02*
X39818770Y-195307614D01*
X39818770Y-195307614D02*
X39890199Y-195450471D01*
X39890199Y-195450471D02*
X39961627Y-195736185D01*
X39961627Y-195736185D02*
X39961627Y-195950471D01*
X39961627Y-195950471D02*
X39890199Y-196236185D01*
X39890199Y-196236185D02*
X39818770Y-196379042D01*
X39818770Y-196379042D02*
X39675913Y-196521900D01*
X39675913Y-196521900D02*
X39461627Y-196593328D01*
X39461627Y-196593328D02*
X39104484Y-196593328D01*
X40604484Y-196450471D02*
X40675913Y-196521900D01*
X40675913Y-196521900D02*
X40604484Y-196593328D01*
X40604484Y-196593328D02*
X40533056Y-196521900D01*
X40533056Y-196521900D02*
X40604484Y-196450471D01*
X40604484Y-196450471D02*
X40604484Y-196593328D01*
X41247342Y-196164757D02*
X41961628Y-196164757D01*
X41104485Y-196593328D02*
X41604485Y-195093328D01*
X41604485Y-195093328D02*
X42104485Y-196593328D01*
X42604484Y-196450471D02*
X42675913Y-196521900D01*
X42675913Y-196521900D02*
X42604484Y-196593328D01*
X42604484Y-196593328D02*
X42533056Y-196521900D01*
X42533056Y-196521900D02*
X42604484Y-196450471D01*
X42604484Y-196450471D02*
X42604484Y-196593328D01*
X45247342Y-196593328D02*
X44390199Y-196593328D01*
X44818770Y-196593328D02*
X44818770Y-195093328D01*
X44818770Y-195093328D02*
X44675913Y-195307614D01*
X44675913Y-195307614D02*
X44533056Y-195450471D01*
X44533056Y-195450471D02*
X44390199Y-195521900D01*
X46175913Y-195093328D02*
X46318770Y-195093328D01*
X46318770Y-195093328D02*
X46461627Y-195164757D01*
X46461627Y-195164757D02*
X46533056Y-195236185D01*
X46533056Y-195236185D02*
X46604484Y-195379042D01*
X46604484Y-195379042D02*
X46675913Y-195664757D01*
X46675913Y-195664757D02*
X46675913Y-196021900D01*
X46675913Y-196021900D02*
X46604484Y-196307614D01*
X46604484Y-196307614D02*
X46533056Y-196450471D01*
X46533056Y-196450471D02*
X46461627Y-196521900D01*
X46461627Y-196521900D02*
X46318770Y-196593328D01*
X46318770Y-196593328D02*
X46175913Y-196593328D01*
X46175913Y-196593328D02*
X46033056Y-196521900D01*
X46033056Y-196521900D02*
X45961627Y-196450471D01*
X45961627Y-196450471D02*
X45890198Y-196307614D01*
X45890198Y-196307614D02*
X45818770Y-196021900D01*
X45818770Y-196021900D02*
X45818770Y-195664757D01*
X45818770Y-195664757D02*
X45890198Y-195379042D01*
X45890198Y-195379042D02*
X45961627Y-195236185D01*
X45961627Y-195236185D02*
X46033056Y-195164757D01*
X46033056Y-195164757D02*
X46175913Y-195093328D01*
X47318769Y-196450471D02*
X47390198Y-196521900D01*
X47390198Y-196521900D02*
X47318769Y-196593328D01*
X47318769Y-196593328D02*
X47247341Y-196521900D01*
X47247341Y-196521900D02*
X47318769Y-196450471D01*
X47318769Y-196450471D02*
X47318769Y-196593328D01*
X48318770Y-195093328D02*
X48461627Y-195093328D01*
X48461627Y-195093328D02*
X48604484Y-195164757D01*
X48604484Y-195164757D02*
X48675913Y-195236185D01*
X48675913Y-195236185D02*
X48747341Y-195379042D01*
X48747341Y-195379042D02*
X48818770Y-195664757D01*
X48818770Y-195664757D02*
X48818770Y-196021900D01*
X48818770Y-196021900D02*
X48747341Y-196307614D01*
X48747341Y-196307614D02*
X48675913Y-196450471D01*
X48675913Y-196450471D02*
X48604484Y-196521900D01*
X48604484Y-196521900D02*
X48461627Y-196593328D01*
X48461627Y-196593328D02*
X48318770Y-196593328D01*
X48318770Y-196593328D02*
X48175913Y-196521900D01*
X48175913Y-196521900D02*
X48104484Y-196450471D01*
X48104484Y-196450471D02*
X48033055Y-196307614D01*
X48033055Y-196307614D02*
X47961627Y-196021900D01*
X47961627Y-196021900D02*
X47961627Y-195664757D01*
X47961627Y-195664757D02*
X48033055Y-195379042D01*
X48033055Y-195379042D02*
X48104484Y-195236185D01*
X48104484Y-195236185D02*
X48175913Y-195164757D01*
X48175913Y-195164757D02*
X48318770Y-195093328D01*
X49461626Y-196450471D02*
X49533055Y-196521900D01*
X49533055Y-196521900D02*
X49461626Y-196593328D01*
X49461626Y-196593328D02*
X49390198Y-196521900D01*
X49390198Y-196521900D02*
X49461626Y-196450471D01*
X49461626Y-196450471D02*
X49461626Y-196593328D01*
X50461627Y-195093328D02*
X50604484Y-195093328D01*
X50604484Y-195093328D02*
X50747341Y-195164757D01*
X50747341Y-195164757D02*
X50818770Y-195236185D01*
X50818770Y-195236185D02*
X50890198Y-195379042D01*
X50890198Y-195379042D02*
X50961627Y-195664757D01*
X50961627Y-195664757D02*
X50961627Y-196021900D01*
X50961627Y-196021900D02*
X50890198Y-196307614D01*
X50890198Y-196307614D02*
X50818770Y-196450471D01*
X50818770Y-196450471D02*
X50747341Y-196521900D01*
X50747341Y-196521900D02*
X50604484Y-196593328D01*
X50604484Y-196593328D02*
X50461627Y-196593328D01*
X50461627Y-196593328D02*
X50318770Y-196521900D01*
X50318770Y-196521900D02*
X50247341Y-196450471D01*
X50247341Y-196450471D02*
X50175912Y-196307614D01*
X50175912Y-196307614D02*
X50104484Y-196021900D01*
X50104484Y-196021900D02*
X50104484Y-195664757D01*
X50104484Y-195664757D02*
X50175912Y-195379042D01*
X50175912Y-195379042D02*
X50247341Y-195236185D01*
X50247341Y-195236185D02*
X50318770Y-195164757D01*
X50318770Y-195164757D02*
X50461627Y-195093328D01*
X28005800Y-191507200D02*
X136005800Y-191507200D01*
D11*
X115417453Y-193785528D02*
X114917453Y-193071242D01*
X114560310Y-193785528D02*
X114560310Y-192285528D01*
X114560310Y-192285528D02*
X115131739Y-192285528D01*
X115131739Y-192285528D02*
X115274596Y-192356957D01*
X115274596Y-192356957D02*
X115346025Y-192428385D01*
X115346025Y-192428385D02*
X115417453Y-192571242D01*
X115417453Y-192571242D02*
X115417453Y-192785528D01*
X115417453Y-192785528D02*
X115346025Y-192928385D01*
X115346025Y-192928385D02*
X115274596Y-192999814D01*
X115274596Y-192999814D02*
X115131739Y-193071242D01*
X115131739Y-193071242D02*
X114560310Y-193071242D01*
X116631739Y-193714100D02*
X116488882Y-193785528D01*
X116488882Y-193785528D02*
X116203168Y-193785528D01*
X116203168Y-193785528D02*
X116060310Y-193714100D01*
X116060310Y-193714100D02*
X115988882Y-193571242D01*
X115988882Y-193571242D02*
X115988882Y-192999814D01*
X115988882Y-192999814D02*
X116060310Y-192856957D01*
X116060310Y-192856957D02*
X116203168Y-192785528D01*
X116203168Y-192785528D02*
X116488882Y-192785528D01*
X116488882Y-192785528D02*
X116631739Y-192856957D01*
X116631739Y-192856957D02*
X116703168Y-192999814D01*
X116703168Y-192999814D02*
X116703168Y-193142671D01*
X116703168Y-193142671D02*
X115988882Y-193285528D01*
X117203167Y-192785528D02*
X117560310Y-193785528D01*
X117560310Y-193785528D02*
X117917453Y-192785528D01*
X118488881Y-193642671D02*
X118560310Y-193714100D01*
X118560310Y-193714100D02*
X118488881Y-193785528D01*
X118488881Y-193785528D02*
X118417453Y-193714100D01*
X118417453Y-193714100D02*
X118488881Y-193642671D01*
X118488881Y-193642671D02*
X118488881Y-193785528D01*
X118488881Y-192856957D02*
X118560310Y-192928385D01*
X118560310Y-192928385D02*
X118488881Y-192999814D01*
X118488881Y-192999814D02*
X118417453Y-192928385D01*
X118417453Y-192928385D02*
X118488881Y-192856957D01*
X118488881Y-192856957D02*
X118488881Y-192999814D01*
D10*
X29390198Y-193721900D02*
X29604484Y-193793328D01*
X29604484Y-193793328D02*
X29961626Y-193793328D01*
X29961626Y-193793328D02*
X30104484Y-193721900D01*
X30104484Y-193721900D02*
X30175912Y-193650471D01*
X30175912Y-193650471D02*
X30247341Y-193507614D01*
X30247341Y-193507614D02*
X30247341Y-193364757D01*
X30247341Y-193364757D02*
X30175912Y-193221900D01*
X30175912Y-193221900D02*
X30104484Y-193150471D01*
X30104484Y-193150471D02*
X29961626Y-193079042D01*
X29961626Y-193079042D02*
X29675912Y-193007614D01*
X29675912Y-193007614D02*
X29533055Y-192936185D01*
X29533055Y-192936185D02*
X29461626Y-192864757D01*
X29461626Y-192864757D02*
X29390198Y-192721900D01*
X29390198Y-192721900D02*
X29390198Y-192579042D01*
X29390198Y-192579042D02*
X29461626Y-192436185D01*
X29461626Y-192436185D02*
X29533055Y-192364757D01*
X29533055Y-192364757D02*
X29675912Y-192293328D01*
X29675912Y-192293328D02*
X30033055Y-192293328D01*
X30033055Y-192293328D02*
X30247341Y-192364757D01*
X30890197Y-193793328D02*
X30890197Y-192793328D01*
X30890197Y-192293328D02*
X30818769Y-192364757D01*
X30818769Y-192364757D02*
X30890197Y-192436185D01*
X30890197Y-192436185D02*
X30961626Y-192364757D01*
X30961626Y-192364757D02*
X30890197Y-192293328D01*
X30890197Y-192293328D02*
X30890197Y-192436185D01*
X31461626Y-192793328D02*
X32247341Y-192793328D01*
X32247341Y-192793328D02*
X31461626Y-193793328D01*
X31461626Y-193793328D02*
X32247341Y-193793328D01*
X33390198Y-193721900D02*
X33247341Y-193793328D01*
X33247341Y-193793328D02*
X32961627Y-193793328D01*
X32961627Y-193793328D02*
X32818769Y-193721900D01*
X32818769Y-193721900D02*
X32747341Y-193579042D01*
X32747341Y-193579042D02*
X32747341Y-193007614D01*
X32747341Y-193007614D02*
X32818769Y-192864757D01*
X32818769Y-192864757D02*
X32961627Y-192793328D01*
X32961627Y-192793328D02*
X33247341Y-192793328D01*
X33247341Y-192793328D02*
X33390198Y-192864757D01*
X33390198Y-192864757D02*
X33461627Y-193007614D01*
X33461627Y-193007614D02*
X33461627Y-193150471D01*
X33461627Y-193150471D02*
X32747341Y-193293328D01*
X34104483Y-193650471D02*
X34175912Y-193721900D01*
X34175912Y-193721900D02*
X34104483Y-193793328D01*
X34104483Y-193793328D02*
X34033055Y-193721900D01*
X34033055Y-193721900D02*
X34104483Y-193650471D01*
X34104483Y-193650471D02*
X34104483Y-193793328D01*
X34104483Y-192864757D02*
X34175912Y-192936185D01*
X34175912Y-192936185D02*
X34104483Y-193007614D01*
X34104483Y-193007614D02*
X34033055Y-192936185D01*
X34033055Y-192936185D02*
X34104483Y-192864757D01*
X34104483Y-192864757D02*
X34104483Y-193007614D01*
X35890198Y-193364757D02*
X36604484Y-193364757D01*
X35747341Y-193793328D02*
X36247341Y-192293328D01*
X36247341Y-192293328D02*
X36747341Y-193793328D01*
X37961626Y-192293328D02*
X37247340Y-192293328D01*
X37247340Y-192293328D02*
X37175912Y-193007614D01*
X37175912Y-193007614D02*
X37247340Y-192936185D01*
X37247340Y-192936185D02*
X37390198Y-192864757D01*
X37390198Y-192864757D02*
X37747340Y-192864757D01*
X37747340Y-192864757D02*
X37890198Y-192936185D01*
X37890198Y-192936185D02*
X37961626Y-193007614D01*
X37961626Y-193007614D02*
X38033055Y-193150471D01*
X38033055Y-193150471D02*
X38033055Y-193507614D01*
X38033055Y-193507614D02*
X37961626Y-193650471D01*
X37961626Y-193650471D02*
X37890198Y-193721900D01*
X37890198Y-193721900D02*
X37747340Y-193793328D01*
X37747340Y-193793328D02*
X37390198Y-193793328D01*
X37390198Y-193793328D02*
X37247340Y-193721900D01*
X37247340Y-193721900D02*
X37175912Y-193650471D01*
X114461626Y-196593328D02*
X114461626Y-195093328D01*
X115818770Y-196593328D02*
X115818770Y-195093328D01*
X115818770Y-196521900D02*
X115675912Y-196593328D01*
X115675912Y-196593328D02*
X115390198Y-196593328D01*
X115390198Y-196593328D02*
X115247341Y-196521900D01*
X115247341Y-196521900D02*
X115175912Y-196450471D01*
X115175912Y-196450471D02*
X115104484Y-196307614D01*
X115104484Y-196307614D02*
X115104484Y-195879042D01*
X115104484Y-195879042D02*
X115175912Y-195736185D01*
X115175912Y-195736185D02*
X115247341Y-195664757D01*
X115247341Y-195664757D02*
X115390198Y-195593328D01*
X115390198Y-195593328D02*
X115675912Y-195593328D01*
X115675912Y-195593328D02*
X115818770Y-195664757D01*
X116533055Y-196450471D02*
X116604484Y-196521900D01*
X116604484Y-196521900D02*
X116533055Y-196593328D01*
X116533055Y-196593328D02*
X116461627Y-196521900D01*
X116461627Y-196521900D02*
X116533055Y-196450471D01*
X116533055Y-196450471D02*
X116533055Y-196593328D01*
X116533055Y-195664757D02*
X116604484Y-195736185D01*
X116604484Y-195736185D02*
X116533055Y-195807614D01*
X116533055Y-195807614D02*
X116461627Y-195736185D01*
X116461627Y-195736185D02*
X116533055Y-195664757D01*
X116533055Y-195664757D02*
X116533055Y-195807614D01*
X119104484Y-195093328D02*
X118390198Y-195093328D01*
X118390198Y-195093328D02*
X118318770Y-195807614D01*
X118318770Y-195807614D02*
X118390198Y-195736185D01*
X118390198Y-195736185D02*
X118533056Y-195664757D01*
X118533056Y-195664757D02*
X118890198Y-195664757D01*
X118890198Y-195664757D02*
X119033056Y-195736185D01*
X119033056Y-195736185D02*
X119104484Y-195807614D01*
X119104484Y-195807614D02*
X119175913Y-195950471D01*
X119175913Y-195950471D02*
X119175913Y-196307614D01*
X119175913Y-196307614D02*
X119104484Y-196450471D01*
X119104484Y-196450471D02*
X119033056Y-196521900D01*
X119033056Y-196521900D02*
X118890198Y-196593328D01*
X118890198Y-196593328D02*
X118533056Y-196593328D01*
X118533056Y-196593328D02*
X118390198Y-196521900D01*
X118390198Y-196521900D02*
X118318770Y-196450471D01*
X120890198Y-195021900D02*
X119604484Y-196950471D01*
X121461627Y-196593328D02*
X121747341Y-196593328D01*
X121747341Y-196593328D02*
X121890198Y-196521900D01*
X121890198Y-196521900D02*
X121961627Y-196450471D01*
X121961627Y-196450471D02*
X122104484Y-196236185D01*
X122104484Y-196236185D02*
X122175913Y-195950471D01*
X122175913Y-195950471D02*
X122175913Y-195379042D01*
X122175913Y-195379042D02*
X122104484Y-195236185D01*
X122104484Y-195236185D02*
X122033056Y-195164757D01*
X122033056Y-195164757D02*
X121890198Y-195093328D01*
X121890198Y-195093328D02*
X121604484Y-195093328D01*
X121604484Y-195093328D02*
X121461627Y-195164757D01*
X121461627Y-195164757D02*
X121390198Y-195236185D01*
X121390198Y-195236185D02*
X121318770Y-195379042D01*
X121318770Y-195379042D02*
X121318770Y-195736185D01*
X121318770Y-195736185D02*
X121390198Y-195879042D01*
X121390198Y-195879042D02*
X121461627Y-195950471D01*
X121461627Y-195950471D02*
X121604484Y-196021900D01*
X121604484Y-196021900D02*
X121890198Y-196021900D01*
X121890198Y-196021900D02*
X122033056Y-195950471D01*
X122033056Y-195950471D02*
X122104484Y-195879042D01*
X122104484Y-195879042D02*
X122175913Y-195736185D01*
X28005800Y-187507200D02*
X136005800Y-187507200D01*
D12*
X29697528Y-188211638D02*
X30840385Y-188211638D01*
X30018957Y-190211638D02*
X30268957Y-188211638D01*
X31257052Y-190211638D02*
X31423719Y-188878304D01*
X31507052Y-188211638D02*
X31399909Y-188306876D01*
X31399909Y-188306876D02*
X31483243Y-188402114D01*
X31483243Y-188402114D02*
X31590386Y-188306876D01*
X31590386Y-188306876D02*
X31507052Y-188211638D01*
X31507052Y-188211638D02*
X31483243Y-188402114D01*
X32090386Y-188878304D02*
X32852290Y-188878304D01*
X32459433Y-188211638D02*
X32245148Y-189925923D01*
X32245148Y-189925923D02*
X32316576Y-190116400D01*
X32316576Y-190116400D02*
X32495148Y-190211638D01*
X32495148Y-190211638D02*
X32685624Y-190211638D01*
X33638005Y-190211638D02*
X33459433Y-190116400D01*
X33459433Y-190116400D02*
X33388005Y-189925923D01*
X33388005Y-189925923D02*
X33602290Y-188211638D01*
X35173719Y-190116400D02*
X34971338Y-190211638D01*
X34971338Y-190211638D02*
X34590385Y-190211638D01*
X34590385Y-190211638D02*
X34411814Y-190116400D01*
X34411814Y-190116400D02*
X34340385Y-189925923D01*
X34340385Y-189925923D02*
X34435624Y-189164019D01*
X34435624Y-189164019D02*
X34554671Y-188973542D01*
X34554671Y-188973542D02*
X34757052Y-188878304D01*
X34757052Y-188878304D02*
X35138004Y-188878304D01*
X35138004Y-188878304D02*
X35316576Y-188973542D01*
X35316576Y-188973542D02*
X35388004Y-189164019D01*
X35388004Y-189164019D02*
X35364195Y-189354495D01*
X35364195Y-189354495D02*
X34388004Y-189544971D01*
X36138005Y-190021161D02*
X36221338Y-190116400D01*
X36221338Y-190116400D02*
X36114195Y-190211638D01*
X36114195Y-190211638D02*
X36030862Y-190116400D01*
X36030862Y-190116400D02*
X36138005Y-190021161D01*
X36138005Y-190021161D02*
X36114195Y-190211638D01*
X36268957Y-188973542D02*
X36352290Y-189068780D01*
X36352290Y-189068780D02*
X36245148Y-189164019D01*
X36245148Y-189164019D02*
X36161814Y-189068780D01*
X36161814Y-189068780D02*
X36268957Y-188973542D01*
X36268957Y-188973542D02*
X36245148Y-189164019D01*
X38554672Y-188211638D02*
X39697529Y-188211638D01*
X38876101Y-190211638D02*
X39126101Y-188211638D01*
X40399911Y-190211638D02*
X40221339Y-190116400D01*
X40221339Y-190116400D02*
X40138006Y-190021161D01*
X40138006Y-190021161D02*
X40066577Y-189830685D01*
X40066577Y-189830685D02*
X40138006Y-189259257D01*
X40138006Y-189259257D02*
X40257053Y-189068780D01*
X40257053Y-189068780D02*
X40364196Y-188973542D01*
X40364196Y-188973542D02*
X40566577Y-188878304D01*
X40566577Y-188878304D02*
X40852291Y-188878304D01*
X40852291Y-188878304D02*
X41030863Y-188973542D01*
X41030863Y-188973542D02*
X41114196Y-189068780D01*
X41114196Y-189068780D02*
X41185625Y-189259257D01*
X41185625Y-189259257D02*
X41114196Y-189830685D01*
X41114196Y-189830685D02*
X40995149Y-190021161D01*
X40995149Y-190021161D02*
X40888006Y-190116400D01*
X40888006Y-190116400D02*
X40685625Y-190211638D01*
X40685625Y-190211638D02*
X40399911Y-190211638D01*
X42090387Y-188878304D02*
X41840387Y-190878304D01*
X42078482Y-188973542D02*
X42280863Y-188878304D01*
X42280863Y-188878304D02*
X42661815Y-188878304D01*
X42661815Y-188878304D02*
X42840387Y-188973542D01*
X42840387Y-188973542D02*
X42923720Y-189068780D01*
X42923720Y-189068780D02*
X42995149Y-189259257D01*
X42995149Y-189259257D02*
X42923720Y-189830685D01*
X42923720Y-189830685D02*
X42804673Y-190021161D01*
X42804673Y-190021161D02*
X42697530Y-190116400D01*
X42697530Y-190116400D02*
X42495149Y-190211638D01*
X42495149Y-190211638D02*
X42114196Y-190211638D01*
X42114196Y-190211638D02*
X41935625Y-190116400D01*
X46209435Y-190211638D02*
X45257054Y-190211638D01*
X45257054Y-190211638D02*
X45507054Y-188211638D01*
X47733245Y-190211638D02*
X47864197Y-189164019D01*
X47864197Y-189164019D02*
X47792769Y-188973542D01*
X47792769Y-188973542D02*
X47614197Y-188878304D01*
X47614197Y-188878304D02*
X47233245Y-188878304D01*
X47233245Y-188878304D02*
X47030864Y-188973542D01*
X47745150Y-190116400D02*
X47542769Y-190211638D01*
X47542769Y-190211638D02*
X47066578Y-190211638D01*
X47066578Y-190211638D02*
X46888007Y-190116400D01*
X46888007Y-190116400D02*
X46816578Y-189925923D01*
X46816578Y-189925923D02*
X46840388Y-189735447D01*
X46840388Y-189735447D02*
X46959436Y-189544971D01*
X46959436Y-189544971D02*
X47161817Y-189449733D01*
X47161817Y-189449733D02*
X47638007Y-189449733D01*
X47638007Y-189449733D02*
X47840388Y-189354495D01*
X48661817Y-188878304D02*
X48971341Y-190211638D01*
X49614198Y-188878304D02*
X48971341Y-190211638D01*
X48971341Y-190211638D02*
X48721341Y-190687828D01*
X48721341Y-190687828D02*
X48614198Y-190783066D01*
X48614198Y-190783066D02*
X48411817Y-190878304D01*
X50983246Y-190116400D02*
X50780865Y-190211638D01*
X50780865Y-190211638D02*
X50399912Y-190211638D01*
X50399912Y-190211638D02*
X50221341Y-190116400D01*
X50221341Y-190116400D02*
X50149912Y-189925923D01*
X50149912Y-189925923D02*
X50245151Y-189164019D01*
X50245151Y-189164019D02*
X50364198Y-188973542D01*
X50364198Y-188973542D02*
X50566579Y-188878304D01*
X50566579Y-188878304D02*
X50947531Y-188878304D01*
X50947531Y-188878304D02*
X51126103Y-188973542D01*
X51126103Y-188973542D02*
X51197531Y-189164019D01*
X51197531Y-189164019D02*
X51173722Y-189354495D01*
X51173722Y-189354495D02*
X50197531Y-189544971D01*
X51923722Y-190211638D02*
X52090389Y-188878304D01*
X52042770Y-189259257D02*
X52161817Y-189068780D01*
X52161817Y-189068780D02*
X52268960Y-188973542D01*
X52268960Y-188973542D02*
X52471341Y-188878304D01*
X52471341Y-188878304D02*
X52661817Y-188878304D01*
X56376103Y-188116400D02*
X54340389Y-190687828D01*
X58304675Y-190211638D02*
X58554675Y-188211638D01*
X58554675Y-188211638D02*
X59316580Y-188211638D01*
X59316580Y-188211638D02*
X59495151Y-188306876D01*
X59495151Y-188306876D02*
X59578485Y-188402114D01*
X59578485Y-188402114D02*
X59649913Y-188592590D01*
X59649913Y-188592590D02*
X59614199Y-188878304D01*
X59614199Y-188878304D02*
X59495151Y-189068780D01*
X59495151Y-189068780D02*
X59388009Y-189164019D01*
X59388009Y-189164019D02*
X59185628Y-189259257D01*
X59185628Y-189259257D02*
X58423723Y-189259257D01*
X60304675Y-190211638D02*
X60471342Y-188878304D01*
X60423723Y-189259257D02*
X60542770Y-189068780D01*
X60542770Y-189068780D02*
X60649913Y-188973542D01*
X60649913Y-188973542D02*
X60852294Y-188878304D01*
X60852294Y-188878304D02*
X61042770Y-188878304D01*
X61828485Y-190211638D02*
X61649913Y-190116400D01*
X61649913Y-190116400D02*
X61566580Y-190021161D01*
X61566580Y-190021161D02*
X61495151Y-189830685D01*
X61495151Y-189830685D02*
X61566580Y-189259257D01*
X61566580Y-189259257D02*
X61685627Y-189068780D01*
X61685627Y-189068780D02*
X61792770Y-188973542D01*
X61792770Y-188973542D02*
X61995151Y-188878304D01*
X61995151Y-188878304D02*
X62280865Y-188878304D01*
X62280865Y-188878304D02*
X62459437Y-188973542D01*
X62459437Y-188973542D02*
X62542770Y-189068780D01*
X62542770Y-189068780D02*
X62614199Y-189259257D01*
X62614199Y-189259257D02*
X62542770Y-189830685D01*
X62542770Y-189830685D02*
X62423723Y-190021161D01*
X62423723Y-190021161D02*
X62316580Y-190116400D01*
X62316580Y-190116400D02*
X62114199Y-190211638D01*
X62114199Y-190211638D02*
X61828485Y-190211638D01*
X63233247Y-188878304D02*
X63995151Y-188878304D01*
X63602294Y-188211638D02*
X63388009Y-189925923D01*
X63388009Y-189925923D02*
X63459437Y-190116400D01*
X63459437Y-190116400D02*
X63638009Y-190211638D01*
X63638009Y-190211638D02*
X63828485Y-190211638D01*
X64780866Y-190211638D02*
X64602294Y-190116400D01*
X64602294Y-190116400D02*
X64518961Y-190021161D01*
X64518961Y-190021161D02*
X64447532Y-189830685D01*
X64447532Y-189830685D02*
X64518961Y-189259257D01*
X64518961Y-189259257D02*
X64638008Y-189068780D01*
X64638008Y-189068780D02*
X64745151Y-188973542D01*
X64745151Y-188973542D02*
X64947532Y-188878304D01*
X64947532Y-188878304D02*
X65233246Y-188878304D01*
X65233246Y-188878304D02*
X65411818Y-188973542D01*
X65411818Y-188973542D02*
X65495151Y-189068780D01*
X65495151Y-189068780D02*
X65566580Y-189259257D01*
X65566580Y-189259257D02*
X65495151Y-189830685D01*
X65495151Y-189830685D02*
X65376104Y-190021161D01*
X65376104Y-190021161D02*
X65268961Y-190116400D01*
X65268961Y-190116400D02*
X65066580Y-190211638D01*
X65066580Y-190211638D02*
X64780866Y-190211638D01*
X66185628Y-188878304D02*
X66947532Y-188878304D01*
X66554675Y-188211638D02*
X66340390Y-189925923D01*
X66340390Y-189925923D02*
X66411818Y-190116400D01*
X66411818Y-190116400D02*
X66590390Y-190211638D01*
X66590390Y-190211638D02*
X66780866Y-190211638D01*
X67447532Y-190211638D02*
X67614199Y-188878304D01*
X67697532Y-188211638D02*
X67590389Y-188306876D01*
X67590389Y-188306876D02*
X67673723Y-188402114D01*
X67673723Y-188402114D02*
X67780866Y-188306876D01*
X67780866Y-188306876D02*
X67697532Y-188211638D01*
X67697532Y-188211638D02*
X67673723Y-188402114D01*
X68566580Y-188878304D02*
X68316580Y-190878304D01*
X68554675Y-188973542D02*
X68757056Y-188878304D01*
X68757056Y-188878304D02*
X69138008Y-188878304D01*
X69138008Y-188878304D02*
X69316580Y-188973542D01*
X69316580Y-188973542D02*
X69399913Y-189068780D01*
X69399913Y-189068780D02*
X69471342Y-189259257D01*
X69471342Y-189259257D02*
X69399913Y-189830685D01*
X69399913Y-189830685D02*
X69280866Y-190021161D01*
X69280866Y-190021161D02*
X69173723Y-190116400D01*
X69173723Y-190116400D02*
X68971342Y-190211638D01*
X68971342Y-190211638D02*
X68590389Y-190211638D01*
X68590389Y-190211638D02*
X68411818Y-190116400D01*
X70495152Y-190211638D02*
X70316580Y-190116400D01*
X70316580Y-190116400D02*
X70233247Y-190021161D01*
X70233247Y-190021161D02*
X70161818Y-189830685D01*
X70161818Y-189830685D02*
X70233247Y-189259257D01*
X70233247Y-189259257D02*
X70352294Y-189068780D01*
X70352294Y-189068780D02*
X70459437Y-188973542D01*
X70459437Y-188973542D02*
X70661818Y-188878304D01*
X70661818Y-188878304D02*
X70947532Y-188878304D01*
X70947532Y-188878304D02*
X71126104Y-188973542D01*
X71126104Y-188973542D02*
X71209437Y-189068780D01*
X71209437Y-189068780D02*
X71280866Y-189259257D01*
X71280866Y-189259257D02*
X71209437Y-189830685D01*
X71209437Y-189830685D02*
X71090390Y-190021161D01*
X71090390Y-190021161D02*
X70983247Y-190116400D01*
X70983247Y-190116400D02*
X70780866Y-190211638D01*
X70780866Y-190211638D02*
X70495152Y-190211638D01*
X74340390Y-189164019D02*
X74614200Y-189259257D01*
X74614200Y-189259257D02*
X74697533Y-189354495D01*
X74697533Y-189354495D02*
X74768962Y-189544971D01*
X74768962Y-189544971D02*
X74733247Y-189830685D01*
X74733247Y-189830685D02*
X74614200Y-190021161D01*
X74614200Y-190021161D02*
X74507057Y-190116400D01*
X74507057Y-190116400D02*
X74304676Y-190211638D01*
X74304676Y-190211638D02*
X73542771Y-190211638D01*
X73542771Y-190211638D02*
X73792771Y-188211638D01*
X73792771Y-188211638D02*
X74459438Y-188211638D01*
X74459438Y-188211638D02*
X74638009Y-188306876D01*
X74638009Y-188306876D02*
X74721343Y-188402114D01*
X74721343Y-188402114D02*
X74792771Y-188592590D01*
X74792771Y-188592590D02*
X74768962Y-188783066D01*
X74768962Y-188783066D02*
X74649914Y-188973542D01*
X74649914Y-188973542D02*
X74542771Y-189068780D01*
X74542771Y-189068780D02*
X74340390Y-189164019D01*
X74340390Y-189164019D02*
X73673724Y-189164019D01*
X75828486Y-190211638D02*
X75649914Y-190116400D01*
X75649914Y-190116400D02*
X75566581Y-190021161D01*
X75566581Y-190021161D02*
X75495152Y-189830685D01*
X75495152Y-189830685D02*
X75566581Y-189259257D01*
X75566581Y-189259257D02*
X75685628Y-189068780D01*
X75685628Y-189068780D02*
X75792771Y-188973542D01*
X75792771Y-188973542D02*
X75995152Y-188878304D01*
X75995152Y-188878304D02*
X76280866Y-188878304D01*
X76280866Y-188878304D02*
X76459438Y-188973542D01*
X76459438Y-188973542D02*
X76542771Y-189068780D01*
X76542771Y-189068780D02*
X76614200Y-189259257D01*
X76614200Y-189259257D02*
X76542771Y-189830685D01*
X76542771Y-189830685D02*
X76423724Y-190021161D01*
X76423724Y-190021161D02*
X76316581Y-190116400D01*
X76316581Y-190116400D02*
X76114200Y-190211638D01*
X76114200Y-190211638D02*
X75828486Y-190211638D01*
X77638010Y-190211638D02*
X77459438Y-190116400D01*
X77459438Y-190116400D02*
X77376105Y-190021161D01*
X77376105Y-190021161D02*
X77304676Y-189830685D01*
X77304676Y-189830685D02*
X77376105Y-189259257D01*
X77376105Y-189259257D02*
X77495152Y-189068780D01*
X77495152Y-189068780D02*
X77602295Y-188973542D01*
X77602295Y-188973542D02*
X77804676Y-188878304D01*
X77804676Y-188878304D02*
X78090390Y-188878304D01*
X78090390Y-188878304D02*
X78268962Y-188973542D01*
X78268962Y-188973542D02*
X78352295Y-189068780D01*
X78352295Y-189068780D02*
X78423724Y-189259257D01*
X78423724Y-189259257D02*
X78352295Y-189830685D01*
X78352295Y-189830685D02*
X78233248Y-190021161D01*
X78233248Y-190021161D02*
X78126105Y-190116400D01*
X78126105Y-190116400D02*
X77923724Y-190211638D01*
X77923724Y-190211638D02*
X77638010Y-190211638D01*
X79078486Y-190116400D02*
X79257057Y-190211638D01*
X79257057Y-190211638D02*
X79638010Y-190211638D01*
X79638010Y-190211638D02*
X79840391Y-190116400D01*
X79840391Y-190116400D02*
X79959438Y-189925923D01*
X79959438Y-189925923D02*
X79971343Y-189830685D01*
X79971343Y-189830685D02*
X79899914Y-189640209D01*
X79899914Y-189640209D02*
X79721343Y-189544971D01*
X79721343Y-189544971D02*
X79435629Y-189544971D01*
X79435629Y-189544971D02*
X79257057Y-189449733D01*
X79257057Y-189449733D02*
X79185629Y-189259257D01*
X79185629Y-189259257D02*
X79197534Y-189164019D01*
X79197534Y-189164019D02*
X79316581Y-188973542D01*
X79316581Y-188973542D02*
X79518962Y-188878304D01*
X79518962Y-188878304D02*
X79804676Y-188878304D01*
X79804676Y-188878304D02*
X79983248Y-188973542D01*
X80661820Y-188878304D02*
X81423724Y-188878304D01*
X81030867Y-188211638D02*
X80816582Y-189925923D01*
X80816582Y-189925923D02*
X80888010Y-190116400D01*
X80888010Y-190116400D02*
X81066582Y-190211638D01*
X81066582Y-190211638D02*
X81257058Y-190211638D01*
X83447534Y-190211638D02*
X83697534Y-188211638D01*
X83697534Y-188211638D02*
X84173725Y-188211638D01*
X84173725Y-188211638D02*
X84447534Y-188306876D01*
X84447534Y-188306876D02*
X84614201Y-188497352D01*
X84614201Y-188497352D02*
X84685629Y-188687828D01*
X84685629Y-188687828D02*
X84733249Y-189068780D01*
X84733249Y-189068780D02*
X84697534Y-189354495D01*
X84697534Y-189354495D02*
X84554677Y-189735447D01*
X84554677Y-189735447D02*
X84435629Y-189925923D01*
X84435629Y-189925923D02*
X84221344Y-190116400D01*
X84221344Y-190116400D02*
X83923725Y-190211638D01*
X83923725Y-190211638D02*
X83447534Y-190211638D01*
X86614201Y-190021161D02*
X86507058Y-190116400D01*
X86507058Y-190116400D02*
X86209439Y-190211638D01*
X86209439Y-190211638D02*
X86018963Y-190211638D01*
X86018963Y-190211638D02*
X85745153Y-190116400D01*
X85745153Y-190116400D02*
X85578487Y-189925923D01*
X85578487Y-189925923D02*
X85507058Y-189735447D01*
X85507058Y-189735447D02*
X85459439Y-189354495D01*
X85459439Y-189354495D02*
X85495153Y-189068780D01*
X85495153Y-189068780D02*
X85638010Y-188687828D01*
X85638010Y-188687828D02*
X85757058Y-188497352D01*
X85757058Y-188497352D02*
X85971344Y-188306876D01*
X85971344Y-188306876D02*
X86268963Y-188211638D01*
X86268963Y-188211638D02*
X86459439Y-188211638D01*
X86459439Y-188211638D02*
X86733249Y-188306876D01*
X86733249Y-188306876D02*
X86816582Y-188402114D01*
X87542772Y-189449733D02*
X89066582Y-189449733D01*
X89923724Y-190211638D02*
X90173724Y-188211638D01*
X90173724Y-188211638D02*
X90649915Y-188211638D01*
X90649915Y-188211638D02*
X90923724Y-188306876D01*
X90923724Y-188306876D02*
X91090391Y-188497352D01*
X91090391Y-188497352D02*
X91161819Y-188687828D01*
X91161819Y-188687828D02*
X91209439Y-189068780D01*
X91209439Y-189068780D02*
X91173724Y-189354495D01*
X91173724Y-189354495D02*
X91030867Y-189735447D01*
X91030867Y-189735447D02*
X90911819Y-189925923D01*
X90911819Y-189925923D02*
X90697534Y-190116400D01*
X90697534Y-190116400D02*
X90399915Y-190211638D01*
X90399915Y-190211638D02*
X89923724Y-190211638D01*
X93090391Y-190021161D02*
X92983248Y-190116400D01*
X92983248Y-190116400D02*
X92685629Y-190211638D01*
X92685629Y-190211638D02*
X92495153Y-190211638D01*
X92495153Y-190211638D02*
X92221343Y-190116400D01*
X92221343Y-190116400D02*
X92054677Y-189925923D01*
X92054677Y-189925923D02*
X91983248Y-189735447D01*
X91983248Y-189735447D02*
X91935629Y-189354495D01*
X91935629Y-189354495D02*
X91971343Y-189068780D01*
X91971343Y-189068780D02*
X92114200Y-188687828D01*
X92114200Y-188687828D02*
X92233248Y-188497352D01*
X92233248Y-188497352D02*
X92447534Y-188306876D01*
X92447534Y-188306876D02*
X92745153Y-188211638D01*
X92745153Y-188211638D02*
X92935629Y-188211638D01*
X92935629Y-188211638D02*
X93209439Y-188306876D01*
X93209439Y-188306876D02*
X93292772Y-188402114D01*
D10*
X29961626Y-185607614D02*
X29461626Y-185607614D01*
X29461626Y-186393328D02*
X29461626Y-184893328D01*
X29461626Y-184893328D02*
X30175912Y-184893328D01*
X30747340Y-186393328D02*
X30747340Y-185393328D01*
X30747340Y-184893328D02*
X30675912Y-184964757D01*
X30675912Y-184964757D02*
X30747340Y-185036185D01*
X30747340Y-185036185D02*
X30818769Y-184964757D01*
X30818769Y-184964757D02*
X30747340Y-184893328D01*
X30747340Y-184893328D02*
X30747340Y-185036185D01*
X31675912Y-186393328D02*
X31533055Y-186321900D01*
X31533055Y-186321900D02*
X31461626Y-186179042D01*
X31461626Y-186179042D02*
X31461626Y-184893328D01*
X32818769Y-186321900D02*
X32675912Y-186393328D01*
X32675912Y-186393328D02*
X32390198Y-186393328D01*
X32390198Y-186393328D02*
X32247340Y-186321900D01*
X32247340Y-186321900D02*
X32175912Y-186179042D01*
X32175912Y-186179042D02*
X32175912Y-185607614D01*
X32175912Y-185607614D02*
X32247340Y-185464757D01*
X32247340Y-185464757D02*
X32390198Y-185393328D01*
X32390198Y-185393328D02*
X32675912Y-185393328D01*
X32675912Y-185393328D02*
X32818769Y-185464757D01*
X32818769Y-185464757D02*
X32890198Y-185607614D01*
X32890198Y-185607614D02*
X32890198Y-185750471D01*
X32890198Y-185750471D02*
X32175912Y-185893328D01*
X33533054Y-186250471D02*
X33604483Y-186321900D01*
X33604483Y-186321900D02*
X33533054Y-186393328D01*
X33533054Y-186393328D02*
X33461626Y-186321900D01*
X33461626Y-186321900D02*
X33533054Y-186250471D01*
X33533054Y-186250471D02*
X33533054Y-186393328D01*
X33533054Y-185464757D02*
X33604483Y-185536185D01*
X33604483Y-185536185D02*
X33533054Y-185607614D01*
X33533054Y-185607614D02*
X33461626Y-185536185D01*
X33461626Y-185536185D02*
X33533054Y-185464757D01*
X33533054Y-185464757D02*
X33533054Y-185607614D01*
X35890197Y-185607614D02*
X36104483Y-185679042D01*
X36104483Y-185679042D02*
X36175912Y-185750471D01*
X36175912Y-185750471D02*
X36247340Y-185893328D01*
X36247340Y-185893328D02*
X36247340Y-186107614D01*
X36247340Y-186107614D02*
X36175912Y-186250471D01*
X36175912Y-186250471D02*
X36104483Y-186321900D01*
X36104483Y-186321900D02*
X35961626Y-186393328D01*
X35961626Y-186393328D02*
X35390197Y-186393328D01*
X35390197Y-186393328D02*
X35390197Y-184893328D01*
X35390197Y-184893328D02*
X35890197Y-184893328D01*
X35890197Y-184893328D02*
X36033055Y-184964757D01*
X36033055Y-184964757D02*
X36104483Y-185036185D01*
X36104483Y-185036185D02*
X36175912Y-185179042D01*
X36175912Y-185179042D02*
X36175912Y-185321900D01*
X36175912Y-185321900D02*
X36104483Y-185464757D01*
X36104483Y-185464757D02*
X36033055Y-185536185D01*
X36033055Y-185536185D02*
X35890197Y-185607614D01*
X35890197Y-185607614D02*
X35390197Y-185607614D01*
X37104483Y-186393328D02*
X36961626Y-186321900D01*
X36961626Y-186321900D02*
X36890197Y-186250471D01*
X36890197Y-186250471D02*
X36818769Y-186107614D01*
X36818769Y-186107614D02*
X36818769Y-185679042D01*
X36818769Y-185679042D02*
X36890197Y-185536185D01*
X36890197Y-185536185D02*
X36961626Y-185464757D01*
X36961626Y-185464757D02*
X37104483Y-185393328D01*
X37104483Y-185393328D02*
X37318769Y-185393328D01*
X37318769Y-185393328D02*
X37461626Y-185464757D01*
X37461626Y-185464757D02*
X37533055Y-185536185D01*
X37533055Y-185536185D02*
X37604483Y-185679042D01*
X37604483Y-185679042D02*
X37604483Y-186107614D01*
X37604483Y-186107614D02*
X37533055Y-186250471D01*
X37533055Y-186250471D02*
X37461626Y-186321900D01*
X37461626Y-186321900D02*
X37318769Y-186393328D01*
X37318769Y-186393328D02*
X37104483Y-186393328D01*
X38461626Y-186393328D02*
X38318769Y-186321900D01*
X38318769Y-186321900D02*
X38247340Y-186250471D01*
X38247340Y-186250471D02*
X38175912Y-186107614D01*
X38175912Y-186107614D02*
X38175912Y-185679042D01*
X38175912Y-185679042D02*
X38247340Y-185536185D01*
X38247340Y-185536185D02*
X38318769Y-185464757D01*
X38318769Y-185464757D02*
X38461626Y-185393328D01*
X38461626Y-185393328D02*
X38675912Y-185393328D01*
X38675912Y-185393328D02*
X38818769Y-185464757D01*
X38818769Y-185464757D02*
X38890198Y-185536185D01*
X38890198Y-185536185D02*
X38961626Y-185679042D01*
X38961626Y-185679042D02*
X38961626Y-186107614D01*
X38961626Y-186107614D02*
X38890198Y-186250471D01*
X38890198Y-186250471D02*
X38818769Y-186321900D01*
X38818769Y-186321900D02*
X38675912Y-186393328D01*
X38675912Y-186393328D02*
X38461626Y-186393328D01*
X39533055Y-186321900D02*
X39675912Y-186393328D01*
X39675912Y-186393328D02*
X39961626Y-186393328D01*
X39961626Y-186393328D02*
X40104483Y-186321900D01*
X40104483Y-186321900D02*
X40175912Y-186179042D01*
X40175912Y-186179042D02*
X40175912Y-186107614D01*
X40175912Y-186107614D02*
X40104483Y-185964757D01*
X40104483Y-185964757D02*
X39961626Y-185893328D01*
X39961626Y-185893328D02*
X39747341Y-185893328D01*
X39747341Y-185893328D02*
X39604483Y-185821900D01*
X39604483Y-185821900D02*
X39533055Y-185679042D01*
X39533055Y-185679042D02*
X39533055Y-185607614D01*
X39533055Y-185607614D02*
X39604483Y-185464757D01*
X39604483Y-185464757D02*
X39747341Y-185393328D01*
X39747341Y-185393328D02*
X39961626Y-185393328D01*
X39961626Y-185393328D02*
X40104483Y-185464757D01*
X40604484Y-185393328D02*
X41175912Y-185393328D01*
X40818769Y-184893328D02*
X40818769Y-186179042D01*
X40818769Y-186179042D02*
X40890198Y-186321900D01*
X40890198Y-186321900D02*
X41033055Y-186393328D01*
X41033055Y-186393328D02*
X41175912Y-186393328D01*
X41318770Y-186536185D02*
X42461627Y-186536185D01*
X42604484Y-184893328D02*
X43104484Y-186393328D01*
X43104484Y-186393328D02*
X43604484Y-184893328D01*
X44033055Y-185036185D02*
X44104483Y-184964757D01*
X44104483Y-184964757D02*
X44247341Y-184893328D01*
X44247341Y-184893328D02*
X44604483Y-184893328D01*
X44604483Y-184893328D02*
X44747341Y-184964757D01*
X44747341Y-184964757D02*
X44818769Y-185036185D01*
X44818769Y-185036185D02*
X44890198Y-185179042D01*
X44890198Y-185179042D02*
X44890198Y-185321900D01*
X44890198Y-185321900D02*
X44818769Y-185536185D01*
X44818769Y-185536185D02*
X43961626Y-186393328D01*
X43961626Y-186393328D02*
X44890198Y-186393328D01*
X45533054Y-186250471D02*
X45604483Y-186321900D01*
X45604483Y-186321900D02*
X45533054Y-186393328D01*
X45533054Y-186393328D02*
X45461626Y-186321900D01*
X45461626Y-186321900D02*
X45533054Y-186250471D01*
X45533054Y-186250471D02*
X45533054Y-186393328D01*
X46247340Y-186393328D02*
X46247340Y-184893328D01*
X46390198Y-185821900D02*
X46818769Y-186393328D01*
X46818769Y-185393328D02*
X46247340Y-185964757D01*
X47461626Y-186393328D02*
X47461626Y-185393328D01*
X47461626Y-184893328D02*
X47390198Y-184964757D01*
X47390198Y-184964757D02*
X47461626Y-185036185D01*
X47461626Y-185036185D02*
X47533055Y-184964757D01*
X47533055Y-184964757D02*
X47461626Y-184893328D01*
X47461626Y-184893328D02*
X47461626Y-185036185D01*
X48818770Y-186321900D02*
X48675912Y-186393328D01*
X48675912Y-186393328D02*
X48390198Y-186393328D01*
X48390198Y-186393328D02*
X48247341Y-186321900D01*
X48247341Y-186321900D02*
X48175912Y-186250471D01*
X48175912Y-186250471D02*
X48104484Y-186107614D01*
X48104484Y-186107614D02*
X48104484Y-185679042D01*
X48104484Y-185679042D02*
X48175912Y-185536185D01*
X48175912Y-185536185D02*
X48247341Y-185464757D01*
X48247341Y-185464757D02*
X48390198Y-185393328D01*
X48390198Y-185393328D02*
X48675912Y-185393328D01*
X48675912Y-185393328D02*
X48818770Y-185464757D01*
X50104484Y-186393328D02*
X50104484Y-185607614D01*
X50104484Y-185607614D02*
X50033055Y-185464757D01*
X50033055Y-185464757D02*
X49890198Y-185393328D01*
X49890198Y-185393328D02*
X49604484Y-185393328D01*
X49604484Y-185393328D02*
X49461626Y-185464757D01*
X50104484Y-186321900D02*
X49961626Y-186393328D01*
X49961626Y-186393328D02*
X49604484Y-186393328D01*
X49604484Y-186393328D02*
X49461626Y-186321900D01*
X49461626Y-186321900D02*
X49390198Y-186179042D01*
X49390198Y-186179042D02*
X49390198Y-186036185D01*
X49390198Y-186036185D02*
X49461626Y-185893328D01*
X49461626Y-185893328D02*
X49604484Y-185821900D01*
X49604484Y-185821900D02*
X49961626Y-185821900D01*
X49961626Y-185821900D02*
X50104484Y-185750471D01*
X51461627Y-186393328D02*
X51461627Y-184893328D01*
X51461627Y-186321900D02*
X51318769Y-186393328D01*
X51318769Y-186393328D02*
X51033055Y-186393328D01*
X51033055Y-186393328D02*
X50890198Y-186321900D01*
X50890198Y-186321900D02*
X50818769Y-186250471D01*
X50818769Y-186250471D02*
X50747341Y-186107614D01*
X50747341Y-186107614D02*
X50747341Y-185679042D01*
X50747341Y-185679042D02*
X50818769Y-185536185D01*
X50818769Y-185536185D02*
X50890198Y-185464757D01*
X50890198Y-185464757D02*
X51033055Y-185393328D01*
X51033055Y-185393328D02*
X51318769Y-185393328D01*
X51318769Y-185393328D02*
X51461627Y-185464757D01*
X51818770Y-186536185D02*
X52961627Y-186536185D01*
X53318769Y-185393328D02*
X53318769Y-186893328D01*
X53318769Y-185464757D02*
X53461627Y-185393328D01*
X53461627Y-185393328D02*
X53747341Y-185393328D01*
X53747341Y-185393328D02*
X53890198Y-185464757D01*
X53890198Y-185464757D02*
X53961627Y-185536185D01*
X53961627Y-185536185D02*
X54033055Y-185679042D01*
X54033055Y-185679042D02*
X54033055Y-186107614D01*
X54033055Y-186107614D02*
X53961627Y-186250471D01*
X53961627Y-186250471D02*
X53890198Y-186321900D01*
X53890198Y-186321900D02*
X53747341Y-186393328D01*
X53747341Y-186393328D02*
X53461627Y-186393328D01*
X53461627Y-186393328D02*
X53318769Y-186321900D01*
X55318770Y-186321900D02*
X55175912Y-186393328D01*
X55175912Y-186393328D02*
X54890198Y-186393328D01*
X54890198Y-186393328D02*
X54747341Y-186321900D01*
X54747341Y-186321900D02*
X54675912Y-186250471D01*
X54675912Y-186250471D02*
X54604484Y-186107614D01*
X54604484Y-186107614D02*
X54604484Y-185679042D01*
X54604484Y-185679042D02*
X54675912Y-185536185D01*
X54675912Y-185536185D02*
X54747341Y-185464757D01*
X54747341Y-185464757D02*
X54890198Y-185393328D01*
X54890198Y-185393328D02*
X55175912Y-185393328D01*
X55175912Y-185393328D02*
X55318770Y-185464757D01*
X55961626Y-186393328D02*
X55961626Y-184893328D01*
X55961626Y-185464757D02*
X56104484Y-185393328D01*
X56104484Y-185393328D02*
X56390198Y-185393328D01*
X56390198Y-185393328D02*
X56533055Y-185464757D01*
X56533055Y-185464757D02*
X56604484Y-185536185D01*
X56604484Y-185536185D02*
X56675912Y-185679042D01*
X56675912Y-185679042D02*
X56675912Y-186107614D01*
X56675912Y-186107614D02*
X56604484Y-186250471D01*
X56604484Y-186250471D02*
X56533055Y-186321900D01*
X56533055Y-186321900D02*
X56390198Y-186393328D01*
X56390198Y-186393328D02*
X56104484Y-186393328D01*
X56104484Y-186393328D02*
X55961626Y-186321900D01*
X28005800Y-181507200D02*
X136005800Y-181507200D01*
X29390198Y-183621900D02*
X29604484Y-183693328D01*
X29604484Y-183693328D02*
X29961626Y-183693328D01*
X29961626Y-183693328D02*
X30104484Y-183621900D01*
X30104484Y-183621900D02*
X30175912Y-183550471D01*
X30175912Y-183550471D02*
X30247341Y-183407614D01*
X30247341Y-183407614D02*
X30247341Y-183264757D01*
X30247341Y-183264757D02*
X30175912Y-183121900D01*
X30175912Y-183121900D02*
X30104484Y-183050471D01*
X30104484Y-183050471D02*
X29961626Y-182979042D01*
X29961626Y-182979042D02*
X29675912Y-182907614D01*
X29675912Y-182907614D02*
X29533055Y-182836185D01*
X29533055Y-182836185D02*
X29461626Y-182764757D01*
X29461626Y-182764757D02*
X29390198Y-182621900D01*
X29390198Y-182621900D02*
X29390198Y-182479042D01*
X29390198Y-182479042D02*
X29461626Y-182336185D01*
X29461626Y-182336185D02*
X29533055Y-182264757D01*
X29533055Y-182264757D02*
X29675912Y-182193328D01*
X29675912Y-182193328D02*
X30033055Y-182193328D01*
X30033055Y-182193328D02*
X30247341Y-182264757D01*
X30890197Y-183693328D02*
X30890197Y-182193328D01*
X31533055Y-183693328D02*
X31533055Y-182907614D01*
X31533055Y-182907614D02*
X31461626Y-182764757D01*
X31461626Y-182764757D02*
X31318769Y-182693328D01*
X31318769Y-182693328D02*
X31104483Y-182693328D01*
X31104483Y-182693328D02*
X30961626Y-182764757D01*
X30961626Y-182764757D02*
X30890197Y-182836185D01*
X32818769Y-183621900D02*
X32675912Y-183693328D01*
X32675912Y-183693328D02*
X32390198Y-183693328D01*
X32390198Y-183693328D02*
X32247340Y-183621900D01*
X32247340Y-183621900D02*
X32175912Y-183479042D01*
X32175912Y-183479042D02*
X32175912Y-182907614D01*
X32175912Y-182907614D02*
X32247340Y-182764757D01*
X32247340Y-182764757D02*
X32390198Y-182693328D01*
X32390198Y-182693328D02*
X32675912Y-182693328D01*
X32675912Y-182693328D02*
X32818769Y-182764757D01*
X32818769Y-182764757D02*
X32890198Y-182907614D01*
X32890198Y-182907614D02*
X32890198Y-183050471D01*
X32890198Y-183050471D02*
X32175912Y-183193328D01*
X34104483Y-183621900D02*
X33961626Y-183693328D01*
X33961626Y-183693328D02*
X33675912Y-183693328D01*
X33675912Y-183693328D02*
X33533054Y-183621900D01*
X33533054Y-183621900D02*
X33461626Y-183479042D01*
X33461626Y-183479042D02*
X33461626Y-182907614D01*
X33461626Y-182907614D02*
X33533054Y-182764757D01*
X33533054Y-182764757D02*
X33675912Y-182693328D01*
X33675912Y-182693328D02*
X33961626Y-182693328D01*
X33961626Y-182693328D02*
X34104483Y-182764757D01*
X34104483Y-182764757D02*
X34175912Y-182907614D01*
X34175912Y-182907614D02*
X34175912Y-183050471D01*
X34175912Y-183050471D02*
X33461626Y-183193328D01*
X34604483Y-182693328D02*
X35175911Y-182693328D01*
X34818768Y-182193328D02*
X34818768Y-183479042D01*
X34818768Y-183479042D02*
X34890197Y-183621900D01*
X34890197Y-183621900D02*
X35033054Y-183693328D01*
X35033054Y-183693328D02*
X35175911Y-183693328D01*
X35675911Y-183550471D02*
X35747340Y-183621900D01*
X35747340Y-183621900D02*
X35675911Y-183693328D01*
X35675911Y-183693328D02*
X35604483Y-183621900D01*
X35604483Y-183621900D02*
X35675911Y-183550471D01*
X35675911Y-183550471D02*
X35675911Y-183693328D01*
X35675911Y-182764757D02*
X35747340Y-182836185D01*
X35747340Y-182836185D02*
X35675911Y-182907614D01*
X35675911Y-182907614D02*
X35604483Y-182836185D01*
X35604483Y-182836185D02*
X35675911Y-182764757D01*
X35675911Y-182764757D02*
X35675911Y-182907614D01*
D11*
X29560310Y-179185528D02*
X29560310Y-180399814D01*
X29560310Y-180399814D02*
X29631739Y-180542671D01*
X29631739Y-180542671D02*
X29703168Y-180614100D01*
X29703168Y-180614100D02*
X29846025Y-180685528D01*
X29846025Y-180685528D02*
X30131739Y-180685528D01*
X30131739Y-180685528D02*
X30274596Y-180614100D01*
X30274596Y-180614100D02*
X30346025Y-180542671D01*
X30346025Y-180542671D02*
X30417453Y-180399814D01*
X30417453Y-180399814D02*
X30417453Y-179185528D01*
X31131739Y-179685528D02*
X31131739Y-180685528D01*
X31131739Y-179828385D02*
X31203168Y-179756957D01*
X31203168Y-179756957D02*
X31346025Y-179685528D01*
X31346025Y-179685528D02*
X31560311Y-179685528D01*
X31560311Y-179685528D02*
X31703168Y-179756957D01*
X31703168Y-179756957D02*
X31774597Y-179899814D01*
X31774597Y-179899814D02*
X31774597Y-180685528D01*
X32488882Y-180685528D02*
X32488882Y-179685528D01*
X32488882Y-179185528D02*
X32417454Y-179256957D01*
X32417454Y-179256957D02*
X32488882Y-179328385D01*
X32488882Y-179328385D02*
X32560311Y-179256957D01*
X32560311Y-179256957D02*
X32488882Y-179185528D01*
X32488882Y-179185528D02*
X32488882Y-179328385D01*
X33060311Y-179685528D02*
X33417454Y-180685528D01*
X33417454Y-180685528D02*
X33774597Y-179685528D01*
X34917454Y-180614100D02*
X34774597Y-180685528D01*
X34774597Y-180685528D02*
X34488883Y-180685528D01*
X34488883Y-180685528D02*
X34346025Y-180614100D01*
X34346025Y-180614100D02*
X34274597Y-180471242D01*
X34274597Y-180471242D02*
X34274597Y-179899814D01*
X34274597Y-179899814D02*
X34346025Y-179756957D01*
X34346025Y-179756957D02*
X34488883Y-179685528D01*
X34488883Y-179685528D02*
X34774597Y-179685528D01*
X34774597Y-179685528D02*
X34917454Y-179756957D01*
X34917454Y-179756957D02*
X34988883Y-179899814D01*
X34988883Y-179899814D02*
X34988883Y-180042671D01*
X34988883Y-180042671D02*
X34274597Y-180185528D01*
X35631739Y-180685528D02*
X35631739Y-179685528D01*
X35631739Y-179971242D02*
X35703168Y-179828385D01*
X35703168Y-179828385D02*
X35774597Y-179756957D01*
X35774597Y-179756957D02*
X35917454Y-179685528D01*
X35917454Y-179685528D02*
X36060311Y-179685528D01*
X36488882Y-180614100D02*
X36631739Y-180685528D01*
X36631739Y-180685528D02*
X36917453Y-180685528D01*
X36917453Y-180685528D02*
X37060310Y-180614100D01*
X37060310Y-180614100D02*
X37131739Y-180471242D01*
X37131739Y-180471242D02*
X37131739Y-180399814D01*
X37131739Y-180399814D02*
X37060310Y-180256957D01*
X37060310Y-180256957D02*
X36917453Y-180185528D01*
X36917453Y-180185528D02*
X36703168Y-180185528D01*
X36703168Y-180185528D02*
X36560310Y-180114100D01*
X36560310Y-180114100D02*
X36488882Y-179971242D01*
X36488882Y-179971242D02*
X36488882Y-179899814D01*
X36488882Y-179899814D02*
X36560310Y-179756957D01*
X36560310Y-179756957D02*
X36703168Y-179685528D01*
X36703168Y-179685528D02*
X36917453Y-179685528D01*
X36917453Y-179685528D02*
X37060310Y-179756957D01*
X37774596Y-180685528D02*
X37774596Y-179685528D01*
X37774596Y-179185528D02*
X37703168Y-179256957D01*
X37703168Y-179256957D02*
X37774596Y-179328385D01*
X37774596Y-179328385D02*
X37846025Y-179256957D01*
X37846025Y-179256957D02*
X37774596Y-179185528D01*
X37774596Y-179185528D02*
X37774596Y-179328385D01*
X39131740Y-180685528D02*
X39131740Y-179185528D01*
X39131740Y-180614100D02*
X38988882Y-180685528D01*
X38988882Y-180685528D02*
X38703168Y-180685528D01*
X38703168Y-180685528D02*
X38560311Y-180614100D01*
X38560311Y-180614100D02*
X38488882Y-180542671D01*
X38488882Y-180542671D02*
X38417454Y-180399814D01*
X38417454Y-180399814D02*
X38417454Y-179971242D01*
X38417454Y-179971242D02*
X38488882Y-179828385D01*
X38488882Y-179828385D02*
X38560311Y-179756957D01*
X38560311Y-179756957D02*
X38703168Y-179685528D01*
X38703168Y-179685528D02*
X38988882Y-179685528D01*
X38988882Y-179685528D02*
X39131740Y-179756957D01*
X40488883Y-180685528D02*
X40488883Y-179899814D01*
X40488883Y-179899814D02*
X40417454Y-179756957D01*
X40417454Y-179756957D02*
X40274597Y-179685528D01*
X40274597Y-179685528D02*
X39988883Y-179685528D01*
X39988883Y-179685528D02*
X39846025Y-179756957D01*
X40488883Y-180614100D02*
X40346025Y-180685528D01*
X40346025Y-180685528D02*
X39988883Y-180685528D01*
X39988883Y-180685528D02*
X39846025Y-180614100D01*
X39846025Y-180614100D02*
X39774597Y-180471242D01*
X39774597Y-180471242D02*
X39774597Y-180328385D01*
X39774597Y-180328385D02*
X39846025Y-180185528D01*
X39846025Y-180185528D02*
X39988883Y-180114100D01*
X39988883Y-180114100D02*
X40346025Y-180114100D01*
X40346025Y-180114100D02*
X40488883Y-180042671D01*
X41846026Y-180685528D02*
X41846026Y-179185528D01*
X41846026Y-180614100D02*
X41703168Y-180685528D01*
X41703168Y-180685528D02*
X41417454Y-180685528D01*
X41417454Y-180685528D02*
X41274597Y-180614100D01*
X41274597Y-180614100D02*
X41203168Y-180542671D01*
X41203168Y-180542671D02*
X41131740Y-180399814D01*
X41131740Y-180399814D02*
X41131740Y-179971242D01*
X41131740Y-179971242D02*
X41203168Y-179828385D01*
X41203168Y-179828385D02*
X41274597Y-179756957D01*
X41274597Y-179756957D02*
X41417454Y-179685528D01*
X41417454Y-179685528D02*
X41703168Y-179685528D01*
X41703168Y-179685528D02*
X41846026Y-179756957D01*
X44346026Y-180685528D02*
X44346026Y-179185528D01*
X44346026Y-180614100D02*
X44203168Y-180685528D01*
X44203168Y-180685528D02*
X43917454Y-180685528D01*
X43917454Y-180685528D02*
X43774597Y-180614100D01*
X43774597Y-180614100D02*
X43703168Y-180542671D01*
X43703168Y-180542671D02*
X43631740Y-180399814D01*
X43631740Y-180399814D02*
X43631740Y-179971242D01*
X43631740Y-179971242D02*
X43703168Y-179828385D01*
X43703168Y-179828385D02*
X43774597Y-179756957D01*
X43774597Y-179756957D02*
X43917454Y-179685528D01*
X43917454Y-179685528D02*
X44203168Y-179685528D01*
X44203168Y-179685528D02*
X44346026Y-179756957D01*
X45631740Y-180614100D02*
X45488883Y-180685528D01*
X45488883Y-180685528D02*
X45203169Y-180685528D01*
X45203169Y-180685528D02*
X45060311Y-180614100D01*
X45060311Y-180614100D02*
X44988883Y-180471242D01*
X44988883Y-180471242D02*
X44988883Y-179899814D01*
X44988883Y-179899814D02*
X45060311Y-179756957D01*
X45060311Y-179756957D02*
X45203169Y-179685528D01*
X45203169Y-179685528D02*
X45488883Y-179685528D01*
X45488883Y-179685528D02*
X45631740Y-179756957D01*
X45631740Y-179756957D02*
X45703169Y-179899814D01*
X45703169Y-179899814D02*
X45703169Y-180042671D01*
X45703169Y-180042671D02*
X44988883Y-180185528D01*
X48346025Y-180542671D02*
X48274597Y-180614100D01*
X48274597Y-180614100D02*
X48060311Y-180685528D01*
X48060311Y-180685528D02*
X47917454Y-180685528D01*
X47917454Y-180685528D02*
X47703168Y-180614100D01*
X47703168Y-180614100D02*
X47560311Y-180471242D01*
X47560311Y-180471242D02*
X47488882Y-180328385D01*
X47488882Y-180328385D02*
X47417454Y-180042671D01*
X47417454Y-180042671D02*
X47417454Y-179828385D01*
X47417454Y-179828385D02*
X47488882Y-179542671D01*
X47488882Y-179542671D02*
X47560311Y-179399814D01*
X47560311Y-179399814D02*
X47703168Y-179256957D01*
X47703168Y-179256957D02*
X47917454Y-179185528D01*
X47917454Y-179185528D02*
X48060311Y-179185528D01*
X48060311Y-179185528D02*
X48274597Y-179256957D01*
X48274597Y-179256957D02*
X48346025Y-179328385D01*
X49631740Y-180685528D02*
X49631740Y-179899814D01*
X49631740Y-179899814D02*
X49560311Y-179756957D01*
X49560311Y-179756957D02*
X49417454Y-179685528D01*
X49417454Y-179685528D02*
X49131740Y-179685528D01*
X49131740Y-179685528D02*
X48988882Y-179756957D01*
X49631740Y-180614100D02*
X49488882Y-180685528D01*
X49488882Y-180685528D02*
X49131740Y-180685528D01*
X49131740Y-180685528D02*
X48988882Y-180614100D01*
X48988882Y-180614100D02*
X48917454Y-180471242D01*
X48917454Y-180471242D02*
X48917454Y-180328385D01*
X48917454Y-180328385D02*
X48988882Y-180185528D01*
X48988882Y-180185528D02*
X49131740Y-180114100D01*
X49131740Y-180114100D02*
X49488882Y-180114100D01*
X49488882Y-180114100D02*
X49631740Y-180042671D01*
X50346025Y-179685528D02*
X50346025Y-180685528D01*
X50346025Y-179828385D02*
X50417454Y-179756957D01*
X50417454Y-179756957D02*
X50560311Y-179685528D01*
X50560311Y-179685528D02*
X50774597Y-179685528D01*
X50774597Y-179685528D02*
X50917454Y-179756957D01*
X50917454Y-179756957D02*
X50988883Y-179899814D01*
X50988883Y-179899814D02*
X50988883Y-180685528D01*
X51488883Y-179685528D02*
X52060311Y-179685528D01*
X51703168Y-179185528D02*
X51703168Y-180471242D01*
X51703168Y-180471242D02*
X51774597Y-180614100D01*
X51774597Y-180614100D02*
X51917454Y-180685528D01*
X51917454Y-180685528D02*
X52060311Y-180685528D01*
X53203169Y-180685528D02*
X53203169Y-179899814D01*
X53203169Y-179899814D02*
X53131740Y-179756957D01*
X53131740Y-179756957D02*
X52988883Y-179685528D01*
X52988883Y-179685528D02*
X52703169Y-179685528D01*
X52703169Y-179685528D02*
X52560311Y-179756957D01*
X53203169Y-180614100D02*
X53060311Y-180685528D01*
X53060311Y-180685528D02*
X52703169Y-180685528D01*
X52703169Y-180685528D02*
X52560311Y-180614100D01*
X52560311Y-180614100D02*
X52488883Y-180471242D01*
X52488883Y-180471242D02*
X52488883Y-180328385D01*
X52488883Y-180328385D02*
X52560311Y-180185528D01*
X52560311Y-180185528D02*
X52703169Y-180114100D01*
X52703169Y-180114100D02*
X53060311Y-180114100D01*
X53060311Y-180114100D02*
X53203169Y-180042671D01*
X53917454Y-180685528D02*
X53917454Y-179185528D01*
X53917454Y-179756957D02*
X54060312Y-179685528D01*
X54060312Y-179685528D02*
X54346026Y-179685528D01*
X54346026Y-179685528D02*
X54488883Y-179756957D01*
X54488883Y-179756957D02*
X54560312Y-179828385D01*
X54560312Y-179828385D02*
X54631740Y-179971242D01*
X54631740Y-179971242D02*
X54631740Y-180399814D01*
X54631740Y-180399814D02*
X54560312Y-180542671D01*
X54560312Y-180542671D02*
X54488883Y-180614100D01*
X54488883Y-180614100D02*
X54346026Y-180685528D01*
X54346026Y-180685528D02*
X54060312Y-180685528D01*
X54060312Y-180685528D02*
X53917454Y-180614100D01*
X55274597Y-180685528D02*
X55274597Y-179685528D01*
X55274597Y-179971242D02*
X55346026Y-179828385D01*
X55346026Y-179828385D02*
X55417455Y-179756957D01*
X55417455Y-179756957D02*
X55560312Y-179685528D01*
X55560312Y-179685528D02*
X55703169Y-179685528D01*
X56203168Y-180685528D02*
X56203168Y-179685528D01*
X56203168Y-179185528D02*
X56131740Y-179256957D01*
X56131740Y-179256957D02*
X56203168Y-179328385D01*
X56203168Y-179328385D02*
X56274597Y-179256957D01*
X56274597Y-179256957D02*
X56203168Y-179185528D01*
X56203168Y-179185528D02*
X56203168Y-179328385D01*
X57560312Y-180685528D02*
X57560312Y-179899814D01*
X57560312Y-179899814D02*
X57488883Y-179756957D01*
X57488883Y-179756957D02*
X57346026Y-179685528D01*
X57346026Y-179685528D02*
X57060312Y-179685528D01*
X57060312Y-179685528D02*
X56917454Y-179756957D01*
X57560312Y-180614100D02*
X57417454Y-180685528D01*
X57417454Y-180685528D02*
X57060312Y-180685528D01*
X57060312Y-180685528D02*
X56917454Y-180614100D01*
X56917454Y-180614100D02*
X56846026Y-180471242D01*
X56846026Y-180471242D02*
X56846026Y-180328385D01*
X56846026Y-180328385D02*
X56917454Y-180185528D01*
X56917454Y-180185528D02*
X57060312Y-180114100D01*
X57060312Y-180114100D02*
X57417454Y-180114100D01*
X57417454Y-180114100D02*
X57560312Y-180042671D01*
D10*
X29247341Y-176193328D02*
X30104484Y-176193328D01*
X29675912Y-177693328D02*
X29675912Y-176193328D01*
X31104483Y-176907614D02*
X30604483Y-176907614D01*
X30604483Y-177693328D02*
X30604483Y-176193328D01*
X30604483Y-176193328D02*
X31318769Y-176193328D01*
X32675912Y-176264757D02*
X32533055Y-176193328D01*
X32533055Y-176193328D02*
X32318769Y-176193328D01*
X32318769Y-176193328D02*
X32104483Y-176264757D01*
X32104483Y-176264757D02*
X31961626Y-176407614D01*
X31961626Y-176407614D02*
X31890197Y-176550471D01*
X31890197Y-176550471D02*
X31818769Y-176836185D01*
X31818769Y-176836185D02*
X31818769Y-177050471D01*
X31818769Y-177050471D02*
X31890197Y-177336185D01*
X31890197Y-177336185D02*
X31961626Y-177479042D01*
X31961626Y-177479042D02*
X32104483Y-177621900D01*
X32104483Y-177621900D02*
X32318769Y-177693328D01*
X32318769Y-177693328D02*
X32461626Y-177693328D01*
X32461626Y-177693328D02*
X32675912Y-177621900D01*
X32675912Y-177621900D02*
X32747340Y-177550471D01*
X32747340Y-177550471D02*
X32747340Y-177050471D01*
X32747340Y-177050471D02*
X32461626Y-177050471D01*
X34533054Y-177121900D02*
X35675912Y-177121900D01*
X37961626Y-176193328D02*
X37961626Y-177264757D01*
X37961626Y-177264757D02*
X37890197Y-177479042D01*
X37890197Y-177479042D02*
X37747340Y-177621900D01*
X37747340Y-177621900D02*
X37533054Y-177693328D01*
X37533054Y-177693328D02*
X37390197Y-177693328D01*
X39318769Y-177693328D02*
X39318769Y-176907614D01*
X39318769Y-176907614D02*
X39247340Y-176764757D01*
X39247340Y-176764757D02*
X39104483Y-176693328D01*
X39104483Y-176693328D02*
X38818769Y-176693328D01*
X38818769Y-176693328D02*
X38675911Y-176764757D01*
X39318769Y-177621900D02*
X39175911Y-177693328D01*
X39175911Y-177693328D02*
X38818769Y-177693328D01*
X38818769Y-177693328D02*
X38675911Y-177621900D01*
X38675911Y-177621900D02*
X38604483Y-177479042D01*
X38604483Y-177479042D02*
X38604483Y-177336185D01*
X38604483Y-177336185D02*
X38675911Y-177193328D01*
X38675911Y-177193328D02*
X38818769Y-177121900D01*
X38818769Y-177121900D02*
X39175911Y-177121900D01*
X39175911Y-177121900D02*
X39318769Y-177050471D01*
X39890197Y-176693328D02*
X40247340Y-177693328D01*
X40247340Y-177693328D02*
X40604483Y-176693328D01*
X41175911Y-177693328D02*
X41175911Y-176693328D01*
X41175911Y-176193328D02*
X41104483Y-176264757D01*
X41104483Y-176264757D02*
X41175911Y-176336185D01*
X41175911Y-176336185D02*
X41247340Y-176264757D01*
X41247340Y-176264757D02*
X41175911Y-176193328D01*
X41175911Y-176193328D02*
X41175911Y-176336185D01*
X42461626Y-177621900D02*
X42318769Y-177693328D01*
X42318769Y-177693328D02*
X42033055Y-177693328D01*
X42033055Y-177693328D02*
X41890197Y-177621900D01*
X41890197Y-177621900D02*
X41818769Y-177479042D01*
X41818769Y-177479042D02*
X41818769Y-176907614D01*
X41818769Y-176907614D02*
X41890197Y-176764757D01*
X41890197Y-176764757D02*
X42033055Y-176693328D01*
X42033055Y-176693328D02*
X42318769Y-176693328D01*
X42318769Y-176693328D02*
X42461626Y-176764757D01*
X42461626Y-176764757D02*
X42533055Y-176907614D01*
X42533055Y-176907614D02*
X42533055Y-177050471D01*
X42533055Y-177050471D02*
X41818769Y-177193328D01*
X43175911Y-177693328D02*
X43175911Y-176693328D01*
X43175911Y-176979042D02*
X43247340Y-176836185D01*
X43247340Y-176836185D02*
X43318769Y-176764757D01*
X43318769Y-176764757D02*
X43461626Y-176693328D01*
X43461626Y-176693328D02*
X43604483Y-176693328D01*
X45033054Y-176193328D02*
X45533054Y-177693328D01*
X45533054Y-177693328D02*
X46033054Y-176193328D01*
X47175911Y-177693328D02*
X47175911Y-176907614D01*
X47175911Y-176907614D02*
X47104482Y-176764757D01*
X47104482Y-176764757D02*
X46961625Y-176693328D01*
X46961625Y-176693328D02*
X46675911Y-176693328D01*
X46675911Y-176693328D02*
X46533053Y-176764757D01*
X47175911Y-177621900D02*
X47033053Y-177693328D01*
X47033053Y-177693328D02*
X46675911Y-177693328D01*
X46675911Y-177693328D02*
X46533053Y-177621900D01*
X46533053Y-177621900D02*
X46461625Y-177479042D01*
X46461625Y-177479042D02*
X46461625Y-177336185D01*
X46461625Y-177336185D02*
X46533053Y-177193328D01*
X46533053Y-177193328D02*
X46675911Y-177121900D01*
X46675911Y-177121900D02*
X47033053Y-177121900D01*
X47033053Y-177121900D02*
X47175911Y-177050471D01*
X47890196Y-177693328D02*
X47890196Y-176693328D01*
X47890196Y-176979042D02*
X47961625Y-176836185D01*
X47961625Y-176836185D02*
X48033054Y-176764757D01*
X48033054Y-176764757D02*
X48175911Y-176693328D01*
X48175911Y-176693328D02*
X48318768Y-176693328D01*
X49461625Y-177693328D02*
X49461625Y-176907614D01*
X49461625Y-176907614D02*
X49390196Y-176764757D01*
X49390196Y-176764757D02*
X49247339Y-176693328D01*
X49247339Y-176693328D02*
X48961625Y-176693328D01*
X48961625Y-176693328D02*
X48818767Y-176764757D01*
X49461625Y-177621900D02*
X49318767Y-177693328D01*
X49318767Y-177693328D02*
X48961625Y-177693328D01*
X48961625Y-177693328D02*
X48818767Y-177621900D01*
X48818767Y-177621900D02*
X48747339Y-177479042D01*
X48747339Y-177479042D02*
X48747339Y-177336185D01*
X48747339Y-177336185D02*
X48818767Y-177193328D01*
X48818767Y-177193328D02*
X48961625Y-177121900D01*
X48961625Y-177121900D02*
X49318767Y-177121900D01*
X49318767Y-177121900D02*
X49461625Y-177050471D01*
X50104482Y-177621900D02*
X50247339Y-177693328D01*
X50247339Y-177693328D02*
X50533053Y-177693328D01*
X50533053Y-177693328D02*
X50675910Y-177621900D01*
X50675910Y-177621900D02*
X50747339Y-177479042D01*
X50747339Y-177479042D02*
X50747339Y-177407614D01*
X50747339Y-177407614D02*
X50675910Y-177264757D01*
X50675910Y-177264757D02*
X50533053Y-177193328D01*
X50533053Y-177193328D02*
X50318768Y-177193328D01*
X50318768Y-177193328D02*
X50175910Y-177121900D01*
X50175910Y-177121900D02*
X50104482Y-176979042D01*
X50104482Y-176979042D02*
X50104482Y-176907614D01*
X50104482Y-176907614D02*
X50175910Y-176764757D01*
X50175910Y-176764757D02*
X50318768Y-176693328D01*
X50318768Y-176693328D02*
X50533053Y-176693328D01*
X50533053Y-176693328D02*
X50675910Y-176764757D01*
X52533053Y-177693328D02*
X52533053Y-176193328D01*
X52533053Y-176193328D02*
X52890196Y-176193328D01*
X52890196Y-176193328D02*
X53104482Y-176264757D01*
X53104482Y-176264757D02*
X53247339Y-176407614D01*
X53247339Y-176407614D02*
X53318768Y-176550471D01*
X53318768Y-176550471D02*
X53390196Y-176836185D01*
X53390196Y-176836185D02*
X53390196Y-177050471D01*
X53390196Y-177050471D02*
X53318768Y-177336185D01*
X53318768Y-177336185D02*
X53247339Y-177479042D01*
X53247339Y-177479042D02*
X53104482Y-177621900D01*
X53104482Y-177621900D02*
X52890196Y-177693328D01*
X52890196Y-177693328D02*
X52533053Y-177693328D01*
X54247339Y-177693328D02*
X54104482Y-177621900D01*
X54104482Y-177621900D02*
X54033053Y-177550471D01*
X54033053Y-177550471D02*
X53961625Y-177407614D01*
X53961625Y-177407614D02*
X53961625Y-176979042D01*
X53961625Y-176979042D02*
X54033053Y-176836185D01*
X54033053Y-176836185D02*
X54104482Y-176764757D01*
X54104482Y-176764757D02*
X54247339Y-176693328D01*
X54247339Y-176693328D02*
X54461625Y-176693328D01*
X54461625Y-176693328D02*
X54604482Y-176764757D01*
X54604482Y-176764757D02*
X54675911Y-176836185D01*
X54675911Y-176836185D02*
X54747339Y-176979042D01*
X54747339Y-176979042D02*
X54747339Y-177407614D01*
X54747339Y-177407614D02*
X54675911Y-177550471D01*
X54675911Y-177550471D02*
X54604482Y-177621900D01*
X54604482Y-177621900D02*
X54461625Y-177693328D01*
X54461625Y-177693328D02*
X54247339Y-177693328D01*
X55390196Y-177693328D02*
X55390196Y-176693328D01*
X55390196Y-176836185D02*
X55461625Y-176764757D01*
X55461625Y-176764757D02*
X55604482Y-176693328D01*
X55604482Y-176693328D02*
X55818768Y-176693328D01*
X55818768Y-176693328D02*
X55961625Y-176764757D01*
X55961625Y-176764757D02*
X56033054Y-176907614D01*
X56033054Y-176907614D02*
X56033054Y-177693328D01*
X56033054Y-176907614D02*
X56104482Y-176764757D01*
X56104482Y-176764757D02*
X56247339Y-176693328D01*
X56247339Y-176693328D02*
X56461625Y-176693328D01*
X56461625Y-176693328D02*
X56604482Y-176764757D01*
X56604482Y-176764757D02*
X56675911Y-176907614D01*
X56675911Y-176907614D02*
X56675911Y-177693328D01*
X57390196Y-177693328D02*
X57390196Y-176693328D01*
X57533054Y-176121900D02*
X57318768Y-176336185D01*
X58104482Y-176693328D02*
X58104482Y-177693328D01*
X58104482Y-176836185D02*
X58175911Y-176764757D01*
X58175911Y-176764757D02*
X58318768Y-176693328D01*
X58318768Y-176693328D02*
X58533054Y-176693328D01*
X58533054Y-176693328D02*
X58675911Y-176764757D01*
X58675911Y-176764757D02*
X58747340Y-176907614D01*
X58747340Y-176907614D02*
X58747340Y-177693328D01*
X60104483Y-176693328D02*
X60104483Y-177907614D01*
X60104483Y-177907614D02*
X60033054Y-178050471D01*
X60033054Y-178050471D02*
X59961625Y-178121900D01*
X59961625Y-178121900D02*
X59818768Y-178193328D01*
X59818768Y-178193328D02*
X59604483Y-178193328D01*
X59604483Y-178193328D02*
X59461625Y-178121900D01*
X60104483Y-177621900D02*
X59961625Y-177693328D01*
X59961625Y-177693328D02*
X59675911Y-177693328D01*
X59675911Y-177693328D02*
X59533054Y-177621900D01*
X59533054Y-177621900D02*
X59461625Y-177550471D01*
X59461625Y-177550471D02*
X59390197Y-177407614D01*
X59390197Y-177407614D02*
X59390197Y-176979042D01*
X59390197Y-176979042D02*
X59461625Y-176836185D01*
X59461625Y-176836185D02*
X59533054Y-176764757D01*
X59533054Y-176764757D02*
X59675911Y-176693328D01*
X59675911Y-176693328D02*
X59961625Y-176693328D01*
X59961625Y-176693328D02*
X60104483Y-176764757D01*
X61461626Y-176693328D02*
X61461626Y-177693328D01*
X60818768Y-176693328D02*
X60818768Y-177479042D01*
X60818768Y-177479042D02*
X60890197Y-177621900D01*
X60890197Y-177621900D02*
X61033054Y-177693328D01*
X61033054Y-177693328D02*
X61247340Y-177693328D01*
X61247340Y-177693328D02*
X61390197Y-177621900D01*
X61390197Y-177621900D02*
X61461626Y-177550471D01*
X62747340Y-177621900D02*
X62604483Y-177693328D01*
X62604483Y-177693328D02*
X62318769Y-177693328D01*
X62318769Y-177693328D02*
X62175911Y-177621900D01*
X62175911Y-177621900D02*
X62104483Y-177479042D01*
X62104483Y-177479042D02*
X62104483Y-176907614D01*
X62104483Y-176907614D02*
X62175911Y-176764757D01*
X62175911Y-176764757D02*
X62318769Y-176693328D01*
X62318769Y-176693328D02*
X62604483Y-176693328D01*
X62604483Y-176693328D02*
X62747340Y-176764757D01*
X62747340Y-176764757D02*
X62818769Y-176907614D01*
X62818769Y-176907614D02*
X62818769Y-177050471D01*
X62818769Y-177050471D02*
X62104483Y-177193328D01*
X63318768Y-176693328D02*
X64104483Y-176693328D01*
X64104483Y-176693328D02*
X63318768Y-177693328D01*
X63318768Y-177693328D02*
X64104483Y-177693328D01*
X29461626Y-174693328D02*
X29461626Y-173193328D01*
X29461626Y-173907614D02*
X30318769Y-173907614D01*
X30318769Y-174693328D02*
X30318769Y-173193328D01*
X31247341Y-174693328D02*
X31104484Y-174621900D01*
X31104484Y-174621900D02*
X31033055Y-174550471D01*
X31033055Y-174550471D02*
X30961627Y-174407614D01*
X30961627Y-174407614D02*
X30961627Y-173979042D01*
X30961627Y-173979042D02*
X31033055Y-173836185D01*
X31033055Y-173836185D02*
X31104484Y-173764757D01*
X31104484Y-173764757D02*
X31247341Y-173693328D01*
X31247341Y-173693328D02*
X31461627Y-173693328D01*
X31461627Y-173693328D02*
X31604484Y-173764757D01*
X31604484Y-173764757D02*
X31675913Y-173836185D01*
X31675913Y-173836185D02*
X31747341Y-173979042D01*
X31747341Y-173979042D02*
X31747341Y-174407614D01*
X31747341Y-174407614D02*
X31675913Y-174550471D01*
X31675913Y-174550471D02*
X31604484Y-174621900D01*
X31604484Y-174621900D02*
X31461627Y-174693328D01*
X31461627Y-174693328D02*
X31247341Y-174693328D01*
X32390198Y-173693328D02*
X32390198Y-174979042D01*
X32390198Y-174979042D02*
X32318770Y-175121900D01*
X32318770Y-175121900D02*
X32175913Y-175193328D01*
X32175913Y-175193328D02*
X32104484Y-175193328D01*
X32390198Y-173193328D02*
X32318770Y-173264757D01*
X32318770Y-173264757D02*
X32390198Y-173336185D01*
X32390198Y-173336185D02*
X32461627Y-173264757D01*
X32461627Y-173264757D02*
X32390198Y-173193328D01*
X32390198Y-173193328D02*
X32390198Y-173336185D01*
X33747342Y-174693328D02*
X33747342Y-173907614D01*
X33747342Y-173907614D02*
X33675913Y-173764757D01*
X33675913Y-173764757D02*
X33533056Y-173693328D01*
X33533056Y-173693328D02*
X33247342Y-173693328D01*
X33247342Y-173693328D02*
X33104484Y-173764757D01*
X33747342Y-174621900D02*
X33604484Y-174693328D01*
X33604484Y-174693328D02*
X33247342Y-174693328D01*
X33247342Y-174693328D02*
X33104484Y-174621900D01*
X33104484Y-174621900D02*
X33033056Y-174479042D01*
X33033056Y-174479042D02*
X33033056Y-174336185D01*
X33033056Y-174336185D02*
X33104484Y-174193328D01*
X33104484Y-174193328D02*
X33247342Y-174121900D01*
X33247342Y-174121900D02*
X33604484Y-174121900D01*
X33604484Y-174121900D02*
X33747342Y-174050471D01*
X34461627Y-174550471D02*
X34533056Y-174621900D01*
X34533056Y-174621900D02*
X34461627Y-174693328D01*
X34461627Y-174693328D02*
X34390199Y-174621900D01*
X34390199Y-174621900D02*
X34461627Y-174550471D01*
X34461627Y-174550471D02*
X34461627Y-174693328D01*
X34461627Y-173764757D02*
X34533056Y-173836185D01*
X34533056Y-173836185D02*
X34461627Y-173907614D01*
X34461627Y-173907614D02*
X34390199Y-173836185D01*
X34390199Y-173836185D02*
X34461627Y-173764757D01*
X34461627Y-173764757D02*
X34461627Y-173907614D01*
X37104485Y-174693328D02*
X36247342Y-174693328D01*
X36675913Y-174693328D02*
X36675913Y-173193328D01*
X36675913Y-173193328D02*
X36533056Y-173407614D01*
X36533056Y-173407614D02*
X36390199Y-173550471D01*
X36390199Y-173550471D02*
X36247342Y-173621900D01*
X38818770Y-173121900D02*
X37533056Y-175050471D01*
X39175913Y-173193328D02*
X40104485Y-173193328D01*
X40104485Y-173193328D02*
X39604485Y-173764757D01*
X39604485Y-173764757D02*
X39818770Y-173764757D01*
X39818770Y-173764757D02*
X39961628Y-173836185D01*
X39961628Y-173836185D02*
X40033056Y-173907614D01*
X40033056Y-173907614D02*
X40104485Y-174050471D01*
X40104485Y-174050471D02*
X40104485Y-174407614D01*
X40104485Y-174407614D02*
X40033056Y-174550471D01*
X40033056Y-174550471D02*
X39961628Y-174621900D01*
X39961628Y-174621900D02*
X39818770Y-174693328D01*
X39818770Y-174693328D02*
X39390199Y-174693328D01*
X39390199Y-174693328D02*
X39247342Y-174621900D01*
X39247342Y-174621900D02*
X39175913Y-174550471D01*
X48005800Y-191507200D02*
X48005800Y-194507200D01*
X112005800Y-191507200D02*
X112005800Y-198007200D01*
D11*
X70795238Y-52570853D02*
X70795238Y-53785139D01*
X70795238Y-53785139D02*
X70714285Y-54027996D01*
X70714285Y-54027996D02*
X70552381Y-54189901D01*
X70552381Y-54189901D02*
X70309523Y-54270853D01*
X70309523Y-54270853D02*
X70147619Y-54270853D01*
X71523809Y-53785139D02*
X72333333Y-53785139D01*
X71361904Y-54270853D02*
X71928571Y-52570853D01*
X71928571Y-52570853D02*
X72495238Y-54270853D01*
X72819047Y-52570853D02*
X73385714Y-54270853D01*
X73385714Y-54270853D02*
X73952381Y-52570853D01*
X74519047Y-54270853D02*
X74519047Y-52570853D01*
X75328571Y-53380377D02*
X75895238Y-53380377D01*
X76138095Y-54270853D02*
X75328571Y-54270853D01*
X75328571Y-54270853D02*
X75328571Y-52570853D01*
X75328571Y-52570853D02*
X76138095Y-52570853D01*
X77838095Y-54270853D02*
X77271428Y-53461329D01*
X76866666Y-54270853D02*
X76866666Y-52570853D01*
X76866666Y-52570853D02*
X77514285Y-52570853D01*
X77514285Y-52570853D02*
X77676190Y-52651805D01*
X77676190Y-52651805D02*
X77757143Y-52732758D01*
X77757143Y-52732758D02*
X77838095Y-52894662D01*
X77838095Y-52894662D02*
X77838095Y-53137520D01*
X77838095Y-53137520D02*
X77757143Y-53299424D01*
X77757143Y-53299424D02*
X77676190Y-53380377D01*
X77676190Y-53380377D02*
X77514285Y-53461329D01*
X77514285Y-53461329D02*
X76866666Y-53461329D01*
X79619047Y-52570853D02*
X80185714Y-54270853D01*
X80185714Y-54270853D02*
X80752381Y-52570853D01*
X81238095Y-53785139D02*
X82047619Y-53785139D01*
X81076190Y-54270853D02*
X81642857Y-52570853D01*
X81642857Y-52570853D02*
X82209524Y-54270853D01*
X83747619Y-54270853D02*
X83180952Y-53461329D01*
X82776190Y-54270853D02*
X82776190Y-52570853D01*
X82776190Y-52570853D02*
X83423809Y-52570853D01*
X83423809Y-52570853D02*
X83585714Y-52651805D01*
X83585714Y-52651805D02*
X83666667Y-52732758D01*
X83666667Y-52732758D02*
X83747619Y-52894662D01*
X83747619Y-52894662D02*
X83747619Y-53137520D01*
X83747619Y-53137520D02*
X83666667Y-53299424D01*
X83666667Y-53299424D02*
X83585714Y-53380377D01*
X83585714Y-53380377D02*
X83423809Y-53461329D01*
X83423809Y-53461329D02*
X82776190Y-53461329D01*
X84395238Y-53785139D02*
X85204762Y-53785139D01*
X84233333Y-54270853D02*
X84800000Y-52570853D01*
X84800000Y-52570853D02*
X85366667Y-54270853D01*
X85852381Y-54189901D02*
X86095238Y-54270853D01*
X86095238Y-54270853D02*
X86500000Y-54270853D01*
X86500000Y-54270853D02*
X86661905Y-54189901D01*
X86661905Y-54189901D02*
X86742857Y-54108948D01*
X86742857Y-54108948D02*
X86823810Y-53947043D01*
X86823810Y-53947043D02*
X86823810Y-53785139D01*
X86823810Y-53785139D02*
X86742857Y-53623234D01*
X86742857Y-53623234D02*
X86661905Y-53542281D01*
X86661905Y-53542281D02*
X86500000Y-53461329D01*
X86500000Y-53461329D02*
X86176191Y-53380377D01*
X86176191Y-53380377D02*
X86014286Y-53299424D01*
X86014286Y-53299424D02*
X85933333Y-53218472D01*
X85933333Y-53218472D02*
X85852381Y-53056567D01*
X85852381Y-53056567D02*
X85852381Y-52894662D01*
X85852381Y-52894662D02*
X85933333Y-52732758D01*
X85933333Y-52732758D02*
X86014286Y-52651805D01*
X86014286Y-52651805D02*
X86176191Y-52570853D01*
X86176191Y-52570853D02*
X86580952Y-52570853D01*
X86580952Y-52570853D02*
X86823810Y-52651805D01*
X88847619Y-54270853D02*
X88847619Y-52570853D01*
X88847619Y-52570853D02*
X89252381Y-52570853D01*
X89252381Y-52570853D02*
X89495238Y-52651805D01*
X89495238Y-52651805D02*
X89657143Y-52813710D01*
X89657143Y-52813710D02*
X89738096Y-52975615D01*
X89738096Y-52975615D02*
X89819048Y-53299424D01*
X89819048Y-53299424D02*
X89819048Y-53542281D01*
X89819048Y-53542281D02*
X89738096Y-53866091D01*
X89738096Y-53866091D02*
X89657143Y-54027996D01*
X89657143Y-54027996D02*
X89495238Y-54189901D01*
X89495238Y-54189901D02*
X89252381Y-54270853D01*
X89252381Y-54270853D02*
X88847619Y-54270853D01*
X90871429Y-52570853D02*
X91195238Y-52570853D01*
X91195238Y-52570853D02*
X91357143Y-52651805D01*
X91357143Y-52651805D02*
X91519048Y-52813710D01*
X91519048Y-52813710D02*
X91600000Y-53137520D01*
X91600000Y-53137520D02*
X91600000Y-53704186D01*
X91600000Y-53704186D02*
X91519048Y-54027996D01*
X91519048Y-54027996D02*
X91357143Y-54189901D01*
X91357143Y-54189901D02*
X91195238Y-54270853D01*
X91195238Y-54270853D02*
X90871429Y-54270853D01*
X90871429Y-54270853D02*
X90709524Y-54189901D01*
X90709524Y-54189901D02*
X90547619Y-54027996D01*
X90547619Y-54027996D02*
X90466667Y-53704186D01*
X90466667Y-53704186D02*
X90466667Y-53137520D01*
X90466667Y-53137520D02*
X90547619Y-52813710D01*
X90547619Y-52813710D02*
X90709524Y-52651805D01*
X90709524Y-52651805D02*
X90871429Y-52570853D01*
X92328571Y-54270853D02*
X92328571Y-52570853D01*
X92328571Y-52570853D02*
X92895238Y-53785139D01*
X92895238Y-53785139D02*
X93461905Y-52570853D01*
X93461905Y-52570853D02*
X93461905Y-54270853D01*
X94271428Y-54270853D02*
X94271428Y-52570853D01*
X94433333Y-51923234D02*
X94190476Y-52166091D01*
X95080952Y-54270853D02*
X95080952Y-52570853D01*
X95080952Y-52570853D02*
X96052381Y-54270853D01*
X96052381Y-54270853D02*
X96052381Y-52570853D01*
X97752381Y-52651805D02*
X97590476Y-52570853D01*
X97590476Y-52570853D02*
X97347619Y-52570853D01*
X97347619Y-52570853D02*
X97104762Y-52651805D01*
X97104762Y-52651805D02*
X96942857Y-52813710D01*
X96942857Y-52813710D02*
X96861904Y-52975615D01*
X96861904Y-52975615D02*
X96780952Y-53299424D01*
X96780952Y-53299424D02*
X96780952Y-53542281D01*
X96780952Y-53542281D02*
X96861904Y-53866091D01*
X96861904Y-53866091D02*
X96942857Y-54027996D01*
X96942857Y-54027996D02*
X97104762Y-54189901D01*
X97104762Y-54189901D02*
X97347619Y-54270853D01*
X97347619Y-54270853D02*
X97509523Y-54270853D01*
X97509523Y-54270853D02*
X97752381Y-54189901D01*
X97752381Y-54189901D02*
X97833333Y-54108948D01*
X97833333Y-54108948D02*
X97833333Y-53542281D01*
X97833333Y-53542281D02*
X97509523Y-53542281D01*
X98561904Y-52570853D02*
X98561904Y-53947043D01*
X98561904Y-53947043D02*
X98642857Y-54108948D01*
X98642857Y-54108948D02*
X98723809Y-54189901D01*
X98723809Y-54189901D02*
X98885714Y-54270853D01*
X98885714Y-54270853D02*
X99209523Y-54270853D01*
X99209523Y-54270853D02*
X99371428Y-54189901D01*
X99371428Y-54189901D02*
X99452381Y-54108948D01*
X99452381Y-54108948D02*
X99533333Y-53947043D01*
X99533333Y-53947043D02*
X99533333Y-52570853D01*
X100342856Y-53380377D02*
X100909523Y-53380377D01*
X101152380Y-54270853D02*
X100342856Y-54270853D01*
X100342856Y-54270853D02*
X100342856Y-52570853D01*
X100342856Y-52570853D02*
X101152380Y-52570853D01*
X101719047Y-52570853D02*
X102852380Y-52570853D01*
X102852380Y-52570853D02*
X101719047Y-54270853D01*
X101719047Y-54270853D02*
X102852380Y-54270853D01*
X73499999Y-56535471D02*
X73428571Y-56606900D01*
X73428571Y-56606900D02*
X73214285Y-56678328D01*
X73214285Y-56678328D02*
X73071428Y-56678328D01*
X73071428Y-56678328D02*
X72857142Y-56606900D01*
X72857142Y-56606900D02*
X72714285Y-56464042D01*
X72714285Y-56464042D02*
X72642856Y-56321185D01*
X72642856Y-56321185D02*
X72571428Y-56035471D01*
X72571428Y-56035471D02*
X72571428Y-55821185D01*
X72571428Y-55821185D02*
X72642856Y-55535471D01*
X72642856Y-55535471D02*
X72714285Y-55392614D01*
X72714285Y-55392614D02*
X72857142Y-55249757D01*
X72857142Y-55249757D02*
X73071428Y-55178328D01*
X73071428Y-55178328D02*
X73214285Y-55178328D01*
X73214285Y-55178328D02*
X73428571Y-55249757D01*
X73428571Y-55249757D02*
X73499999Y-55321185D01*
X74428571Y-55178328D02*
X74714285Y-55178328D01*
X74714285Y-55178328D02*
X74857142Y-55249757D01*
X74857142Y-55249757D02*
X74999999Y-55392614D01*
X74999999Y-55392614D02*
X75071428Y-55678328D01*
X75071428Y-55678328D02*
X75071428Y-56178328D01*
X75071428Y-56178328D02*
X74999999Y-56464042D01*
X74999999Y-56464042D02*
X74857142Y-56606900D01*
X74857142Y-56606900D02*
X74714285Y-56678328D01*
X74714285Y-56678328D02*
X74428571Y-56678328D01*
X74428571Y-56678328D02*
X74285714Y-56606900D01*
X74285714Y-56606900D02*
X74142856Y-56464042D01*
X74142856Y-56464042D02*
X74071428Y-56178328D01*
X74071428Y-56178328D02*
X74071428Y-55678328D01*
X74071428Y-55678328D02*
X74142856Y-55392614D01*
X74142856Y-55392614D02*
X74285714Y-55249757D01*
X74285714Y-55249757D02*
X74428571Y-55178328D01*
X75714285Y-56678328D02*
X75714285Y-55178328D01*
X75714285Y-55178328D02*
X76571428Y-56678328D01*
X76571428Y-56678328D02*
X76571428Y-55178328D01*
X77071429Y-55178328D02*
X77571429Y-56678328D01*
X77571429Y-56678328D02*
X78071429Y-55178328D01*
X78571428Y-55892614D02*
X79071428Y-55892614D01*
X79285714Y-56678328D02*
X78571428Y-56678328D01*
X78571428Y-56678328D02*
X78571428Y-55178328D01*
X78571428Y-55178328D02*
X79285714Y-55178328D01*
X80785714Y-56678328D02*
X80285714Y-55964042D01*
X79928571Y-56678328D02*
X79928571Y-55178328D01*
X79928571Y-55178328D02*
X80500000Y-55178328D01*
X80500000Y-55178328D02*
X80642857Y-55249757D01*
X80642857Y-55249757D02*
X80714286Y-55321185D01*
X80714286Y-55321185D02*
X80785714Y-55464042D01*
X80785714Y-55464042D02*
X80785714Y-55678328D01*
X80785714Y-55678328D02*
X80714286Y-55821185D01*
X80714286Y-55821185D02*
X80642857Y-55892614D01*
X80642857Y-55892614D02*
X80500000Y-55964042D01*
X80500000Y-55964042D02*
X79928571Y-55964042D01*
X81214286Y-55178328D02*
X82071429Y-55178328D01*
X81642857Y-56678328D02*
X81642857Y-55178328D01*
X82571428Y-56678328D02*
X82571428Y-55178328D01*
X83285714Y-56678328D02*
X83285714Y-55178328D01*
X83285714Y-55178328D02*
X83642857Y-55178328D01*
X83642857Y-55178328D02*
X83857143Y-55249757D01*
X83857143Y-55249757D02*
X84000000Y-55392614D01*
X84000000Y-55392614D02*
X84071429Y-55535471D01*
X84071429Y-55535471D02*
X84142857Y-55821185D01*
X84142857Y-55821185D02*
X84142857Y-56035471D01*
X84142857Y-56035471D02*
X84071429Y-56321185D01*
X84071429Y-56321185D02*
X84000000Y-56464042D01*
X84000000Y-56464042D02*
X83857143Y-56606900D01*
X83857143Y-56606900D02*
X83642857Y-56678328D01*
X83642857Y-56678328D02*
X83285714Y-56678328D01*
X85071429Y-55178328D02*
X85357143Y-55178328D01*
X85357143Y-55178328D02*
X85500000Y-55249757D01*
X85500000Y-55249757D02*
X85642857Y-55392614D01*
X85642857Y-55392614D02*
X85714286Y-55678328D01*
X85714286Y-55678328D02*
X85714286Y-56178328D01*
X85714286Y-56178328D02*
X85642857Y-56464042D01*
X85642857Y-56464042D02*
X85500000Y-56606900D01*
X85500000Y-56606900D02*
X85357143Y-56678328D01*
X85357143Y-56678328D02*
X85071429Y-56678328D01*
X85071429Y-56678328D02*
X84928572Y-56606900D01*
X84928572Y-56606900D02*
X84785714Y-56464042D01*
X84785714Y-56464042D02*
X84714286Y-56178328D01*
X84714286Y-56178328D02*
X84714286Y-55678328D01*
X84714286Y-55678328D02*
X84785714Y-55392614D01*
X84785714Y-55392614D02*
X84928572Y-55249757D01*
X84928572Y-55249757D02*
X85071429Y-55178328D01*
X87214286Y-56678328D02*
X86714286Y-55964042D01*
X86357143Y-56678328D02*
X86357143Y-55178328D01*
X86357143Y-55178328D02*
X86928572Y-55178328D01*
X86928572Y-55178328D02*
X87071429Y-55249757D01*
X87071429Y-55249757D02*
X87142858Y-55321185D01*
X87142858Y-55321185D02*
X87214286Y-55464042D01*
X87214286Y-55464042D02*
X87214286Y-55678328D01*
X87214286Y-55678328D02*
X87142858Y-55821185D01*
X87142858Y-55821185D02*
X87071429Y-55892614D01*
X87071429Y-55892614D02*
X86928572Y-55964042D01*
X86928572Y-55964042D02*
X86357143Y-55964042D01*
X89500000Y-55892614D02*
X89714286Y-55964042D01*
X89714286Y-55964042D02*
X89785715Y-56035471D01*
X89785715Y-56035471D02*
X89857143Y-56178328D01*
X89857143Y-56178328D02*
X89857143Y-56392614D01*
X89857143Y-56392614D02*
X89785715Y-56535471D01*
X89785715Y-56535471D02*
X89714286Y-56606900D01*
X89714286Y-56606900D02*
X89571429Y-56678328D01*
X89571429Y-56678328D02*
X89000000Y-56678328D01*
X89000000Y-56678328D02*
X89000000Y-55178328D01*
X89000000Y-55178328D02*
X89500000Y-55178328D01*
X89500000Y-55178328D02*
X89642858Y-55249757D01*
X89642858Y-55249757D02*
X89714286Y-55321185D01*
X89714286Y-55321185D02*
X89785715Y-55464042D01*
X89785715Y-55464042D02*
X89785715Y-55606900D01*
X89785715Y-55606900D02*
X89714286Y-55749757D01*
X89714286Y-55749757D02*
X89642858Y-55821185D01*
X89642858Y-55821185D02*
X89500000Y-55892614D01*
X89500000Y-55892614D02*
X89000000Y-55892614D01*
X90785715Y-55178328D02*
X91071429Y-55178328D01*
X91071429Y-55178328D02*
X91214286Y-55249757D01*
X91214286Y-55249757D02*
X91357143Y-55392614D01*
X91357143Y-55392614D02*
X91428572Y-55678328D01*
X91428572Y-55678328D02*
X91428572Y-56178328D01*
X91428572Y-56178328D02*
X91357143Y-56464042D01*
X91357143Y-56464042D02*
X91214286Y-56606900D01*
X91214286Y-56606900D02*
X91071429Y-56678328D01*
X91071429Y-56678328D02*
X90785715Y-56678328D01*
X90785715Y-56678328D02*
X90642858Y-56606900D01*
X90642858Y-56606900D02*
X90500000Y-56464042D01*
X90500000Y-56464042D02*
X90428572Y-56178328D01*
X90428572Y-56178328D02*
X90428572Y-55678328D01*
X90428572Y-55678328D02*
X90500000Y-55392614D01*
X90500000Y-55392614D02*
X90642858Y-55249757D01*
X90642858Y-55249757D02*
X90785715Y-55178328D01*
X92357144Y-55178328D02*
X92642858Y-55178328D01*
X92642858Y-55178328D02*
X92785715Y-55249757D01*
X92785715Y-55249757D02*
X92928572Y-55392614D01*
X92928572Y-55392614D02*
X93000001Y-55678328D01*
X93000001Y-55678328D02*
X93000001Y-56178328D01*
X93000001Y-56178328D02*
X92928572Y-56464042D01*
X92928572Y-56464042D02*
X92785715Y-56606900D01*
X92785715Y-56606900D02*
X92642858Y-56678328D01*
X92642858Y-56678328D02*
X92357144Y-56678328D01*
X92357144Y-56678328D02*
X92214287Y-56606900D01*
X92214287Y-56606900D02*
X92071429Y-56464042D01*
X92071429Y-56464042D02*
X92000001Y-56178328D01*
X92000001Y-56178328D02*
X92000001Y-55678328D01*
X92000001Y-55678328D02*
X92071429Y-55392614D01*
X92071429Y-55392614D02*
X92214287Y-55249757D01*
X92214287Y-55249757D02*
X92357144Y-55178328D01*
X93571430Y-56606900D02*
X93785716Y-56678328D01*
X93785716Y-56678328D02*
X94142858Y-56678328D01*
X94142858Y-56678328D02*
X94285716Y-56606900D01*
X94285716Y-56606900D02*
X94357144Y-56535471D01*
X94357144Y-56535471D02*
X94428573Y-56392614D01*
X94428573Y-56392614D02*
X94428573Y-56249757D01*
X94428573Y-56249757D02*
X94357144Y-56106900D01*
X94357144Y-56106900D02*
X94285716Y-56035471D01*
X94285716Y-56035471D02*
X94142858Y-55964042D01*
X94142858Y-55964042D02*
X93857144Y-55892614D01*
X93857144Y-55892614D02*
X93714287Y-55821185D01*
X93714287Y-55821185D02*
X93642858Y-55749757D01*
X93642858Y-55749757D02*
X93571430Y-55606900D01*
X93571430Y-55606900D02*
X93571430Y-55464042D01*
X93571430Y-55464042D02*
X93642858Y-55321185D01*
X93642858Y-55321185D02*
X93714287Y-55249757D01*
X93714287Y-55249757D02*
X93857144Y-55178328D01*
X93857144Y-55178328D02*
X94214287Y-55178328D01*
X94214287Y-55178328D02*
X94428573Y-55249757D01*
X94857144Y-55178328D02*
X95714287Y-55178328D01*
X95285715Y-56678328D02*
X95285715Y-55178328D01*
X97214286Y-55678328D02*
X97571429Y-56678328D01*
X97571429Y-56678328D02*
X97928572Y-55678328D01*
X99285715Y-56678328D02*
X98428572Y-56678328D01*
X98857143Y-56678328D02*
X98857143Y-55178328D01*
X98857143Y-55178328D02*
X98714286Y-55392614D01*
X98714286Y-55392614D02*
X98571429Y-55535471D01*
X98571429Y-55535471D02*
X98428572Y-55606900D01*
X99928571Y-56535471D02*
X100000000Y-56606900D01*
X100000000Y-56606900D02*
X99928571Y-56678328D01*
X99928571Y-56678328D02*
X99857143Y-56606900D01*
X99857143Y-56606900D02*
X99928571Y-56535471D01*
X99928571Y-56535471D02*
X99928571Y-56678328D01*
X100928572Y-55178328D02*
X101071429Y-55178328D01*
X101071429Y-55178328D02*
X101214286Y-55249757D01*
X101214286Y-55249757D02*
X101285715Y-55321185D01*
X101285715Y-55321185D02*
X101357143Y-55464042D01*
X101357143Y-55464042D02*
X101428572Y-55749757D01*
X101428572Y-55749757D02*
X101428572Y-56106900D01*
X101428572Y-56106900D02*
X101357143Y-56392614D01*
X101357143Y-56392614D02*
X101285715Y-56535471D01*
X101285715Y-56535471D02*
X101214286Y-56606900D01*
X101214286Y-56606900D02*
X101071429Y-56678328D01*
X101071429Y-56678328D02*
X100928572Y-56678328D01*
X100928572Y-56678328D02*
X100785715Y-56606900D01*
X100785715Y-56606900D02*
X100714286Y-56535471D01*
X100714286Y-56535471D02*
X100642857Y-56392614D01*
X100642857Y-56392614D02*
X100571429Y-56106900D01*
X100571429Y-56106900D02*
X100571429Y-55749757D01*
X100571429Y-55749757D02*
X100642857Y-55464042D01*
X100642857Y-55464042D02*
X100714286Y-55321185D01*
X100714286Y-55321185D02*
X100785715Y-55249757D01*
X100785715Y-55249757D02*
X100928572Y-55178328D01*
D13*
X64357142Y-102606196D02*
X64357142Y-103820482D01*
X64357142Y-103820482D02*
X64428571Y-103963339D01*
X64428571Y-103963339D02*
X64500000Y-104034768D01*
X64500000Y-104034768D02*
X64642857Y-104106196D01*
X64642857Y-104106196D02*
X64928571Y-104106196D01*
X64928571Y-104106196D02*
X65071428Y-104034768D01*
X65071428Y-104034768D02*
X65142857Y-103963339D01*
X65142857Y-103963339D02*
X65214285Y-103820482D01*
X65214285Y-103820482D02*
X65214285Y-102606196D01*
X65928571Y-104106196D02*
X65928571Y-102606196D01*
X65928571Y-102606196D02*
X66785714Y-104106196D01*
X66785714Y-104106196D02*
X66785714Y-102606196D01*
X67500000Y-104106196D02*
X67500000Y-102606196D01*
X68000001Y-102606196D02*
X68500001Y-104106196D01*
X68500001Y-104106196D02*
X69000001Y-102606196D01*
X69500000Y-103320482D02*
X70000000Y-103320482D01*
X70214286Y-104106196D02*
X69500000Y-104106196D01*
X69500000Y-104106196D02*
X69500000Y-102606196D01*
X69500000Y-102606196D02*
X70214286Y-102606196D01*
X71714286Y-104106196D02*
X71214286Y-103391910D01*
X70857143Y-104106196D02*
X70857143Y-102606196D01*
X70857143Y-102606196D02*
X71428572Y-102606196D01*
X71428572Y-102606196D02*
X71571429Y-102677625D01*
X71571429Y-102677625D02*
X71642858Y-102749053D01*
X71642858Y-102749053D02*
X71714286Y-102891910D01*
X71714286Y-102891910D02*
X71714286Y-103106196D01*
X71714286Y-103106196D02*
X71642858Y-103249053D01*
X71642858Y-103249053D02*
X71571429Y-103320482D01*
X71571429Y-103320482D02*
X71428572Y-103391910D01*
X71428572Y-103391910D02*
X70857143Y-103391910D01*
X72357143Y-104106196D02*
X72357143Y-102606196D01*
X73071429Y-104106196D02*
X73071429Y-102606196D01*
X73071429Y-102606196D02*
X73428572Y-102606196D01*
X73428572Y-102606196D02*
X73642858Y-102677625D01*
X73642858Y-102677625D02*
X73785715Y-102820482D01*
X73785715Y-102820482D02*
X73857144Y-102963339D01*
X73857144Y-102963339D02*
X73928572Y-103249053D01*
X73928572Y-103249053D02*
X73928572Y-103463339D01*
X73928572Y-103463339D02*
X73857144Y-103749053D01*
X73857144Y-103749053D02*
X73785715Y-103891910D01*
X73785715Y-103891910D02*
X73642858Y-104034768D01*
X73642858Y-104034768D02*
X73428572Y-104106196D01*
X73428572Y-104106196D02*
X73071429Y-104106196D01*
X74500001Y-103677625D02*
X75214287Y-103677625D01*
X74357144Y-104106196D02*
X74857144Y-102606196D01*
X74857144Y-102606196D02*
X75357144Y-104106196D01*
X75857143Y-104106196D02*
X75857143Y-102606196D01*
X75857143Y-102606196D02*
X76214286Y-102606196D01*
X76214286Y-102606196D02*
X76428572Y-102677625D01*
X76428572Y-102677625D02*
X76571429Y-102820482D01*
X76571429Y-102820482D02*
X76642858Y-102963339D01*
X76642858Y-102963339D02*
X76714286Y-103249053D01*
X76714286Y-103249053D02*
X76714286Y-103463339D01*
X76714286Y-103463339D02*
X76642858Y-103749053D01*
X76642858Y-103749053D02*
X76571429Y-103891910D01*
X76571429Y-103891910D02*
X76428572Y-104034768D01*
X76428572Y-104034768D02*
X76214286Y-104106196D01*
X76214286Y-104106196D02*
X75857143Y-104106196D01*
X69428571Y-106521112D02*
X69428571Y-105021112D01*
X69428571Y-105021112D02*
X69785714Y-105021112D01*
X69785714Y-105021112D02*
X70000000Y-105092541D01*
X70000000Y-105092541D02*
X70142857Y-105235398D01*
X70142857Y-105235398D02*
X70214286Y-105378255D01*
X70214286Y-105378255D02*
X70285714Y-105663969D01*
X70285714Y-105663969D02*
X70285714Y-105878255D01*
X70285714Y-105878255D02*
X70214286Y-106163969D01*
X70214286Y-106163969D02*
X70142857Y-106306826D01*
X70142857Y-106306826D02*
X70000000Y-106449684D01*
X70000000Y-106449684D02*
X69785714Y-106521112D01*
X69785714Y-106521112D02*
X69428571Y-106521112D01*
X70928571Y-105735398D02*
X71428571Y-105735398D01*
X71642857Y-106521112D02*
X70928571Y-106521112D01*
X70928571Y-106521112D02*
X70928571Y-105021112D01*
X70928571Y-105021112D02*
X71642857Y-105021112D01*
X65821428Y-108793171D02*
X65750000Y-108864600D01*
X65750000Y-108864600D02*
X65535714Y-108936028D01*
X65535714Y-108936028D02*
X65392857Y-108936028D01*
X65392857Y-108936028D02*
X65178571Y-108864600D01*
X65178571Y-108864600D02*
X65035714Y-108721742D01*
X65035714Y-108721742D02*
X64964285Y-108578885D01*
X64964285Y-108578885D02*
X64892857Y-108293171D01*
X64892857Y-108293171D02*
X64892857Y-108078885D01*
X64892857Y-108078885D02*
X64964285Y-107793171D01*
X64964285Y-107793171D02*
X65035714Y-107650314D01*
X65035714Y-107650314D02*
X65178571Y-107507457D01*
X65178571Y-107507457D02*
X65392857Y-107436028D01*
X65392857Y-107436028D02*
X65535714Y-107436028D01*
X65535714Y-107436028D02*
X65750000Y-107507457D01*
X65750000Y-107507457D02*
X65821428Y-107578885D01*
X66392857Y-108507457D02*
X67107143Y-108507457D01*
X66250000Y-108936028D02*
X66750000Y-107436028D01*
X66750000Y-107436028D02*
X67250000Y-108936028D01*
X67749999Y-108936028D02*
X67749999Y-107436028D01*
X67749999Y-107436028D02*
X68607142Y-108936028D01*
X68607142Y-108936028D02*
X68607142Y-107436028D01*
X69107143Y-107436028D02*
X69964286Y-107436028D01*
X69535714Y-108936028D02*
X69535714Y-107436028D01*
X70392857Y-108507457D02*
X71107143Y-108507457D01*
X70250000Y-108936028D02*
X70750000Y-107436028D01*
X70750000Y-107436028D02*
X71250000Y-108936028D01*
X72249999Y-108150314D02*
X72464285Y-108221742D01*
X72464285Y-108221742D02*
X72535714Y-108293171D01*
X72535714Y-108293171D02*
X72607142Y-108436028D01*
X72607142Y-108436028D02*
X72607142Y-108650314D01*
X72607142Y-108650314D02*
X72535714Y-108793171D01*
X72535714Y-108793171D02*
X72464285Y-108864600D01*
X72464285Y-108864600D02*
X72321428Y-108936028D01*
X72321428Y-108936028D02*
X71749999Y-108936028D01*
X71749999Y-108936028D02*
X71749999Y-107436028D01*
X71749999Y-107436028D02*
X72249999Y-107436028D01*
X72249999Y-107436028D02*
X72392857Y-107507457D01*
X72392857Y-107507457D02*
X72464285Y-107578885D01*
X72464285Y-107578885D02*
X72535714Y-107721742D01*
X72535714Y-107721742D02*
X72535714Y-107864600D01*
X72535714Y-107864600D02*
X72464285Y-108007457D01*
X72464285Y-108007457D02*
X72392857Y-108078885D01*
X72392857Y-108078885D02*
X72249999Y-108150314D01*
X72249999Y-108150314D02*
X71749999Y-108150314D01*
X74107142Y-108936028D02*
X73607142Y-108221742D01*
X73249999Y-108936028D02*
X73249999Y-107436028D01*
X73249999Y-107436028D02*
X73821428Y-107436028D01*
X73821428Y-107436028D02*
X73964285Y-107507457D01*
X73964285Y-107507457D02*
X74035714Y-107578885D01*
X74035714Y-107578885D02*
X74107142Y-107721742D01*
X74107142Y-107721742D02*
X74107142Y-107936028D01*
X74107142Y-107936028D02*
X74035714Y-108078885D01*
X74035714Y-108078885D02*
X73964285Y-108150314D01*
X73964285Y-108150314D02*
X73821428Y-108221742D01*
X73821428Y-108221742D02*
X73249999Y-108221742D01*
X74749999Y-108936028D02*
X74749999Y-107436028D01*
X75392857Y-108507457D02*
X76107143Y-108507457D01*
X75250000Y-108936028D02*
X75750000Y-107436028D01*
X75750000Y-107436028D02*
X76250000Y-108936028D01*
D10*
X88324819Y-112566666D02*
X87848628Y-112899999D01*
X88324819Y-113138094D02*
X87324819Y-113138094D01*
X87324819Y-113138094D02*
X87324819Y-112757142D01*
X87324819Y-112757142D02*
X87372438Y-112661904D01*
X87372438Y-112661904D02*
X87420057Y-112614285D01*
X87420057Y-112614285D02*
X87515295Y-112566666D01*
X87515295Y-112566666D02*
X87658152Y-112566666D01*
X87658152Y-112566666D02*
X87753390Y-112614285D01*
X87753390Y-112614285D02*
X87801009Y-112661904D01*
X87801009Y-112661904D02*
X87848628Y-112757142D01*
X87848628Y-112757142D02*
X87848628Y-113138094D01*
X87324819Y-112233332D02*
X87324819Y-111614285D01*
X87324819Y-111614285D02*
X87705771Y-111947618D01*
X87705771Y-111947618D02*
X87705771Y-111804761D01*
X87705771Y-111804761D02*
X87753390Y-111709523D01*
X87753390Y-111709523D02*
X87801009Y-111661904D01*
X87801009Y-111661904D02*
X87896247Y-111614285D01*
X87896247Y-111614285D02*
X88134342Y-111614285D01*
X88134342Y-111614285D02*
X88229580Y-111661904D01*
X88229580Y-111661904D02*
X88277200Y-111709523D01*
X88277200Y-111709523D02*
X88324819Y-111804761D01*
X88324819Y-111804761D02*
X88324819Y-112090475D01*
X88324819Y-112090475D02*
X88277200Y-112185713D01*
X88277200Y-112185713D02*
X88229580Y-112233332D01*
X88359580Y-123966666D02*
X88407200Y-124014285D01*
X88407200Y-124014285D02*
X88454819Y-124157142D01*
X88454819Y-124157142D02*
X88454819Y-124252380D01*
X88454819Y-124252380D02*
X88407200Y-124395237D01*
X88407200Y-124395237D02*
X88311961Y-124490475D01*
X88311961Y-124490475D02*
X88216723Y-124538094D01*
X88216723Y-124538094D02*
X88026247Y-124585713D01*
X88026247Y-124585713D02*
X87883390Y-124585713D01*
X87883390Y-124585713D02*
X87692914Y-124538094D01*
X87692914Y-124538094D02*
X87597676Y-124490475D01*
X87597676Y-124490475D02*
X87502438Y-124395237D01*
X87502438Y-124395237D02*
X87454819Y-124252380D01*
X87454819Y-124252380D02*
X87454819Y-124157142D01*
X87454819Y-124157142D02*
X87502438Y-124014285D01*
X87502438Y-124014285D02*
X87550057Y-123966666D01*
X87454819Y-123061904D02*
X87454819Y-123538094D01*
X87454819Y-123538094D02*
X87931009Y-123585713D01*
X87931009Y-123585713D02*
X87883390Y-123538094D01*
X87883390Y-123538094D02*
X87835771Y-123442856D01*
X87835771Y-123442856D02*
X87835771Y-123204761D01*
X87835771Y-123204761D02*
X87883390Y-123109523D01*
X87883390Y-123109523D02*
X87931009Y-123061904D01*
X87931009Y-123061904D02*
X88026247Y-123014285D01*
X88026247Y-123014285D02*
X88264342Y-123014285D01*
X88264342Y-123014285D02*
X88359580Y-123061904D01*
X88359580Y-123061904D02*
X88407200Y-123109523D01*
X88407200Y-123109523D02*
X88454819Y-123204761D01*
X88454819Y-123204761D02*
X88454819Y-123442856D01*
X88454819Y-123442856D02*
X88407200Y-123538094D01*
X88407200Y-123538094D02*
X88359580Y-123585713D01*
X92738095Y-123094819D02*
X92738095Y-123904342D01*
X92738095Y-123904342D02*
X92785714Y-123999580D01*
X92785714Y-123999580D02*
X92833333Y-124047200D01*
X92833333Y-124047200D02*
X92928571Y-124094819D01*
X92928571Y-124094819D02*
X93119047Y-124094819D01*
X93119047Y-124094819D02*
X93214285Y-124047200D01*
X93214285Y-124047200D02*
X93261904Y-123999580D01*
X93261904Y-123999580D02*
X93309523Y-123904342D01*
X93309523Y-123904342D02*
X93309523Y-123094819D01*
X94309523Y-124094819D02*
X93738095Y-124094819D01*
X94023809Y-124094819D02*
X94023809Y-123094819D01*
X94023809Y-123094819D02*
X93928571Y-123237676D01*
X93928571Y-123237676D02*
X93833333Y-123332914D01*
X93833333Y-123332914D02*
X93738095Y-123380533D01*
X100084819Y-115156666D02*
X99608628Y-115489999D01*
X100084819Y-115728094D02*
X99084819Y-115728094D01*
X99084819Y-115728094D02*
X99084819Y-115347142D01*
X99084819Y-115347142D02*
X99132438Y-115251904D01*
X99132438Y-115251904D02*
X99180057Y-115204285D01*
X99180057Y-115204285D02*
X99275295Y-115156666D01*
X99275295Y-115156666D02*
X99418152Y-115156666D01*
X99418152Y-115156666D02*
X99513390Y-115204285D01*
X99513390Y-115204285D02*
X99561009Y-115251904D01*
X99561009Y-115251904D02*
X99608628Y-115347142D01*
X99608628Y-115347142D02*
X99608628Y-115728094D01*
X99418152Y-114299523D02*
X100084819Y-114299523D01*
X99037200Y-114537618D02*
X99751485Y-114775713D01*
X99751485Y-114775713D02*
X99751485Y-114156666D01*
X82959580Y-123216666D02*
X83007200Y-123264285D01*
X83007200Y-123264285D02*
X83054819Y-123407142D01*
X83054819Y-123407142D02*
X83054819Y-123502380D01*
X83054819Y-123502380D02*
X83007200Y-123645237D01*
X83007200Y-123645237D02*
X82911961Y-123740475D01*
X82911961Y-123740475D02*
X82816723Y-123788094D01*
X82816723Y-123788094D02*
X82626247Y-123835713D01*
X82626247Y-123835713D02*
X82483390Y-123835713D01*
X82483390Y-123835713D02*
X82292914Y-123788094D01*
X82292914Y-123788094D02*
X82197676Y-123740475D01*
X82197676Y-123740475D02*
X82102438Y-123645237D01*
X82102438Y-123645237D02*
X82054819Y-123502380D01*
X82054819Y-123502380D02*
X82054819Y-123407142D01*
X82054819Y-123407142D02*
X82102438Y-123264285D01*
X82102438Y-123264285D02*
X82150057Y-123216666D01*
X82054819Y-122359523D02*
X82054819Y-122549999D01*
X82054819Y-122549999D02*
X82102438Y-122645237D01*
X82102438Y-122645237D02*
X82150057Y-122692856D01*
X82150057Y-122692856D02*
X82292914Y-122788094D01*
X82292914Y-122788094D02*
X82483390Y-122835713D01*
X82483390Y-122835713D02*
X82864342Y-122835713D01*
X82864342Y-122835713D02*
X82959580Y-122788094D01*
X82959580Y-122788094D02*
X83007200Y-122740475D01*
X83007200Y-122740475D02*
X83054819Y-122645237D01*
X83054819Y-122645237D02*
X83054819Y-122454761D01*
X83054819Y-122454761D02*
X83007200Y-122359523D01*
X83007200Y-122359523D02*
X82959580Y-122311904D01*
X82959580Y-122311904D02*
X82864342Y-122264285D01*
X82864342Y-122264285D02*
X82626247Y-122264285D01*
X82626247Y-122264285D02*
X82531009Y-122311904D01*
X82531009Y-122311904D02*
X82483390Y-122359523D01*
X82483390Y-122359523D02*
X82435771Y-122454761D01*
X82435771Y-122454761D02*
X82435771Y-122645237D01*
X82435771Y-122645237D02*
X82483390Y-122740475D01*
X82483390Y-122740475D02*
X82531009Y-122788094D01*
X82531009Y-122788094D02*
X82626247Y-122835713D01*
X61290714Y-63274819D02*
X61290714Y-63989104D01*
X61290714Y-63989104D02*
X61243095Y-64131961D01*
X61243095Y-64131961D02*
X61147857Y-64227200D01*
X61147857Y-64227200D02*
X61005000Y-64274819D01*
X61005000Y-64274819D02*
X60909762Y-64274819D01*
X61671667Y-63608152D02*
X61909762Y-64274819D01*
X61909762Y-64274819D02*
X62147857Y-63608152D01*
X63052619Y-64274819D02*
X62481191Y-64274819D01*
X62766905Y-64274819D02*
X62766905Y-63274819D01*
X62766905Y-63274819D02*
X62671667Y-63417676D01*
X62671667Y-63417676D02*
X62576429Y-63512914D01*
X62576429Y-63512914D02*
X62481191Y-63560533D01*
X61533333Y-79659580D02*
X61485714Y-79707200D01*
X61485714Y-79707200D02*
X61342857Y-79754819D01*
X61342857Y-79754819D02*
X61247619Y-79754819D01*
X61247619Y-79754819D02*
X61104762Y-79707200D01*
X61104762Y-79707200D02*
X61009524Y-79611961D01*
X61009524Y-79611961D02*
X60961905Y-79516723D01*
X60961905Y-79516723D02*
X60914286Y-79326247D01*
X60914286Y-79326247D02*
X60914286Y-79183390D01*
X60914286Y-79183390D02*
X60961905Y-78992914D01*
X60961905Y-78992914D02*
X61009524Y-78897676D01*
X61009524Y-78897676D02*
X61104762Y-78802438D01*
X61104762Y-78802438D02*
X61247619Y-78754819D01*
X61247619Y-78754819D02*
X61342857Y-78754819D01*
X61342857Y-78754819D02*
X61485714Y-78802438D01*
X61485714Y-78802438D02*
X61533333Y-78850057D01*
X62390476Y-79088152D02*
X62390476Y-79754819D01*
X62152381Y-78707200D02*
X61914286Y-79421485D01*
X61914286Y-79421485D02*
X62533333Y-79421485D01*
X81026666Y-59404819D02*
X81026666Y-60119104D01*
X81026666Y-60119104D02*
X80979047Y-60261961D01*
X80979047Y-60261961D02*
X80883809Y-60357200D01*
X80883809Y-60357200D02*
X80740952Y-60404819D01*
X80740952Y-60404819D02*
X80645714Y-60404819D01*
X81455238Y-59500057D02*
X81502857Y-59452438D01*
X81502857Y-59452438D02*
X81598095Y-59404819D01*
X81598095Y-59404819D02*
X81836190Y-59404819D01*
X81836190Y-59404819D02*
X81931428Y-59452438D01*
X81931428Y-59452438D02*
X81979047Y-59500057D01*
X81979047Y-59500057D02*
X82026666Y-59595295D01*
X82026666Y-59595295D02*
X82026666Y-59690533D01*
X82026666Y-59690533D02*
X81979047Y-59833390D01*
X81979047Y-59833390D02*
X81407619Y-60404819D01*
X81407619Y-60404819D02*
X82026666Y-60404819D01*
X54164761Y-93850057D02*
X54069523Y-93802438D01*
X54069523Y-93802438D02*
X53974285Y-93707200D01*
X53974285Y-93707200D02*
X53831428Y-93564342D01*
X53831428Y-93564342D02*
X53736190Y-93516723D01*
X53736190Y-93516723D02*
X53640952Y-93516723D01*
X53688571Y-93754819D02*
X53593333Y-93707200D01*
X53593333Y-93707200D02*
X53498095Y-93611961D01*
X53498095Y-93611961D02*
X53450476Y-93421485D01*
X53450476Y-93421485D02*
X53450476Y-93088152D01*
X53450476Y-93088152D02*
X53498095Y-92897676D01*
X53498095Y-92897676D02*
X53593333Y-92802438D01*
X53593333Y-92802438D02*
X53688571Y-92754819D01*
X53688571Y-92754819D02*
X53879047Y-92754819D01*
X53879047Y-92754819D02*
X53974285Y-92802438D01*
X53974285Y-92802438D02*
X54069523Y-92897676D01*
X54069523Y-92897676D02*
X54117142Y-93088152D01*
X54117142Y-93088152D02*
X54117142Y-93421485D01*
X54117142Y-93421485D02*
X54069523Y-93611961D01*
X54069523Y-93611961D02*
X53974285Y-93707200D01*
X53974285Y-93707200D02*
X53879047Y-93754819D01*
X53879047Y-93754819D02*
X53688571Y-93754819D01*
X54498095Y-92850057D02*
X54545714Y-92802438D01*
X54545714Y-92802438D02*
X54640952Y-92754819D01*
X54640952Y-92754819D02*
X54879047Y-92754819D01*
X54879047Y-92754819D02*
X54974285Y-92802438D01*
X54974285Y-92802438D02*
X55021904Y-92850057D01*
X55021904Y-92850057D02*
X55069523Y-92945295D01*
X55069523Y-92945295D02*
X55069523Y-93040533D01*
X55069523Y-93040533D02*
X55021904Y-93183390D01*
X55021904Y-93183390D02*
X54450476Y-93754819D01*
X54450476Y-93754819D02*
X55069523Y-93754819D01*
X48404819Y-100966666D02*
X48404819Y-101442856D01*
X48404819Y-101442856D02*
X47404819Y-101442856D01*
X48404819Y-100109523D02*
X48404819Y-100680951D01*
X48404819Y-100395237D02*
X47404819Y-100395237D01*
X47404819Y-100395237D02*
X47547676Y-100490475D01*
X47547676Y-100490475D02*
X47642914Y-100585713D01*
X47642914Y-100585713D02*
X47690533Y-100680951D01*
X58033333Y-73074819D02*
X57700000Y-72598628D01*
X57461905Y-73074819D02*
X57461905Y-72074819D01*
X57461905Y-72074819D02*
X57842857Y-72074819D01*
X57842857Y-72074819D02*
X57938095Y-72122438D01*
X57938095Y-72122438D02*
X57985714Y-72170057D01*
X57985714Y-72170057D02*
X58033333Y-72265295D01*
X58033333Y-72265295D02*
X58033333Y-72408152D01*
X58033333Y-72408152D02*
X57985714Y-72503390D01*
X57985714Y-72503390D02*
X57938095Y-72551009D01*
X57938095Y-72551009D02*
X57842857Y-72598628D01*
X57842857Y-72598628D02*
X57461905Y-72598628D01*
X58985714Y-73074819D02*
X58414286Y-73074819D01*
X58700000Y-73074819D02*
X58700000Y-72074819D01*
X58700000Y-72074819D02*
X58604762Y-72217676D01*
X58604762Y-72217676D02*
X58509524Y-72312914D01*
X58509524Y-72312914D02*
X58414286Y-72360533D01*
X106666666Y-59404819D02*
X106666666Y-60119104D01*
X106666666Y-60119104D02*
X106619047Y-60261961D01*
X106619047Y-60261961D02*
X106523809Y-60357200D01*
X106523809Y-60357200D02*
X106380952Y-60404819D01*
X106380952Y-60404819D02*
X106285714Y-60404819D01*
X107047619Y-59404819D02*
X107666666Y-59404819D01*
X107666666Y-59404819D02*
X107333333Y-59785771D01*
X107333333Y-59785771D02*
X107476190Y-59785771D01*
X107476190Y-59785771D02*
X107571428Y-59833390D01*
X107571428Y-59833390D02*
X107619047Y-59881009D01*
X107619047Y-59881009D02*
X107666666Y-59976247D01*
X107666666Y-59976247D02*
X107666666Y-60214342D01*
X107666666Y-60214342D02*
X107619047Y-60309580D01*
X107619047Y-60309580D02*
X107571428Y-60357200D01*
X107571428Y-60357200D02*
X107476190Y-60404819D01*
X107476190Y-60404819D02*
X107190476Y-60404819D01*
X107190476Y-60404819D02*
X107095238Y-60357200D01*
X107095238Y-60357200D02*
X107047619Y-60309580D01*
X61485714Y-116454819D02*
X61485714Y-117169104D01*
X61485714Y-117169104D02*
X61438095Y-117311961D01*
X61438095Y-117311961D02*
X61342857Y-117407200D01*
X61342857Y-117407200D02*
X61200000Y-117454819D01*
X61200000Y-117454819D02*
X61104762Y-117454819D01*
X61866667Y-116788152D02*
X62104762Y-117454819D01*
X62104762Y-117454819D02*
X62342857Y-116788152D01*
X62676191Y-116550057D02*
X62723810Y-116502438D01*
X62723810Y-116502438D02*
X62819048Y-116454819D01*
X62819048Y-116454819D02*
X63057143Y-116454819D01*
X63057143Y-116454819D02*
X63152381Y-116502438D01*
X63152381Y-116502438D02*
X63200000Y-116550057D01*
X63200000Y-116550057D02*
X63247619Y-116645295D01*
X63247619Y-116645295D02*
X63247619Y-116740533D01*
X63247619Y-116740533D02*
X63200000Y-116883390D01*
X63200000Y-116883390D02*
X62628572Y-117454819D01*
X62628572Y-117454819D02*
X63247619Y-117454819D01*
X68823333Y-87284819D02*
X68490000Y-86808628D01*
X68251905Y-87284819D02*
X68251905Y-86284819D01*
X68251905Y-86284819D02*
X68632857Y-86284819D01*
X68632857Y-86284819D02*
X68728095Y-86332438D01*
X68728095Y-86332438D02*
X68775714Y-86380057D01*
X68775714Y-86380057D02*
X68823333Y-86475295D01*
X68823333Y-86475295D02*
X68823333Y-86618152D01*
X68823333Y-86618152D02*
X68775714Y-86713390D01*
X68775714Y-86713390D02*
X68728095Y-86761009D01*
X68728095Y-86761009D02*
X68632857Y-86808628D01*
X68632857Y-86808628D02*
X68251905Y-86808628D01*
X69204286Y-86380057D02*
X69251905Y-86332438D01*
X69251905Y-86332438D02*
X69347143Y-86284819D01*
X69347143Y-86284819D02*
X69585238Y-86284819D01*
X69585238Y-86284819D02*
X69680476Y-86332438D01*
X69680476Y-86332438D02*
X69728095Y-86380057D01*
X69728095Y-86380057D02*
X69775714Y-86475295D01*
X69775714Y-86475295D02*
X69775714Y-86570533D01*
X69775714Y-86570533D02*
X69728095Y-86713390D01*
X69728095Y-86713390D02*
X69156667Y-87284819D01*
X69156667Y-87284819D02*
X69775714Y-87284819D01*
X72630682Y-71809580D02*
X72583063Y-71857200D01*
X72583063Y-71857200D02*
X72440206Y-71904819D01*
X72440206Y-71904819D02*
X72344968Y-71904819D01*
X72344968Y-71904819D02*
X72202111Y-71857200D01*
X72202111Y-71857200D02*
X72106873Y-71761961D01*
X72106873Y-71761961D02*
X72059254Y-71666723D01*
X72059254Y-71666723D02*
X72011635Y-71476247D01*
X72011635Y-71476247D02*
X72011635Y-71333390D01*
X72011635Y-71333390D02*
X72059254Y-71142914D01*
X72059254Y-71142914D02*
X72106873Y-71047676D01*
X72106873Y-71047676D02*
X72202111Y-70952438D01*
X72202111Y-70952438D02*
X72344968Y-70904819D01*
X72344968Y-70904819D02*
X72440206Y-70904819D01*
X72440206Y-70904819D02*
X72583063Y-70952438D01*
X72583063Y-70952438D02*
X72630682Y-71000057D01*
X72964016Y-70904819D02*
X73583063Y-70904819D01*
X73583063Y-70904819D02*
X73249730Y-71285771D01*
X73249730Y-71285771D02*
X73392587Y-71285771D01*
X73392587Y-71285771D02*
X73487825Y-71333390D01*
X73487825Y-71333390D02*
X73535444Y-71381009D01*
X73535444Y-71381009D02*
X73583063Y-71476247D01*
X73583063Y-71476247D02*
X73583063Y-71714342D01*
X73583063Y-71714342D02*
X73535444Y-71809580D01*
X73535444Y-71809580D02*
X73487825Y-71857200D01*
X73487825Y-71857200D02*
X73392587Y-71904819D01*
X73392587Y-71904819D02*
X73106873Y-71904819D01*
X73106873Y-71904819D02*
X73011635Y-71857200D01*
X73011635Y-71857200D02*
X72964016Y-71809580D01*
X62433333Y-110459580D02*
X62385714Y-110507200D01*
X62385714Y-110507200D02*
X62242857Y-110554819D01*
X62242857Y-110554819D02*
X62147619Y-110554819D01*
X62147619Y-110554819D02*
X62004762Y-110507200D01*
X62004762Y-110507200D02*
X61909524Y-110411961D01*
X61909524Y-110411961D02*
X61861905Y-110316723D01*
X61861905Y-110316723D02*
X61814286Y-110126247D01*
X61814286Y-110126247D02*
X61814286Y-109983390D01*
X61814286Y-109983390D02*
X61861905Y-109792914D01*
X61861905Y-109792914D02*
X61909524Y-109697676D01*
X61909524Y-109697676D02*
X62004762Y-109602438D01*
X62004762Y-109602438D02*
X62147619Y-109554819D01*
X62147619Y-109554819D02*
X62242857Y-109554819D01*
X62242857Y-109554819D02*
X62385714Y-109602438D01*
X62385714Y-109602438D02*
X62433333Y-109650057D01*
X62814286Y-109650057D02*
X62861905Y-109602438D01*
X62861905Y-109602438D02*
X62957143Y-109554819D01*
X62957143Y-109554819D02*
X63195238Y-109554819D01*
X63195238Y-109554819D02*
X63290476Y-109602438D01*
X63290476Y-109602438D02*
X63338095Y-109650057D01*
X63338095Y-109650057D02*
X63385714Y-109745295D01*
X63385714Y-109745295D02*
X63385714Y-109840533D01*
X63385714Y-109840533D02*
X63338095Y-109983390D01*
X63338095Y-109983390D02*
X62766667Y-110554819D01*
X62766667Y-110554819D02*
X63385714Y-110554819D01*
X52083333Y-118209580D02*
X52035714Y-118257200D01*
X52035714Y-118257200D02*
X51892857Y-118304819D01*
X51892857Y-118304819D02*
X51797619Y-118304819D01*
X51797619Y-118304819D02*
X51654762Y-118257200D01*
X51654762Y-118257200D02*
X51559524Y-118161961D01*
X51559524Y-118161961D02*
X51511905Y-118066723D01*
X51511905Y-118066723D02*
X51464286Y-117876247D01*
X51464286Y-117876247D02*
X51464286Y-117733390D01*
X51464286Y-117733390D02*
X51511905Y-117542914D01*
X51511905Y-117542914D02*
X51559524Y-117447676D01*
X51559524Y-117447676D02*
X51654762Y-117352438D01*
X51654762Y-117352438D02*
X51797619Y-117304819D01*
X51797619Y-117304819D02*
X51892857Y-117304819D01*
X51892857Y-117304819D02*
X52035714Y-117352438D01*
X52035714Y-117352438D02*
X52083333Y-117400057D01*
X53035714Y-118304819D02*
X52464286Y-118304819D01*
X52750000Y-118304819D02*
X52750000Y-117304819D01*
X52750000Y-117304819D02*
X52654762Y-117447676D01*
X52654762Y-117447676D02*
X52559524Y-117542914D01*
X52559524Y-117542914D02*
X52464286Y-117590533D01*
X58661905Y-85424819D02*
X58661905Y-84424819D01*
X58661905Y-84424819D02*
X58900000Y-84424819D01*
X58900000Y-84424819D02*
X59042857Y-84472438D01*
X59042857Y-84472438D02*
X59138095Y-84567676D01*
X59138095Y-84567676D02*
X59185714Y-84662914D01*
X59185714Y-84662914D02*
X59233333Y-84853390D01*
X59233333Y-84853390D02*
X59233333Y-84996247D01*
X59233333Y-84996247D02*
X59185714Y-85186723D01*
X59185714Y-85186723D02*
X59138095Y-85281961D01*
X59138095Y-85281961D02*
X59042857Y-85377200D01*
X59042857Y-85377200D02*
X58900000Y-85424819D01*
X58900000Y-85424819D02*
X58661905Y-85424819D01*
X60185714Y-85424819D02*
X59614286Y-85424819D01*
X59900000Y-85424819D02*
X59900000Y-84424819D01*
X59900000Y-84424819D02*
X59804762Y-84567676D01*
X59804762Y-84567676D02*
X59709524Y-84662914D01*
X59709524Y-84662914D02*
X59614286Y-84710533D01*
X64218095Y-85054819D02*
X64218095Y-84054819D01*
X64789523Y-85054819D02*
X64360952Y-84483390D01*
X64789523Y-84054819D02*
X64218095Y-84626247D01*
D14*
%TO.C,REF\u002A\u002A*%
X77987528Y-113734619D02*
X77998908Y-113753693D01*
X78024488Y-113797421D01*
X78063002Y-113863619D01*
X78113186Y-113950102D01*
X78173775Y-114054685D01*
X78243503Y-114175183D01*
X78321107Y-114309412D01*
X78405320Y-114455187D01*
X78494879Y-114610323D01*
X78586998Y-114770000D01*
X78681076Y-114933117D01*
X78771402Y-115089709D01*
X78856665Y-115237506D01*
X78935557Y-115374240D01*
X79006769Y-115497642D01*
X79068991Y-115605444D01*
X79120913Y-115695377D01*
X79161228Y-115765173D01*
X79188624Y-115812564D01*
X79201507Y-115834786D01*
X79222507Y-115872330D01*
X79233925Y-115895831D01*
X79234551Y-115899920D01*
X79220636Y-115892242D01*
X79181941Y-115870203D01*
X79120487Y-115834971D01*
X79038298Y-115787711D01*
X78937396Y-115729589D01*
X78819805Y-115661771D01*
X78687546Y-115585424D01*
X78542642Y-115501714D01*
X78387117Y-115411806D01*
X78222992Y-115316867D01*
X78160549Y-115280732D01*
X77993487Y-115184083D01*
X77834074Y-115091938D01*
X77684355Y-115005475D01*
X77546376Y-114925871D01*
X77422185Y-114854305D01*
X77313827Y-114791955D01*
X77223348Y-114739998D01*
X77152796Y-114699613D01*
X77104215Y-114671978D01*
X77079654Y-114658272D01*
X77077085Y-114656974D01*
X77084569Y-114645220D01*
X77110614Y-114613795D01*
X77152559Y-114565594D01*
X77207746Y-114503510D01*
X77273517Y-114430439D01*
X77347212Y-114349276D01*
X77426173Y-114262916D01*
X77507740Y-114174253D01*
X77589254Y-114086182D01*
X77668057Y-114001599D01*
X77741490Y-113923397D01*
X77806893Y-113854472D01*
X77861608Y-113797719D01*
X77902977Y-113756032D01*
X77917164Y-113742363D01*
X77964180Y-113698201D01*
X77987528Y-113734619D01*
G36*
X77987528Y-113734619D02*
G01*
X77998908Y-113753693D01*
X78024488Y-113797421D01*
X78063002Y-113863619D01*
X78113186Y-113950102D01*
X78173775Y-114054685D01*
X78243503Y-114175183D01*
X78321107Y-114309412D01*
X78405320Y-114455187D01*
X78494879Y-114610323D01*
X78586998Y-114770000D01*
X78681076Y-114933117D01*
X78771402Y-115089709D01*
X78856665Y-115237506D01*
X78935557Y-115374240D01*
X79006769Y-115497642D01*
X79068991Y-115605444D01*
X79120913Y-115695377D01*
X79161228Y-115765173D01*
X79188624Y-115812564D01*
X79201507Y-115834786D01*
X79222507Y-115872330D01*
X79233925Y-115895831D01*
X79234551Y-115899920D01*
X79220636Y-115892242D01*
X79181941Y-115870203D01*
X79120487Y-115834971D01*
X79038298Y-115787711D01*
X78937396Y-115729589D01*
X78819805Y-115661771D01*
X78687546Y-115585424D01*
X78542642Y-115501714D01*
X78387117Y-115411806D01*
X78222992Y-115316867D01*
X78160549Y-115280732D01*
X77993487Y-115184083D01*
X77834074Y-115091938D01*
X77684355Y-115005475D01*
X77546376Y-114925871D01*
X77422185Y-114854305D01*
X77313827Y-114791955D01*
X77223348Y-114739998D01*
X77152796Y-114699613D01*
X77104215Y-114671978D01*
X77079654Y-114658272D01*
X77077085Y-114656974D01*
X77084569Y-114645220D01*
X77110614Y-114613795D01*
X77152559Y-114565594D01*
X77207746Y-114503510D01*
X77273517Y-114430439D01*
X77347212Y-114349276D01*
X77426173Y-114262916D01*
X77507740Y-114174253D01*
X77589254Y-114086182D01*
X77668057Y-114001599D01*
X77741490Y-113923397D01*
X77806893Y-113854472D01*
X77861608Y-113797719D01*
X77902977Y-113756032D01*
X77917164Y-113742363D01*
X77964180Y-113698201D01*
X77987528Y-113734619D01*
G37*
X76164043Y-110585835D02*
X76187065Y-110623245D01*
X76222534Y-110682514D01*
X76268996Y-110761118D01*
X76324996Y-110856538D01*
X76389081Y-110966250D01*
X76459796Y-111087734D01*
X76535687Y-111218468D01*
X76615299Y-111355930D01*
X76697178Y-111497598D01*
X76779870Y-111640951D01*
X76861921Y-111783467D01*
X76941876Y-111922624D01*
X77018281Y-112055901D01*
X77089682Y-112180776D01*
X77154624Y-112294727D01*
X77211653Y-112395233D01*
X77259315Y-112479772D01*
X77296155Y-112545822D01*
X77320720Y-112590862D01*
X77331554Y-112612370D01*
X77331951Y-112613714D01*
X77318501Y-112631965D01*
X77281114Y-112659882D01*
X77224235Y-112694725D01*
X77152312Y-112733754D01*
X77077015Y-112770843D01*
X76974560Y-112815817D01*
X76866817Y-112856226D01*
X76750073Y-112892969D01*
X76620618Y-112926942D01*
X76474740Y-112959044D01*
X76308726Y-112990173D01*
X76118866Y-113021227D01*
X75922469Y-113050145D01*
X75751834Y-113075800D01*
X75608545Y-113101198D01*
X75489008Y-113127602D01*
X75389630Y-113156273D01*
X75306818Y-113188473D01*
X75236978Y-113225465D01*
X75176518Y-113268512D01*
X75121845Y-113318875D01*
X75104214Y-113337583D01*
X75066000Y-113381139D01*
X75037732Y-113416682D01*
X75024618Y-113437583D01*
X75024268Y-113439297D01*
X75019680Y-113449806D01*
X75003758Y-113449924D01*
X74973266Y-113438254D01*
X74924968Y-113413396D01*
X74855627Y-113373952D01*
X74807439Y-113345587D01*
X74735583Y-113301247D01*
X74679742Y-113263279D01*
X74643667Y-113234416D01*
X74631113Y-113217388D01*
X74631121Y-113217264D01*
X74638906Y-113201037D01*
X74660892Y-113160400D01*
X74695803Y-113097567D01*
X74742363Y-113014752D01*
X74799295Y-112914172D01*
X74865323Y-112798040D01*
X74939172Y-112668571D01*
X75019564Y-112527980D01*
X75105224Y-112378482D01*
X75194876Y-112222292D01*
X75287243Y-112061624D01*
X75381049Y-111898693D01*
X75475018Y-111735713D01*
X75567874Y-111574900D01*
X75658340Y-111418468D01*
X75745141Y-111268633D01*
X75827000Y-111127608D01*
X75902641Y-110997609D01*
X75970787Y-110880849D01*
X76030163Y-110779545D01*
X76079493Y-110695911D01*
X76117500Y-110632162D01*
X76142907Y-110590511D01*
X76154440Y-110573175D01*
X76154923Y-110572805D01*
X76164043Y-110585835D01*
G36*
X76164043Y-110585835D02*
G01*
X76187065Y-110623245D01*
X76222534Y-110682514D01*
X76268996Y-110761118D01*
X76324996Y-110856538D01*
X76389081Y-110966250D01*
X76459796Y-111087734D01*
X76535687Y-111218468D01*
X76615299Y-111355930D01*
X76697178Y-111497598D01*
X76779870Y-111640951D01*
X76861921Y-111783467D01*
X76941876Y-111922624D01*
X77018281Y-112055901D01*
X77089682Y-112180776D01*
X77154624Y-112294727D01*
X77211653Y-112395233D01*
X77259315Y-112479772D01*
X77296155Y-112545822D01*
X77320720Y-112590862D01*
X77331554Y-112612370D01*
X77331951Y-112613714D01*
X77318501Y-112631965D01*
X77281114Y-112659882D01*
X77224235Y-112694725D01*
X77152312Y-112733754D01*
X77077015Y-112770843D01*
X76974560Y-112815817D01*
X76866817Y-112856226D01*
X76750073Y-112892969D01*
X76620618Y-112926942D01*
X76474740Y-112959044D01*
X76308726Y-112990173D01*
X76118866Y-113021227D01*
X75922469Y-113050145D01*
X75751834Y-113075800D01*
X75608545Y-113101198D01*
X75489008Y-113127602D01*
X75389630Y-113156273D01*
X75306818Y-113188473D01*
X75236978Y-113225465D01*
X75176518Y-113268512D01*
X75121845Y-113318875D01*
X75104214Y-113337583D01*
X75066000Y-113381139D01*
X75037732Y-113416682D01*
X75024618Y-113437583D01*
X75024268Y-113439297D01*
X75019680Y-113449806D01*
X75003758Y-113449924D01*
X74973266Y-113438254D01*
X74924968Y-113413396D01*
X74855627Y-113373952D01*
X74807439Y-113345587D01*
X74735583Y-113301247D01*
X74679742Y-113263279D01*
X74643667Y-113234416D01*
X74631113Y-113217388D01*
X74631121Y-113217264D01*
X74638906Y-113201037D01*
X74660892Y-113160400D01*
X74695803Y-113097567D01*
X74742363Y-113014752D01*
X74799295Y-112914172D01*
X74865323Y-112798040D01*
X74939172Y-112668571D01*
X75019564Y-112527980D01*
X75105224Y-112378482D01*
X75194876Y-112222292D01*
X75287243Y-112061624D01*
X75381049Y-111898693D01*
X75475018Y-111735713D01*
X75567874Y-111574900D01*
X75658340Y-111418468D01*
X75745141Y-111268633D01*
X75827000Y-111127608D01*
X75902641Y-110997609D01*
X75970787Y-110880849D01*
X76030163Y-110779545D01*
X76079493Y-110695911D01*
X76117500Y-110632162D01*
X76142907Y-110590511D01*
X76154440Y-110573175D01*
X76154923Y-110572805D01*
X76164043Y-110585835D01*
G37*
X74322094Y-113791158D02*
X74354619Y-113803736D01*
X74404193Y-113828712D01*
X74475374Y-113867876D01*
X74480916Y-113870988D01*
X74546474Y-113908476D01*
X74601798Y-113941319D01*
X74641455Y-113966205D01*
X74660012Y-113979820D01*
X74660531Y-113980487D01*
X74656048Y-113999390D01*
X74635486Y-114041605D01*
X74600183Y-114104832D01*
X74551480Y-114186772D01*
X74490718Y-114285122D01*
X74419236Y-114397585D01*
X74401445Y-114425165D01*
X74355093Y-114501699D01*
X74321342Y-114567556D01*
X74303153Y-114616782D01*
X74301286Y-114626507D01*
X74302115Y-114669312D01*
X74311394Y-114737209D01*
X74327968Y-114825843D01*
X74350680Y-114930859D01*
X74378373Y-115047902D01*
X74409890Y-115172616D01*
X74444075Y-115300645D01*
X74479771Y-115427634D01*
X74515821Y-115549228D01*
X74551068Y-115661072D01*
X74584356Y-115758810D01*
X74614528Y-115838087D01*
X74635561Y-115885122D01*
X74660337Y-115935225D01*
X74683730Y-115983168D01*
X74684997Y-115985793D01*
X74723699Y-116034220D01*
X74780184Y-116066828D01*
X74845939Y-116082454D01*
X74912451Y-116079937D01*
X74971205Y-116058114D01*
X75004258Y-116029382D01*
X75051859Y-115950583D01*
X75086739Y-115852378D01*
X75105877Y-115744779D01*
X75108588Y-115683780D01*
X75097670Y-115569935D01*
X75065624Y-115475660D01*
X75010726Y-115396379D01*
X74993607Y-115378733D01*
X74942661Y-115329235D01*
X74939163Y-114979362D01*
X74935664Y-114629489D01*
X75024818Y-114494531D01*
X75066654Y-114433445D01*
X75106945Y-114378493D01*
X75139943Y-114337336D01*
X75154126Y-114322192D01*
X75194281Y-114284810D01*
X75248665Y-114314098D01*
X75283039Y-114335084D01*
X75301846Y-114351378D01*
X75303049Y-114354307D01*
X75315903Y-114366728D01*
X75337896Y-114375977D01*
X75359150Y-114384313D01*
X75391694Y-114400149D01*
X75438322Y-114425033D01*
X75501829Y-114460509D01*
X75585008Y-114508123D01*
X75690653Y-114569422D01*
X75748062Y-114602932D01*
X75815594Y-114643071D01*
X75859885Y-114671659D01*
X75884855Y-114692039D01*
X75894423Y-114707553D01*
X75892508Y-114721546D01*
X75890911Y-114724796D01*
X75875376Y-114745266D01*
X75842136Y-114783665D01*
X75795062Y-114835696D01*
X75738028Y-114897066D01*
X75688700Y-114949090D01*
X75575030Y-115072567D01*
X75486105Y-115179591D01*
X75421134Y-115271240D01*
X75379321Y-115348588D01*
X75365217Y-115387866D01*
X75359392Y-115422249D01*
X75353375Y-115480899D01*
X75347696Y-115557117D01*
X75342884Y-115644202D01*
X75340619Y-115699268D01*
X75337459Y-115794464D01*
X75336069Y-115864062D01*
X75336858Y-115913409D01*
X75340235Y-115947854D01*
X75346608Y-115972743D01*
X75356387Y-115993425D01*
X75364067Y-116006053D01*
X75408421Y-116054726D01*
X75465574Y-116088645D01*
X75525708Y-116103438D01*
X75570773Y-116098086D01*
X75611576Y-116074930D01*
X75662724Y-116033462D01*
X75717042Y-115980912D01*
X75767357Y-115924516D01*
X75806494Y-115871505D01*
X75820905Y-115845889D01*
X75842491Y-115810814D01*
X75881753Y-115757389D01*
X75935102Y-115689789D01*
X75998952Y-115612190D01*
X76069715Y-115528768D01*
X76143804Y-115443698D01*
X76217632Y-115361155D01*
X76287611Y-115285316D01*
X76350155Y-115220356D01*
X76399260Y-115172669D01*
X76453779Y-115125032D01*
X76499642Y-115089908D01*
X76531811Y-115070949D01*
X76542489Y-115068864D01*
X76558853Y-115077274D01*
X76599671Y-115099846D01*
X76662586Y-115135224D01*
X76745244Y-115182054D01*
X76845289Y-115238981D01*
X76960366Y-115304649D01*
X77088119Y-115377703D01*
X77226194Y-115456788D01*
X77372234Y-115540548D01*
X77523884Y-115627629D01*
X77678790Y-115716676D01*
X77834595Y-115806332D01*
X77988944Y-115895243D01*
X78139482Y-115982054D01*
X78283854Y-116065409D01*
X78419704Y-116143954D01*
X78544677Y-116216333D01*
X78656417Y-116281190D01*
X78752570Y-116337171D01*
X78830779Y-116382920D01*
X78888689Y-116417083D01*
X78923946Y-116438304D01*
X78934165Y-116444963D01*
X78920402Y-116446280D01*
X78877104Y-116447559D01*
X78805714Y-116448796D01*
X78707673Y-116449983D01*
X78584422Y-116451115D01*
X78437403Y-116452186D01*
X78268057Y-116453189D01*
X78077826Y-116454119D01*
X77868151Y-116454968D01*
X77640473Y-116455732D01*
X77396235Y-116456403D01*
X77136877Y-116456976D01*
X76863841Y-116457444D01*
X76578568Y-116457802D01*
X76282500Y-116458042D01*
X75977079Y-116458159D01*
X75848924Y-116458171D01*
X72748970Y-116458171D01*
X72970053Y-116074847D01*
X73016856Y-115993680D01*
X73077102Y-115889166D01*
X73148778Y-115764801D01*
X73229869Y-115624082D01*
X73318362Y-115470503D01*
X73412240Y-115307562D01*
X73509491Y-115138754D01*
X73608100Y-114967575D01*
X73706053Y-114797521D01*
X73730825Y-114754512D01*
X73821152Y-114597857D01*
X73907289Y-114448803D01*
X73987942Y-114309568D01*
X74061816Y-114182371D01*
X74127617Y-114069432D01*
X74184050Y-113972968D01*
X74229821Y-113895200D01*
X74263635Y-113838346D01*
X74284198Y-113804625D01*
X74289953Y-113796040D01*
X74302058Y-113789189D01*
X74322094Y-113791158D01*
G36*
X74322094Y-113791158D02*
G01*
X74354619Y-113803736D01*
X74404193Y-113828712D01*
X74475374Y-113867876D01*
X74480916Y-113870988D01*
X74546474Y-113908476D01*
X74601798Y-113941319D01*
X74641455Y-113966205D01*
X74660012Y-113979820D01*
X74660531Y-113980487D01*
X74656048Y-113999390D01*
X74635486Y-114041605D01*
X74600183Y-114104832D01*
X74551480Y-114186772D01*
X74490718Y-114285122D01*
X74419236Y-114397585D01*
X74401445Y-114425165D01*
X74355093Y-114501699D01*
X74321342Y-114567556D01*
X74303153Y-114616782D01*
X74301286Y-114626507D01*
X74302115Y-114669312D01*
X74311394Y-114737209D01*
X74327968Y-114825843D01*
X74350680Y-114930859D01*
X74378373Y-115047902D01*
X74409890Y-115172616D01*
X74444075Y-115300645D01*
X74479771Y-115427634D01*
X74515821Y-115549228D01*
X74551068Y-115661072D01*
X74584356Y-115758810D01*
X74614528Y-115838087D01*
X74635561Y-115885122D01*
X74660337Y-115935225D01*
X74683730Y-115983168D01*
X74684997Y-115985793D01*
X74723699Y-116034220D01*
X74780184Y-116066828D01*
X74845939Y-116082454D01*
X74912451Y-116079937D01*
X74971205Y-116058114D01*
X75004258Y-116029382D01*
X75051859Y-115950583D01*
X75086739Y-115852378D01*
X75105877Y-115744779D01*
X75108588Y-115683780D01*
X75097670Y-115569935D01*
X75065624Y-115475660D01*
X75010726Y-115396379D01*
X74993607Y-115378733D01*
X74942661Y-115329235D01*
X74939163Y-114979362D01*
X74935664Y-114629489D01*
X75024818Y-114494531D01*
X75066654Y-114433445D01*
X75106945Y-114378493D01*
X75139943Y-114337336D01*
X75154126Y-114322192D01*
X75194281Y-114284810D01*
X75248665Y-114314098D01*
X75283039Y-114335084D01*
X75301846Y-114351378D01*
X75303049Y-114354307D01*
X75315903Y-114366728D01*
X75337896Y-114375977D01*
X75359150Y-114384313D01*
X75391694Y-114400149D01*
X75438322Y-114425033D01*
X75501829Y-114460509D01*
X75585008Y-114508123D01*
X75690653Y-114569422D01*
X75748062Y-114602932D01*
X75815594Y-114643071D01*
X75859885Y-114671659D01*
X75884855Y-114692039D01*
X75894423Y-114707553D01*
X75892508Y-114721546D01*
X75890911Y-114724796D01*
X75875376Y-114745266D01*
X75842136Y-114783665D01*
X75795062Y-114835696D01*
X75738028Y-114897066D01*
X75688700Y-114949090D01*
X75575030Y-115072567D01*
X75486105Y-115179591D01*
X75421134Y-115271240D01*
X75379321Y-115348588D01*
X75365217Y-115387866D01*
X75359392Y-115422249D01*
X75353375Y-115480899D01*
X75347696Y-115557117D01*
X75342884Y-115644202D01*
X75340619Y-115699268D01*
X75337459Y-115794464D01*
X75336069Y-115864062D01*
X75336858Y-115913409D01*
X75340235Y-115947854D01*
X75346608Y-115972743D01*
X75356387Y-115993425D01*
X75364067Y-116006053D01*
X75408421Y-116054726D01*
X75465574Y-116088645D01*
X75525708Y-116103438D01*
X75570773Y-116098086D01*
X75611576Y-116074930D01*
X75662724Y-116033462D01*
X75717042Y-115980912D01*
X75767357Y-115924516D01*
X75806494Y-115871505D01*
X75820905Y-115845889D01*
X75842491Y-115810814D01*
X75881753Y-115757389D01*
X75935102Y-115689789D01*
X75998952Y-115612190D01*
X76069715Y-115528768D01*
X76143804Y-115443698D01*
X76217632Y-115361155D01*
X76287611Y-115285316D01*
X76350155Y-115220356D01*
X76399260Y-115172669D01*
X76453779Y-115125032D01*
X76499642Y-115089908D01*
X76531811Y-115070949D01*
X76542489Y-115068864D01*
X76558853Y-115077274D01*
X76599671Y-115099846D01*
X76662586Y-115135224D01*
X76745244Y-115182054D01*
X76845289Y-115238981D01*
X76960366Y-115304649D01*
X77088119Y-115377703D01*
X77226194Y-115456788D01*
X77372234Y-115540548D01*
X77523884Y-115627629D01*
X77678790Y-115716676D01*
X77834595Y-115806332D01*
X77988944Y-115895243D01*
X78139482Y-115982054D01*
X78283854Y-116065409D01*
X78419704Y-116143954D01*
X78544677Y-116216333D01*
X78656417Y-116281190D01*
X78752570Y-116337171D01*
X78830779Y-116382920D01*
X78888689Y-116417083D01*
X78923946Y-116438304D01*
X78934165Y-116444963D01*
X78920402Y-116446280D01*
X78877104Y-116447559D01*
X78805714Y-116448796D01*
X78707673Y-116449983D01*
X78584422Y-116451115D01*
X78437403Y-116452186D01*
X78268057Y-116453189D01*
X78077826Y-116454119D01*
X77868151Y-116454968D01*
X77640473Y-116455732D01*
X77396235Y-116456403D01*
X77136877Y-116456976D01*
X76863841Y-116457444D01*
X76578568Y-116457802D01*
X76282500Y-116458042D01*
X75977079Y-116458159D01*
X75848924Y-116458171D01*
X72748970Y-116458171D01*
X72970053Y-116074847D01*
X73016856Y-115993680D01*
X73077102Y-115889166D01*
X73148778Y-115764801D01*
X73229869Y-115624082D01*
X73318362Y-115470503D01*
X73412240Y-115307562D01*
X73509491Y-115138754D01*
X73608100Y-114967575D01*
X73706053Y-114797521D01*
X73730825Y-114754512D01*
X73821152Y-114597857D01*
X73907289Y-114448803D01*
X73987942Y-114309568D01*
X74061816Y-114182371D01*
X74127617Y-114069432D01*
X74184050Y-113972968D01*
X74229821Y-113895200D01*
X74263635Y-113838346D01*
X74284198Y-113804625D01*
X74289953Y-113796040D01*
X74302058Y-113789189D01*
X74322094Y-113791158D01*
G37*
D15*
%TO.C,G\u002A\u002A\u002A*%
G36*
X65462333Y-96198840D02*
G01*
X65462990Y-96893287D01*
X65465868Y-97439309D01*
X65472333Y-97857812D01*
X65483748Y-98169702D01*
X65501478Y-98395885D01*
X65526887Y-98557267D01*
X65561338Y-98674755D01*
X65606196Y-98769254D01*
X65633001Y-98814493D01*
X65866882Y-99071840D01*
X66182346Y-99267689D01*
X66508431Y-99360213D01*
X66563000Y-99362667D01*
X66874171Y-99296316D01*
X67194896Y-99125931D01*
X67450737Y-98894509D01*
X67504012Y-98819109D01*
X67551243Y-98729768D01*
X67588144Y-98621188D01*
X67615977Y-98472705D01*
X67636004Y-98263656D01*
X67649486Y-97973376D01*
X67657685Y-97581201D01*
X67661862Y-97066467D01*
X67663278Y-96408509D01*
X67663350Y-96208833D01*
X67663667Y-93859333D01*
X68637333Y-93859333D01*
X69611000Y-93859333D01*
X69611000Y-96221081D01*
X69610002Y-96930682D01*
X69606101Y-97494173D01*
X69597939Y-97934772D01*
X69584156Y-98275697D01*
X69563395Y-98540164D01*
X69534295Y-98751391D01*
X69495499Y-98932595D01*
X69445647Y-99106993D01*
X69441277Y-99120915D01*
X69158815Y-99765125D01*
X68756961Y-100309111D01*
X68252763Y-100734591D01*
X67668985Y-101021321D01*
X67189766Y-101135411D01*
X66646072Y-101185232D01*
X66114553Y-101167692D01*
X65735819Y-101099277D01*
X65424758Y-101000082D01*
X65136949Y-100889198D01*
X65026721Y-100837984D01*
X64706948Y-100615745D01*
X64367257Y-100287351D01*
X64052774Y-99902990D01*
X63808625Y-99512850D01*
X63776312Y-99447333D01*
X63714290Y-99312280D01*
X63665048Y-99186475D01*
X63626887Y-99048897D01*
X63598107Y-98878521D01*
X63577008Y-98654323D01*
X63561891Y-98355282D01*
X63551054Y-97960372D01*
X63542800Y-97448571D01*
X63535428Y-96798855D01*
X63531589Y-96420500D01*
X63505846Y-93859333D01*
X64484089Y-93859333D01*
X65462333Y-93859333D01*
X65462333Y-96198840D01*
G37*
G36*
X75109222Y-93841400D02*
G01*
X75410667Y-93904297D01*
X75754031Y-94028637D01*
X76159137Y-94240530D01*
X76570027Y-94505787D01*
X76930742Y-94790218D01*
X77056386Y-94909800D01*
X77244284Y-95112917D01*
X77366012Y-95264969D01*
X77395053Y-95329828D01*
X77312870Y-95386858D01*
X77118342Y-95514971D01*
X76841935Y-95694259D01*
X76563352Y-95873309D01*
X75768703Y-96382079D01*
X75589685Y-96184680D01*
X75218601Y-95892869D01*
X74757369Y-95706099D01*
X74255065Y-95633020D01*
X73760765Y-95682284D01*
X73427278Y-95803464D01*
X73035278Y-96088822D01*
X72713937Y-96486358D01*
X72493812Y-96946699D01*
X72405462Y-97420473D01*
X72405000Y-97455218D01*
X72483959Y-97967563D01*
X72703124Y-98437452D01*
X73035929Y-98837969D01*
X73455804Y-99142194D01*
X73936182Y-99323208D01*
X74287120Y-99362194D01*
X74633374Y-99305534D01*
X75020606Y-99155395D01*
X75375661Y-98943390D01*
X75506392Y-98835341D01*
X75771451Y-98587042D01*
X76540600Y-99062818D01*
X76861452Y-99265786D01*
X77126825Y-99442095D01*
X77304265Y-99569672D01*
X77360281Y-99620357D01*
X77335512Y-99728903D01*
X77198483Y-99903524D01*
X76978988Y-100118124D01*
X76706818Y-100346609D01*
X76411766Y-100562887D01*
X76123626Y-100740862D01*
X76020499Y-100793808D01*
X75546321Y-100976972D01*
X75004188Y-101119395D01*
X74472220Y-101203449D01*
X74140667Y-101217963D01*
X73920505Y-101196532D01*
X73611910Y-101147314D01*
X73357598Y-101096940D01*
X72635850Y-100855876D01*
X71975396Y-100469033D01*
X71400956Y-99955971D01*
X70937252Y-99336247D01*
X70789396Y-99065075D01*
X70636897Y-98724311D01*
X70544523Y-98418169D01*
X70493509Y-98070246D01*
X70473238Y-97777914D01*
X70474699Y-97049460D01*
X70571562Y-96429849D01*
X70777214Y-95879781D01*
X71105041Y-95359952D01*
X71426126Y-94980301D01*
X72030166Y-94443119D01*
X72703611Y-94059797D01*
X73443346Y-93831175D01*
X74246254Y-93758096D01*
X75109222Y-93841400D01*
G37*
%TO.C,R3*%
D16*
X84130000Y-109130000D02*
X84130000Y-115670000D01*
X84130000Y-115670000D02*
X84460000Y-115670000D01*
X84460000Y-109130000D02*
X84130000Y-109130000D01*
X86540000Y-109130000D02*
X86870000Y-109130000D01*
X86870000Y-109130000D02*
X86870000Y-115670000D01*
X86870000Y-115670000D02*
X86540000Y-115670000D01*
%TO.C,C5*%
X84130000Y-121180000D02*
X84467000Y-121180000D01*
X84130000Y-126420000D02*
X84130000Y-121180000D01*
X84467000Y-126420000D02*
X84130000Y-126420000D01*
X86533000Y-121180000D02*
X86870000Y-121180000D01*
X86870000Y-121180000D02*
X86870000Y-126420000D01*
X86870000Y-126420000D02*
X86533000Y-126420000D01*
%TO.C,U1*%
X90850000Y-112360000D02*
X90850000Y-122640000D01*
X90850000Y-122640000D02*
X92500000Y-122640000D01*
X94500000Y-122640000D02*
X96150000Y-122640000D01*
X96150000Y-112360000D02*
X90850000Y-112360000D01*
X96150000Y-122640000D02*
X96150000Y-112360000D01*
X92500000Y-122640000D02*
G75*
G02*
X94500000Y-122640000I1000000J0D01*
G01*
%TO.C,R4*%
X100630000Y-111720000D02*
X100960000Y-111720000D01*
X100630000Y-118260000D02*
X100630000Y-111720000D01*
X100960000Y-118260000D02*
X100630000Y-118260000D01*
X103040000Y-118260000D02*
X103370000Y-118260000D01*
X103370000Y-111720000D02*
X103040000Y-111720000D01*
X103370000Y-118260000D02*
X103370000Y-111720000D01*
%TO.C,C6*%
X76560000Y-123770000D02*
X73583000Y-123770000D01*
X76560000Y-123810000D02*
X73591000Y-123810000D01*
X76560000Y-123850000D02*
X73598000Y-123850000D01*
X76560000Y-123890000D02*
X73607000Y-123890000D01*
X76560000Y-123930000D02*
X73615000Y-123930000D01*
X76560000Y-123970000D02*
X73624000Y-123970000D01*
X76560000Y-124010000D02*
X73633000Y-124010000D01*
X76560000Y-124050000D02*
X73643000Y-124050000D01*
X76560000Y-124090000D02*
X73653000Y-124090000D01*
X76560000Y-124130000D02*
X73664000Y-124130000D01*
X76560000Y-124170000D02*
X73675000Y-124170000D01*
X76560000Y-124210000D02*
X73687000Y-124210000D01*
X76560000Y-124250000D02*
X73699000Y-124250000D01*
X76560000Y-124290000D02*
X73711000Y-124290000D01*
X76560000Y-124330000D02*
X73724000Y-124330000D01*
X76560000Y-124370000D02*
X73737000Y-124370000D01*
X76560000Y-124410000D02*
X73751000Y-124410000D01*
X76560000Y-124450000D02*
X73765000Y-124450000D01*
X76560000Y-124490000D02*
X73780000Y-124490000D01*
X76560000Y-124530000D02*
X73795000Y-124530000D01*
X76560000Y-124570000D02*
X73811000Y-124570000D01*
X76560000Y-124610000D02*
X73827000Y-124610000D01*
X76560000Y-124650000D02*
X73843000Y-124650000D01*
X76560000Y-124690000D02*
X73860000Y-124690000D01*
X76560000Y-124730000D02*
X73878000Y-124730000D01*
X76560000Y-124770000D02*
X73896000Y-124770000D01*
X76560000Y-124810000D02*
X73915000Y-124810000D01*
X76560000Y-124850000D02*
X73934000Y-124850000D01*
X76560000Y-124890000D02*
X73954000Y-124890000D01*
X76560000Y-124930000D02*
X73974000Y-124930000D01*
X76560000Y-124970000D02*
X73995000Y-124970000D01*
X76560000Y-125010000D02*
X74016000Y-125010000D01*
X76560000Y-125050000D02*
X74038000Y-125050000D01*
X76560000Y-125090000D02*
X74061000Y-125090000D01*
X76560000Y-125130000D02*
X74084000Y-125130000D01*
X76560000Y-125170000D02*
X74107000Y-125170000D01*
X76560000Y-125210000D02*
X74132000Y-125210000D01*
X76560000Y-125250000D02*
X74157000Y-125250000D01*
X76560000Y-125290000D02*
X74182000Y-125290000D01*
X76560000Y-125330000D02*
X74208000Y-125330000D01*
X76560000Y-125370000D02*
X74235000Y-125370000D01*
X76560000Y-125410000D02*
X74263000Y-125410000D01*
X76560000Y-125450000D02*
X74291000Y-125450000D01*
X76560000Y-125490000D02*
X74320000Y-125490000D01*
X76560000Y-125530000D02*
X74350000Y-125530000D01*
X76560000Y-125570000D02*
X74381000Y-125570000D01*
X76560000Y-125610000D02*
X74412000Y-125610000D01*
X76560000Y-125650000D02*
X74444000Y-125650000D01*
X76560000Y-125690000D02*
X74477000Y-125690000D01*
X76560000Y-125730000D02*
X74511000Y-125730000D01*
X76560000Y-125770000D02*
X74545000Y-125770000D01*
X76560000Y-125810000D02*
X74581000Y-125810000D01*
X78133000Y-127130000D02*
X77067000Y-127130000D01*
X78368000Y-127090000D02*
X76832000Y-127090000D01*
X78547000Y-127050000D02*
X76653000Y-127050000D01*
X78697000Y-127010000D02*
X76503000Y-127010000D01*
X78828000Y-126970000D02*
X76372000Y-126970000D01*
X78946000Y-126930000D02*
X76254000Y-126930000D01*
X79053000Y-126890000D02*
X76147000Y-126890000D01*
X79152000Y-126850000D02*
X76048000Y-126850000D01*
X79244000Y-126810000D02*
X75956000Y-126810000D01*
X79331000Y-126770000D02*
X75869000Y-126770000D01*
X79413000Y-126730000D02*
X75787000Y-126730000D01*
X79490000Y-126690000D02*
X75710000Y-126690000D01*
X79564000Y-126650000D02*
X75636000Y-126650000D01*
X79634000Y-126610000D02*
X75566000Y-126610000D01*
X79701000Y-126570000D02*
X75499000Y-126570000D01*
X79765000Y-126530000D02*
X75435000Y-126530000D01*
X79827000Y-126490000D02*
X75373000Y-126490000D01*
X79887000Y-126450000D02*
X75313000Y-126450000D01*
X79915000Y-118640302D02*
X79915000Y-119440302D01*
X79944000Y-126410000D02*
X75256000Y-126410000D01*
X80000000Y-126370000D02*
X75200000Y-126370000D01*
X80053000Y-126330000D02*
X75147000Y-126330000D01*
X80105000Y-126290000D02*
X75095000Y-126290000D01*
X80155000Y-126250000D02*
X75045000Y-126250000D01*
X80204000Y-126210000D02*
X74996000Y-126210000D01*
X80251000Y-126170000D02*
X74949000Y-126170000D01*
X80296000Y-126130000D02*
X74904000Y-126130000D01*
X80315000Y-119040302D02*
X79515000Y-119040302D01*
X80341000Y-126090000D02*
X74859000Y-126090000D01*
X80384000Y-126050000D02*
X74816000Y-126050000D01*
X80426000Y-126010000D02*
X74774000Y-126010000D01*
X80467000Y-125970000D02*
X74733000Y-125970000D01*
X80506000Y-125930000D02*
X74694000Y-125930000D01*
X80545000Y-125890000D02*
X74655000Y-125890000D01*
X80582000Y-125850000D02*
X74618000Y-125850000D01*
X80619000Y-125810000D02*
X78640000Y-125810000D01*
X80655000Y-125770000D02*
X78640000Y-125770000D01*
X80689000Y-125730000D02*
X78640000Y-125730000D01*
X80723000Y-125690000D02*
X78640000Y-125690000D01*
X80756000Y-125650000D02*
X78640000Y-125650000D01*
X80788000Y-125610000D02*
X78640000Y-125610000D01*
X80819000Y-125570000D02*
X78640000Y-125570000D01*
X80850000Y-125530000D02*
X78640000Y-125530000D01*
X80880000Y-125490000D02*
X78640000Y-125490000D01*
X80909000Y-125450000D02*
X78640000Y-125450000D01*
X80937000Y-125410000D02*
X78640000Y-125410000D01*
X80965000Y-125370000D02*
X78640000Y-125370000D01*
X80992000Y-125330000D02*
X78640000Y-125330000D01*
X81018000Y-125290000D02*
X78640000Y-125290000D01*
X81043000Y-125250000D02*
X78640000Y-125250000D01*
X81068000Y-125210000D02*
X78640000Y-125210000D01*
X81093000Y-125170000D02*
X78640000Y-125170000D01*
X81116000Y-125130000D02*
X78640000Y-125130000D01*
X81139000Y-125090000D02*
X78640000Y-125090000D01*
X81162000Y-125050000D02*
X78640000Y-125050000D01*
X81184000Y-125010000D02*
X78640000Y-125010000D01*
X81205000Y-124970000D02*
X78640000Y-124970000D01*
X81226000Y-124930000D02*
X78640000Y-124930000D01*
X81246000Y-124890000D02*
X78640000Y-124890000D01*
X81266000Y-124850000D02*
X78640000Y-124850000D01*
X81285000Y-124810000D02*
X78640000Y-124810000D01*
X81304000Y-124770000D02*
X78640000Y-124770000D01*
X81322000Y-124730000D02*
X78640000Y-124730000D01*
X81340000Y-124690000D02*
X78640000Y-124690000D01*
X81357000Y-124650000D02*
X78640000Y-124650000D01*
X81373000Y-124610000D02*
X78640000Y-124610000D01*
X81389000Y-124570000D02*
X78640000Y-124570000D01*
X81405000Y-124530000D02*
X78640000Y-124530000D01*
X81420000Y-124490000D02*
X78640000Y-124490000D01*
X81435000Y-124450000D02*
X78640000Y-124450000D01*
X81449000Y-124410000D02*
X78640000Y-124410000D01*
X81463000Y-124370000D02*
X78640000Y-124370000D01*
X81476000Y-124330000D02*
X78640000Y-124330000D01*
X81489000Y-124290000D02*
X78640000Y-124290000D01*
X81501000Y-124250000D02*
X78640000Y-124250000D01*
X81513000Y-124210000D02*
X78640000Y-124210000D01*
X81525000Y-124170000D02*
X78640000Y-124170000D01*
X81536000Y-124130000D02*
X78640000Y-124130000D01*
X81547000Y-124090000D02*
X78640000Y-124090000D01*
X81557000Y-124050000D02*
X78640000Y-124050000D01*
X81567000Y-124010000D02*
X78640000Y-124010000D01*
X81576000Y-123970000D02*
X78640000Y-123970000D01*
X81585000Y-123930000D02*
X78640000Y-123930000D01*
X81593000Y-123890000D02*
X78640000Y-123890000D01*
X81602000Y-123850000D02*
X78640000Y-123850000D01*
X81609000Y-123810000D02*
X78640000Y-123810000D01*
X81617000Y-123770000D02*
X78640000Y-123770000D01*
X81623000Y-123730000D02*
X73577000Y-123730000D01*
X81630000Y-123690000D02*
X73570000Y-123690000D01*
X81636000Y-123650000D02*
X73564000Y-123650000D01*
X81642000Y-123610000D02*
X73558000Y-123610000D01*
X81647000Y-123570000D02*
X73553000Y-123570000D01*
X81652000Y-123530000D02*
X73548000Y-123530000D01*
X81656000Y-123490000D02*
X73544000Y-123490000D01*
X81661000Y-123450000D02*
X73539000Y-123450000D01*
X81664000Y-123410000D02*
X73536000Y-123410000D01*
X81668000Y-123370000D02*
X73532000Y-123370000D01*
X81670000Y-123330000D02*
X73530000Y-123330000D01*
X81673000Y-123290000D02*
X73527000Y-123290000D01*
X81675000Y-123250000D02*
X73525000Y-123250000D01*
X81677000Y-123210000D02*
X73523000Y-123210000D01*
X81678000Y-123170000D02*
X73522000Y-123170000D01*
X81679000Y-123130000D02*
X73521000Y-123130000D01*
X81680000Y-123050000D02*
X73520000Y-123050000D01*
X81680000Y-123090000D02*
X73520000Y-123090000D01*
X81720000Y-123050000D02*
G75*
G02*
X73480000Y-123050000I-4120000J0D01*
G01*
X73480000Y-123050000D02*
G75*
G02*
X81720000Y-123050000I4120000J0D01*
G01*
%TO.C,Jv1*%
X56805000Y-52780000D02*
X64245000Y-52780000D01*
X56805000Y-62820000D02*
X56805000Y-52780000D01*
X64845000Y-52780000D02*
X67205000Y-52780000D01*
X67205000Y-52780000D02*
X67205000Y-62820000D01*
X67205000Y-53400000D02*
X56805000Y-53400000D01*
X67205000Y-54900000D02*
X56805000Y-54900000D01*
X67205000Y-59800000D02*
X56805000Y-59800000D01*
X67205000Y-62820000D02*
X56805000Y-62820000D01*
X64545000Y-52780000D02*
X64105000Y-52170000D01*
X64985000Y-52170000D01*
X64545000Y-52780000D01*
G36*
X64545000Y-52780000D02*
G01*
X64105000Y-52170000D01*
X64985000Y-52170000D01*
X64545000Y-52780000D01*
G37*
%TO.C,C4*%
X59080000Y-75430000D02*
X64320000Y-75430000D01*
X59080000Y-75767000D02*
X59080000Y-75430000D01*
X59080000Y-78170000D02*
X59080000Y-77833000D01*
X64320000Y-75430000D02*
X64320000Y-75767000D01*
X64320000Y-77833000D02*
X64320000Y-78170000D01*
X64320000Y-78170000D02*
X59080000Y-78170000D01*
%TO.C,J2*%
X80030000Y-63990000D02*
X80030000Y-99610000D01*
X80030000Y-63990000D02*
X82690000Y-63990000D01*
X80030000Y-99610000D02*
X82690000Y-99610000D01*
X81360000Y-61390000D02*
X82690000Y-61390000D01*
X82690000Y-61390000D02*
X82690000Y-62720000D01*
X82690000Y-63990000D02*
X82690000Y-99610000D01*
%TO.C,Q2*%
X49150000Y-87840000D02*
X59370000Y-87840000D01*
X49150000Y-92460000D02*
X49150000Y-87840000D01*
X52410000Y-92460000D02*
X52410000Y-91080000D01*
X56110000Y-92460000D02*
X56110000Y-91080000D01*
X59370000Y-87840000D02*
X59370000Y-92460000D01*
X59370000Y-91080000D02*
X49150000Y-91080000D01*
X59370000Y-92460000D02*
X49150000Y-92460000D01*
%TO.C,L1*%
X59320000Y-100800000D02*
G75*
G02*
X49080000Y-100800000I-5120000J0D01*
G01*
X49080000Y-100800000D02*
G75*
G02*
X59320000Y-100800000I5120000J0D01*
G01*
%TO.C,R1*%
X46940000Y-68300000D02*
X48080000Y-68300000D01*
X69460000Y-68300000D02*
X68320000Y-68300000D01*
X48080000Y-64980000D02*
X68320000Y-64980000D01*
X68320000Y-71620000D01*
X48080000Y-71620000D01*
X48080000Y-64980000D01*
%TO.C,J3*%
X105670000Y-63990000D02*
X105670000Y-99610000D01*
X105670000Y-63990000D02*
X108330000Y-63990000D01*
X105670000Y-99610000D02*
X108330000Y-99610000D01*
X107000000Y-61390000D02*
X108330000Y-61390000D01*
X108330000Y-61390000D02*
X108330000Y-62720000D01*
X108330000Y-63990000D02*
X108330000Y-99610000D01*
%TO.C,Jv2*%
X56795000Y-118180000D02*
X67195000Y-118180000D01*
X56795000Y-121200000D02*
X67195000Y-121200000D01*
X56795000Y-126100000D02*
X67195000Y-126100000D01*
X56795000Y-127600000D02*
X67195000Y-127600000D01*
X56795000Y-128220000D02*
X56795000Y-118180000D01*
X59155000Y-128220000D02*
X56795000Y-128220000D01*
X67195000Y-118180000D02*
X67195000Y-128220000D01*
X67195000Y-128220000D02*
X59755000Y-128220000D01*
X59895000Y-128830000D02*
X59015000Y-128830000D01*
X59455000Y-128220000D01*
X59895000Y-128830000D01*
G36*
X59895000Y-128830000D02*
G01*
X59015000Y-128830000D01*
X59455000Y-128220000D01*
X59895000Y-128830000D01*
G37*
%TO.C,R2*%
X65720000Y-87830000D02*
X72260000Y-87830000D01*
X65720000Y-88160000D02*
X65720000Y-87830000D01*
X65720000Y-90240000D02*
X65720000Y-90570000D01*
X65720000Y-90570000D02*
X72260000Y-90570000D01*
X72260000Y-87830000D02*
X72260000Y-88160000D01*
X72260000Y-90570000D02*
X72260000Y-90240000D01*
%TO.C,C3*%
X68387651Y-74385000D02*
X69187651Y-74385000D01*
X68787651Y-73985000D02*
X68787651Y-74785000D01*
X72797349Y-72620000D02*
X72797349Y-80780000D01*
X72837349Y-72620000D02*
X72837349Y-80780000D01*
X72877349Y-72621000D02*
X72877349Y-80779000D01*
X72917349Y-72622000D02*
X72917349Y-80778000D01*
X72957349Y-72623000D02*
X72957349Y-80777000D01*
X72997349Y-72625000D02*
X72997349Y-80775000D01*
X73037349Y-72627000D02*
X73037349Y-80773000D01*
X73077349Y-72630000D02*
X73077349Y-80770000D01*
X73117349Y-72632000D02*
X73117349Y-80768000D01*
X73157349Y-72636000D02*
X73157349Y-80764000D01*
X73197349Y-72639000D02*
X73197349Y-80761000D01*
X73237349Y-72644000D02*
X73237349Y-80756000D01*
X73277349Y-72648000D02*
X73277349Y-80752000D01*
X73317349Y-72653000D02*
X73317349Y-80747000D01*
X73357349Y-72658000D02*
X73357349Y-80742000D01*
X73397349Y-72664000D02*
X73397349Y-80736000D01*
X73437349Y-72670000D02*
X73437349Y-80730000D01*
X73477349Y-72677000D02*
X73477349Y-80723000D01*
X73517349Y-72683000D02*
X73517349Y-75660000D01*
X73517349Y-77740000D02*
X73517349Y-80717000D01*
X73557349Y-72691000D02*
X73557349Y-75660000D01*
X73557349Y-77740000D02*
X73557349Y-80709000D01*
X73597349Y-72698000D02*
X73597349Y-75660000D01*
X73597349Y-77740000D02*
X73597349Y-80702000D01*
X73637349Y-72707000D02*
X73637349Y-75660000D01*
X73637349Y-77740000D02*
X73637349Y-80693000D01*
X73677349Y-72715000D02*
X73677349Y-75660000D01*
X73677349Y-77740000D02*
X73677349Y-80685000D01*
X73717349Y-72724000D02*
X73717349Y-75660000D01*
X73717349Y-77740000D02*
X73717349Y-80676000D01*
X73757349Y-72733000D02*
X73757349Y-75660000D01*
X73757349Y-77740000D02*
X73757349Y-80667000D01*
X73797349Y-72743000D02*
X73797349Y-75660000D01*
X73797349Y-77740000D02*
X73797349Y-80657000D01*
X73837349Y-72753000D02*
X73837349Y-75660000D01*
X73837349Y-77740000D02*
X73837349Y-80647000D01*
X73877349Y-72764000D02*
X73877349Y-75660000D01*
X73877349Y-77740000D02*
X73877349Y-80636000D01*
X73917349Y-72775000D02*
X73917349Y-75660000D01*
X73917349Y-77740000D02*
X73917349Y-80625000D01*
X73957349Y-72787000D02*
X73957349Y-75660000D01*
X73957349Y-77740000D02*
X73957349Y-80613000D01*
X73997349Y-72799000D02*
X73997349Y-75660000D01*
X73997349Y-77740000D02*
X73997349Y-80601000D01*
X74037349Y-72811000D02*
X74037349Y-75660000D01*
X74037349Y-77740000D02*
X74037349Y-80589000D01*
X74077349Y-72824000D02*
X74077349Y-75660000D01*
X74077349Y-77740000D02*
X74077349Y-80576000D01*
X74117349Y-72837000D02*
X74117349Y-75660000D01*
X74117349Y-77740000D02*
X74117349Y-80563000D01*
X74157349Y-72851000D02*
X74157349Y-75660000D01*
X74157349Y-77740000D02*
X74157349Y-80549000D01*
X74197349Y-72865000D02*
X74197349Y-75660000D01*
X74197349Y-77740000D02*
X74197349Y-80535000D01*
X74237349Y-72880000D02*
X74237349Y-75660000D01*
X74237349Y-77740000D02*
X74237349Y-80520000D01*
X74277349Y-72895000D02*
X74277349Y-75660000D01*
X74277349Y-77740000D02*
X74277349Y-80505000D01*
X74317349Y-72911000D02*
X74317349Y-75660000D01*
X74317349Y-77740000D02*
X74317349Y-80489000D01*
X74357349Y-72927000D02*
X74357349Y-75660000D01*
X74357349Y-77740000D02*
X74357349Y-80473000D01*
X74397349Y-72943000D02*
X74397349Y-75660000D01*
X74397349Y-77740000D02*
X74397349Y-80457000D01*
X74437349Y-72960000D02*
X74437349Y-75660000D01*
X74437349Y-77740000D02*
X74437349Y-80440000D01*
X74477349Y-72978000D02*
X74477349Y-75660000D01*
X74477349Y-77740000D02*
X74477349Y-80422000D01*
X74517349Y-72996000D02*
X74517349Y-75660000D01*
X74517349Y-77740000D02*
X74517349Y-80404000D01*
X74557349Y-73015000D02*
X74557349Y-75660000D01*
X74557349Y-77740000D02*
X74557349Y-80385000D01*
X74597349Y-73034000D02*
X74597349Y-75660000D01*
X74597349Y-77740000D02*
X74597349Y-80366000D01*
X74637349Y-73054000D02*
X74637349Y-75660000D01*
X74637349Y-77740000D02*
X74637349Y-80346000D01*
X74677349Y-73074000D02*
X74677349Y-75660000D01*
X74677349Y-77740000D02*
X74677349Y-80326000D01*
X74717349Y-73095000D02*
X74717349Y-75660000D01*
X74717349Y-77740000D02*
X74717349Y-80305000D01*
X74757349Y-73116000D02*
X74757349Y-75660000D01*
X74757349Y-77740000D02*
X74757349Y-80284000D01*
X74797349Y-73138000D02*
X74797349Y-75660000D01*
X74797349Y-77740000D02*
X74797349Y-80262000D01*
X74837349Y-73161000D02*
X74837349Y-75660000D01*
X74837349Y-77740000D02*
X74837349Y-80239000D01*
X74877349Y-73184000D02*
X74877349Y-75660000D01*
X74877349Y-77740000D02*
X74877349Y-80216000D01*
X74917349Y-73207000D02*
X74917349Y-75660000D01*
X74917349Y-77740000D02*
X74917349Y-80193000D01*
X74957349Y-73232000D02*
X74957349Y-75660000D01*
X74957349Y-77740000D02*
X74957349Y-80168000D01*
X74997349Y-73257000D02*
X74997349Y-75660000D01*
X74997349Y-77740000D02*
X74997349Y-80143000D01*
X75037349Y-73282000D02*
X75037349Y-75660000D01*
X75037349Y-77740000D02*
X75037349Y-80118000D01*
X75077349Y-73308000D02*
X75077349Y-75660000D01*
X75077349Y-77740000D02*
X75077349Y-80092000D01*
X75117349Y-73335000D02*
X75117349Y-75660000D01*
X75117349Y-77740000D02*
X75117349Y-80065000D01*
X75157349Y-73363000D02*
X75157349Y-75660000D01*
X75157349Y-77740000D02*
X75157349Y-80037000D01*
X75197349Y-73391000D02*
X75197349Y-75660000D01*
X75197349Y-77740000D02*
X75197349Y-80009000D01*
X75237349Y-73420000D02*
X75237349Y-75660000D01*
X75237349Y-77740000D02*
X75237349Y-79980000D01*
X75277349Y-73450000D02*
X75277349Y-75660000D01*
X75277349Y-77740000D02*
X75277349Y-79950000D01*
X75317349Y-73481000D02*
X75317349Y-75660000D01*
X75317349Y-77740000D02*
X75317349Y-79919000D01*
X75357349Y-73512000D02*
X75357349Y-75660000D01*
X75357349Y-77740000D02*
X75357349Y-79888000D01*
X75397349Y-73544000D02*
X75397349Y-75660000D01*
X75397349Y-77740000D02*
X75397349Y-79856000D01*
X75437349Y-73577000D02*
X75437349Y-75660000D01*
X75437349Y-77740000D02*
X75437349Y-79823000D01*
X75477349Y-73611000D02*
X75477349Y-75660000D01*
X75477349Y-77740000D02*
X75477349Y-79789000D01*
X75517349Y-73645000D02*
X75517349Y-75660000D01*
X75517349Y-77740000D02*
X75517349Y-79755000D01*
X75557349Y-73681000D02*
X75557349Y-75660000D01*
X75557349Y-77740000D02*
X75557349Y-79719000D01*
X75597349Y-73718000D02*
X75597349Y-79682000D01*
X75637349Y-73755000D02*
X75637349Y-79645000D01*
X75677349Y-73794000D02*
X75677349Y-79606000D01*
X75717349Y-73833000D02*
X75717349Y-79567000D01*
X75757349Y-73874000D02*
X75757349Y-79526000D01*
X75797349Y-73916000D02*
X75797349Y-79484000D01*
X75837349Y-73959000D02*
X75837349Y-79441000D01*
X75877349Y-74004000D02*
X75877349Y-79396000D01*
X75917349Y-74049000D02*
X75917349Y-79351000D01*
X75957349Y-74096000D02*
X75957349Y-79304000D01*
X75997349Y-74145000D02*
X75997349Y-79255000D01*
X76037349Y-74195000D02*
X76037349Y-79205000D01*
X76077349Y-74247000D02*
X76077349Y-79153000D01*
X76117349Y-74300000D02*
X76117349Y-79100000D01*
X76157349Y-74356000D02*
X76157349Y-79044000D01*
X76197349Y-74413000D02*
X76197349Y-78987000D01*
X76237349Y-74473000D02*
X76237349Y-78927000D01*
X76277349Y-74535000D02*
X76277349Y-78865000D01*
X76317349Y-74599000D02*
X76317349Y-78801000D01*
X76357349Y-74666000D02*
X76357349Y-78734000D01*
X76397349Y-74736000D02*
X76397349Y-78664000D01*
X76437349Y-74810000D02*
X76437349Y-78590000D01*
X76477349Y-74887000D02*
X76477349Y-78513000D01*
X76517349Y-74969000D02*
X76517349Y-78431000D01*
X76557349Y-75056000D02*
X76557349Y-78344000D01*
X76597349Y-75148000D02*
X76597349Y-78252000D01*
X76637349Y-75247000D02*
X76637349Y-78153000D01*
X76677349Y-75354000D02*
X76677349Y-78046000D01*
X76717349Y-75472000D02*
X76717349Y-77928000D01*
X76757349Y-75603000D02*
X76757349Y-77797000D01*
X76797349Y-75753000D02*
X76797349Y-77647000D01*
X76837349Y-75932000D02*
X76837349Y-77468000D01*
X76877349Y-76167000D02*
X76877349Y-77233000D01*
X76917349Y-76700000D02*
G75*
G02*
X68677349Y-76700000I-4120000J0D01*
G01*
X68677349Y-76700000D02*
G75*
G02*
X76917349Y-76700000I4120000J0D01*
G01*
%TO.C,C2*%
X59980000Y-111230000D02*
X65220000Y-111230000D01*
X59980000Y-111567000D02*
X59980000Y-111230000D01*
X59980000Y-113970000D02*
X59980000Y-113633000D01*
X65220000Y-111230000D02*
X65220000Y-111567000D01*
X65220000Y-113633000D02*
X65220000Y-113970000D01*
X65220000Y-113970000D02*
X59980000Y-113970000D01*
%TO.C,C1*%
X48170000Y-113133000D02*
X48170000Y-112067000D01*
X48210000Y-113368000D02*
X48210000Y-111832000D01*
X48250000Y-113547000D02*
X48250000Y-111653000D01*
X48290000Y-113697000D02*
X48290000Y-111503000D01*
X48330000Y-113828000D02*
X48330000Y-111372000D01*
X48370000Y-113946000D02*
X48370000Y-111254000D01*
X48410000Y-114053000D02*
X48410000Y-111147000D01*
X48450000Y-114152000D02*
X48450000Y-111048000D01*
X48490000Y-114244000D02*
X48490000Y-110956000D01*
X48530000Y-114331000D02*
X48530000Y-110869000D01*
X48570000Y-114413000D02*
X48570000Y-110787000D01*
X48610000Y-114490000D02*
X48610000Y-110710000D01*
X48650000Y-114564000D02*
X48650000Y-110636000D01*
X48690000Y-114634000D02*
X48690000Y-110566000D01*
X48730000Y-114701000D02*
X48730000Y-110499000D01*
X48770000Y-114765000D02*
X48770000Y-110435000D01*
X48810000Y-114827000D02*
X48810000Y-110373000D01*
X48850000Y-114887000D02*
X48850000Y-110313000D01*
X48890000Y-114944000D02*
X48890000Y-110256000D01*
X48930000Y-115000000D02*
X48930000Y-110200000D01*
X48970000Y-115053000D02*
X48970000Y-110147000D01*
X49010000Y-115105000D02*
X49010000Y-110095000D01*
X49050000Y-115155000D02*
X49050000Y-110045000D01*
X49090000Y-115204000D02*
X49090000Y-109996000D01*
X49130000Y-115251000D02*
X49130000Y-109949000D01*
X49170000Y-115296000D02*
X49170000Y-109904000D01*
X49210000Y-115341000D02*
X49210000Y-109859000D01*
X49250000Y-115384000D02*
X49250000Y-109816000D01*
X49290000Y-115426000D02*
X49290000Y-109774000D01*
X49330000Y-115467000D02*
X49330000Y-109733000D01*
X49370000Y-115506000D02*
X49370000Y-109694000D01*
X49410000Y-115545000D02*
X49410000Y-109655000D01*
X49450000Y-115582000D02*
X49450000Y-109618000D01*
X49490000Y-111560000D02*
X49490000Y-109581000D01*
X49490000Y-115619000D02*
X49490000Y-113640000D01*
X49530000Y-111560000D02*
X49530000Y-109545000D01*
X49530000Y-115655000D02*
X49530000Y-113640000D01*
X49570000Y-111560000D02*
X49570000Y-109511000D01*
X49570000Y-115689000D02*
X49570000Y-113640000D01*
X49610000Y-111560000D02*
X49610000Y-109477000D01*
X49610000Y-115723000D02*
X49610000Y-113640000D01*
X49650000Y-111560000D02*
X49650000Y-109444000D01*
X49650000Y-115756000D02*
X49650000Y-113640000D01*
X49690000Y-111560000D02*
X49690000Y-109412000D01*
X49690000Y-115788000D02*
X49690000Y-113640000D01*
X49730000Y-111560000D02*
X49730000Y-109381000D01*
X49730000Y-115819000D02*
X49730000Y-113640000D01*
X49770000Y-111560000D02*
X49770000Y-109350000D01*
X49770000Y-115850000D02*
X49770000Y-113640000D01*
X49810000Y-111560000D02*
X49810000Y-109320000D01*
X49810000Y-115880000D02*
X49810000Y-113640000D01*
X49850000Y-111560000D02*
X49850000Y-109291000D01*
X49850000Y-115909000D02*
X49850000Y-113640000D01*
X49890000Y-111560000D02*
X49890000Y-109263000D01*
X49890000Y-115937000D02*
X49890000Y-113640000D01*
X49930000Y-111560000D02*
X49930000Y-109235000D01*
X49930000Y-115965000D02*
X49930000Y-113640000D01*
X49970000Y-111560000D02*
X49970000Y-109208000D01*
X49970000Y-115992000D02*
X49970000Y-113640000D01*
X50010000Y-111560000D02*
X50010000Y-109182000D01*
X50010000Y-116018000D02*
X50010000Y-113640000D01*
X50050000Y-111560000D02*
X50050000Y-109157000D01*
X50050000Y-116043000D02*
X50050000Y-113640000D01*
X50090000Y-111560000D02*
X50090000Y-109132000D01*
X50090000Y-116068000D02*
X50090000Y-113640000D01*
X50130000Y-111560000D02*
X50130000Y-109107000D01*
X50130000Y-116093000D02*
X50130000Y-113640000D01*
X50170000Y-111560000D02*
X50170000Y-109084000D01*
X50170000Y-116116000D02*
X50170000Y-113640000D01*
X50210000Y-111560000D02*
X50210000Y-109061000D01*
X50210000Y-116139000D02*
X50210000Y-113640000D01*
X50250000Y-111560000D02*
X50250000Y-109038000D01*
X50250000Y-116162000D02*
X50250000Y-113640000D01*
X50290000Y-111560000D02*
X50290000Y-109016000D01*
X50290000Y-116184000D02*
X50290000Y-113640000D01*
X50330000Y-111560000D02*
X50330000Y-108995000D01*
X50330000Y-116205000D02*
X50330000Y-113640000D01*
X50370000Y-111560000D02*
X50370000Y-108974000D01*
X50370000Y-116226000D02*
X50370000Y-113640000D01*
X50410000Y-111560000D02*
X50410000Y-108954000D01*
X50410000Y-116246000D02*
X50410000Y-113640000D01*
X50450000Y-111560000D02*
X50450000Y-108934000D01*
X50450000Y-116266000D02*
X50450000Y-113640000D01*
X50490000Y-111560000D02*
X50490000Y-108915000D01*
X50490000Y-116285000D02*
X50490000Y-113640000D01*
X50530000Y-111560000D02*
X50530000Y-108896000D01*
X50530000Y-116304000D02*
X50530000Y-113640000D01*
X50570000Y-111560000D02*
X50570000Y-108878000D01*
X50570000Y-116322000D02*
X50570000Y-113640000D01*
X50610000Y-111560000D02*
X50610000Y-108860000D01*
X50610000Y-116340000D02*
X50610000Y-113640000D01*
X50650000Y-111560000D02*
X50650000Y-108843000D01*
X50650000Y-116357000D02*
X50650000Y-113640000D01*
X50690000Y-111560000D02*
X50690000Y-108827000D01*
X50690000Y-116373000D02*
X50690000Y-113640000D01*
X50730000Y-111560000D02*
X50730000Y-108811000D01*
X50730000Y-116389000D02*
X50730000Y-113640000D01*
X50770000Y-111560000D02*
X50770000Y-108795000D01*
X50770000Y-116405000D02*
X50770000Y-113640000D01*
X50810000Y-111560000D02*
X50810000Y-108780000D01*
X50810000Y-116420000D02*
X50810000Y-113640000D01*
X50850000Y-111560000D02*
X50850000Y-108765000D01*
X50850000Y-116435000D02*
X50850000Y-113640000D01*
X50890000Y-111560000D02*
X50890000Y-108751000D01*
X50890000Y-116449000D02*
X50890000Y-113640000D01*
X50930000Y-111560000D02*
X50930000Y-108737000D01*
X50930000Y-116463000D02*
X50930000Y-113640000D01*
X50970000Y-111560000D02*
X50970000Y-108724000D01*
X50970000Y-116476000D02*
X50970000Y-113640000D01*
X51010000Y-111560000D02*
X51010000Y-108711000D01*
X51010000Y-116489000D02*
X51010000Y-113640000D01*
X51050000Y-111560000D02*
X51050000Y-108699000D01*
X51050000Y-116501000D02*
X51050000Y-113640000D01*
X51090000Y-111560000D02*
X51090000Y-108687000D01*
X51090000Y-116513000D02*
X51090000Y-113640000D01*
X51130000Y-111560000D02*
X51130000Y-108675000D01*
X51130000Y-116525000D02*
X51130000Y-113640000D01*
X51170000Y-111560000D02*
X51170000Y-108664000D01*
X51170000Y-116536000D02*
X51170000Y-113640000D01*
X51210000Y-111560000D02*
X51210000Y-108653000D01*
X51210000Y-116547000D02*
X51210000Y-113640000D01*
X51250000Y-111560000D02*
X51250000Y-108643000D01*
X51250000Y-116557000D02*
X51250000Y-113640000D01*
X51290000Y-111560000D02*
X51290000Y-108633000D01*
X51290000Y-116567000D02*
X51290000Y-113640000D01*
X51330000Y-111560000D02*
X51330000Y-108624000D01*
X51330000Y-116576000D02*
X51330000Y-113640000D01*
X51370000Y-111560000D02*
X51370000Y-108615000D01*
X51370000Y-116585000D02*
X51370000Y-113640000D01*
X51410000Y-111560000D02*
X51410000Y-108607000D01*
X51410000Y-116593000D02*
X51410000Y-113640000D01*
X51450000Y-111560000D02*
X51450000Y-108598000D01*
X51450000Y-116602000D02*
X51450000Y-113640000D01*
X51490000Y-111560000D02*
X51490000Y-108591000D01*
X51490000Y-116609000D02*
X51490000Y-113640000D01*
X51530000Y-111560000D02*
X51530000Y-108583000D01*
X51530000Y-116617000D02*
X51530000Y-113640000D01*
X51570000Y-116623000D02*
X51570000Y-108577000D01*
X51610000Y-116630000D02*
X51610000Y-108570000D01*
X51650000Y-116636000D02*
X51650000Y-108564000D01*
X51690000Y-116642000D02*
X51690000Y-108558000D01*
X51730000Y-116647000D02*
X51730000Y-108553000D01*
X51770000Y-116652000D02*
X51770000Y-108548000D01*
X51810000Y-116656000D02*
X51810000Y-108544000D01*
X51850000Y-116661000D02*
X51850000Y-108539000D01*
X51890000Y-116664000D02*
X51890000Y-108536000D01*
X51930000Y-116668000D02*
X51930000Y-108532000D01*
X51970000Y-116670000D02*
X51970000Y-108530000D01*
X52010000Y-116673000D02*
X52010000Y-108527000D01*
X52050000Y-116675000D02*
X52050000Y-108525000D01*
X52090000Y-116677000D02*
X52090000Y-108523000D01*
X52130000Y-116678000D02*
X52130000Y-108522000D01*
X52170000Y-116679000D02*
X52170000Y-108521000D01*
X52210000Y-116680000D02*
X52210000Y-108520000D01*
X52250000Y-116680000D02*
X52250000Y-108520000D01*
X56259698Y-115315000D02*
X56259698Y-114515000D01*
X56659698Y-114915000D02*
X55859698Y-114915000D01*
X56370000Y-112600000D02*
G75*
G02*
X48130000Y-112600000I-4120000J0D01*
G01*
X48130000Y-112600000D02*
G75*
G02*
X56370000Y-112600000I4120000J0D01*
G01*
%TO.C,D1*%
X55660000Y-82500000D02*
X56680000Y-82500000D01*
X61100000Y-83970000D02*
X61100000Y-81030000D01*
X61220000Y-83970000D02*
X61220000Y-81030000D01*
X61340000Y-83970000D02*
X61340000Y-81030000D01*
X63140000Y-82500000D02*
X62120000Y-82500000D01*
X56680000Y-81030000D02*
X62120000Y-81030000D01*
X62120000Y-83970000D01*
X56680000Y-83970000D01*
X56680000Y-81030000D01*
%TD*%
M02*
