M48
; DRILL file KiCad 10.0.0 date 2026-06-21T13:06:17
; FORMAT={-:-/ absolute / metric / decimal}
; #@! TF.CreationDate,2026-06-21T13:06:17+02:00
; #@! TF.GenerationSoftware,Kicad,Pcbnew,10.0.0
; #@! TF.FileFunction,Plated,1,2,PTH
FMAT,2
METRIC
; #@! TA.AperFunction,Plated,PTH,ComponentDrill
T1C0.800
; #@! TA.AperFunction,Plated,PTH,ComponentDrill
T2C1.000
; #@! TA.AperFunction,Plated,PTH,ComponentDrill
T3C1.100
; #@! TA.AperFunction,Plated,PTH,ComponentDrill
T4C1.200
; #@! TA.AperFunction,Plated,PTH,ComponentDrill
T5C1.300
; #@! TA.AperFunction,Plated,PTH,ComponentDrill
T6C3.200
%
G90
G05
T1
X50.5Y-112.6
X54.0Y-112.6
X59.2Y-76.8
X60.1Y-112.6
X64.2Y-76.8
X65.1Y-112.6
X65.18Y-89.2
X71.047Y-76.7
X72.8Y-89.2
X74.547Y-76.7
X77.6Y-121.3
X77.6Y-124.8
X85.5Y-108.59
X85.5Y-116.21
X85.5Y-121.3
X85.5Y-126.3
X89.69Y-113.69
X89.69Y-116.23
X89.69Y-118.77
X89.69Y-121.31
X97.31Y-113.69
X97.31Y-116.23
X97.31Y-118.77
X97.31Y-121.31
X102.0Y-111.18
X102.0Y-118.8
T2
X81.36Y-62.72
X81.36Y-65.26
X81.36Y-67.8
X81.36Y-70.34
X81.36Y-72.88
X81.36Y-75.42
X81.36Y-77.96
X81.36Y-80.5
X81.36Y-83.04
X81.36Y-85.58
X81.36Y-88.12
X81.36Y-90.66
X81.36Y-93.2
X81.36Y-95.74
X81.36Y-98.28
X107.0Y-62.72
X107.0Y-65.26
X107.0Y-67.8
X107.0Y-70.34
X107.0Y-72.88
X107.0Y-75.42
X107.0Y-77.96
X107.0Y-80.5
X107.0Y-83.04
X107.0Y-85.58
X107.0Y-88.12
X107.0Y-90.66
X107.0Y-93.2
X107.0Y-95.74
X107.0Y-98.28
T3
X51.72Y-89.2
X54.26Y-89.2
X54.32Y-82.5
X56.8Y-89.2
X64.48Y-82.5
T4
X45.5Y-68.3
X70.9Y-68.3
T5
X54.2Y-98.3
X54.2Y-103.3
X59.455Y-123.5
X59.465Y-57.5
X64.535Y-123.5
X64.545Y-57.5
T6
X47.0Y-55.5
X47.0Y-125.5
X107.0Y-55.5
X107.0Y-125.5
M30
