%TF.GenerationSoftware,KiCad,Pcbnew,10.0.0*%
%TF.CreationDate,2026-06-21T13:06:11+02:00*%
%TF.ProjectId,Boost_V2,426f6f73-745f-4563-922e-6b696361645f,rev?*%
%TF.SameCoordinates,Original*%
%TF.FileFunction,Soldermask,Bot*%
%TF.FilePolarity,Negative*%
%FSLAX46Y46*%
G04 Gerber Fmt 4.6, Leading zero omitted, Abs format (unit mm)*
G04 Created by KiCad (PCBNEW 10.0.0) date 2026-06-21 13:06:11*
%MOMM*%
%LPD*%
G01*
G04 APERTURE LIST*
G04 Aperture macros list*
%AMRoundRect*
0 Rectangle with rounded corners*
0 $1 Rounding radius*
0 $2 $3 $4 $5 $6 $7 $8 $9 X,Y pos of 4 corners*
0 Add a 4 corners polygon primitive as box body*
4,1,4,$2,$3,$4,$5,$6,$7,$8,$9,$2,$3,0*
0 Add four circle primitives for the rounded corners*
1,1,$1+$1,$2,$3*
1,1,$1+$1,$4,$5*
1,1,$1+$1,$6,$7*
1,1,$1+$1,$8,$9*
0 Add four rect primitives between the rounded corners*
20,1,$1+$1,$2,$3,$4,$5,0*
20,1,$1+$1,$4,$5,$6,$7,0*
20,1,$1+$1,$6,$7,$8,$9,0*
20,1,$1+$1,$8,$9,$2,$3,0*%
G04 Aperture macros list end*
%ADD10C,0.150000*%
%ADD11C,0.300000*%
%ADD12C,0.400000*%
%ADD13C,1.600000*%
%ADD14RoundRect,0.250000X0.550000X0.550000X-0.550000X0.550000X-0.550000X-0.550000X0.550000X-0.550000X0*%
%ADD15RoundRect,0.250000X-0.550000X0.550000X-0.550000X-0.550000X0.550000X-0.550000X0.550000X0.550000X0*%
%ADD16C,5.700000*%
%ADD17RoundRect,0.250000X1.050000X1.050000X-1.050000X1.050000X-1.050000X-1.050000X1.050000X-1.050000X0*%
%ADD18C,2.600000*%
%ADD19R,1.700000X1.700000*%
%ADD20C,1.700000*%
%ADD21R,1.905000X2.000000*%
%ADD22O,1.905000X2.000000*%
%ADD23C,2.400000*%
%ADD24RoundRect,0.250000X-1.050000X-1.050000X1.050000X-1.050000X1.050000X1.050000X-1.050000X1.050000X0*%
%ADD25RoundRect,0.250000X-0.550000X-0.550000X0.550000X-0.550000X0.550000X0.550000X-0.550000X0.550000X0*%
%ADD26RoundRect,0.249999X0.850001X0.850001X-0.850001X0.850001X-0.850001X-0.850001X0.850001X-0.850001X0*%
%ADD27C,2.200000*%
G04 APERTURE END LIST*
D10*
X28005800Y-166007200D02*
X136005800Y-166007200D01*
X136005800Y-198007200D01*
X28005800Y-198007200D01*
X28005800Y-166007200D01*
X10000000Y-10000000D02*
X138005800Y-10000000D01*
X138005800Y-200007200D01*
X10000000Y-200007200D01*
X10000000Y-10000000D01*
X12000000Y-12000000D02*
X136005800Y-12000000D01*
X136005800Y-198007200D01*
X12000000Y-198007200D01*
X12000000Y-12000000D01*
X60000000Y-12000000D02*
X60000000Y-10000000D01*
X110000000Y-12000000D02*
X110000000Y-10000000D01*
X36089160Y-11593604D02*
X35346303Y-11593604D01*
X35717731Y-11593604D02*
X35717731Y-10293604D01*
X35717731Y-10293604D02*
X35593922Y-10479319D01*
X35593922Y-10479319D02*
X35470112Y-10603128D01*
X35470112Y-10603128D02*
X35346303Y-10665033D01*
X85346303Y-10417414D02*
X85408207Y-10355509D01*
X85408207Y-10355509D02*
X85532017Y-10293604D01*
X85532017Y-10293604D02*
X85841541Y-10293604D01*
X85841541Y-10293604D02*
X85965350Y-10355509D01*
X85965350Y-10355509D02*
X86027255Y-10417414D01*
X86027255Y-10417414D02*
X86089160Y-10541223D01*
X86089160Y-10541223D02*
X86089160Y-10665033D01*
X86089160Y-10665033D02*
X86027255Y-10850747D01*
X86027255Y-10850747D02*
X85284398Y-11593604D01*
X85284398Y-11593604D02*
X86089160Y-11593604D01*
X135284398Y-10293604D02*
X136089160Y-10293604D01*
X136089160Y-10293604D02*
X135655826Y-10788842D01*
X135655826Y-10788842D02*
X135841541Y-10788842D01*
X135841541Y-10788842D02*
X135965350Y-10850747D01*
X135965350Y-10850747D02*
X136027255Y-10912652D01*
X136027255Y-10912652D02*
X136089160Y-11036461D01*
X136089160Y-11036461D02*
X136089160Y-11345985D01*
X136089160Y-11345985D02*
X136027255Y-11469795D01*
X136027255Y-11469795D02*
X135965350Y-11531700D01*
X135965350Y-11531700D02*
X135841541Y-11593604D01*
X135841541Y-11593604D02*
X135470112Y-11593604D01*
X135470112Y-11593604D02*
X135346303Y-11531700D01*
X135346303Y-11531700D02*
X135284398Y-11469795D01*
X60000000Y-198007200D02*
X60000000Y-200007200D01*
X110000000Y-198007200D02*
X110000000Y-200007200D01*
X36089160Y-199600804D02*
X35346303Y-199600804D01*
X35717731Y-199600804D02*
X35717731Y-198300804D01*
X35717731Y-198300804D02*
X35593922Y-198486519D01*
X35593922Y-198486519D02*
X35470112Y-198610328D01*
X35470112Y-198610328D02*
X35346303Y-198672233D01*
X85346303Y-198424614D02*
X85408207Y-198362709D01*
X85408207Y-198362709D02*
X85532017Y-198300804D01*
X85532017Y-198300804D02*
X85841541Y-198300804D01*
X85841541Y-198300804D02*
X85965350Y-198362709D01*
X85965350Y-198362709D02*
X86027255Y-198424614D01*
X86027255Y-198424614D02*
X86089160Y-198548423D01*
X86089160Y-198548423D02*
X86089160Y-198672233D01*
X86089160Y-198672233D02*
X86027255Y-198857947D01*
X86027255Y-198857947D02*
X85284398Y-199600804D01*
X85284398Y-199600804D02*
X86089160Y-199600804D01*
X135284398Y-198300804D02*
X136089160Y-198300804D01*
X136089160Y-198300804D02*
X135655826Y-198796042D01*
X135655826Y-198796042D02*
X135841541Y-198796042D01*
X135841541Y-198796042D02*
X135965350Y-198857947D01*
X135965350Y-198857947D02*
X136027255Y-198919852D01*
X136027255Y-198919852D02*
X136089160Y-199043661D01*
X136089160Y-199043661D02*
X136089160Y-199353185D01*
X136089160Y-199353185D02*
X136027255Y-199476995D01*
X136027255Y-199476995D02*
X135965350Y-199538900D01*
X135965350Y-199538900D02*
X135841541Y-199600804D01*
X135841541Y-199600804D02*
X135470112Y-199600804D01*
X135470112Y-199600804D02*
X135346303Y-199538900D01*
X135346303Y-199538900D02*
X135284398Y-199476995D01*
X10000000Y-60000000D02*
X12000000Y-60000000D01*
X10000000Y-110000000D02*
X12000000Y-110000000D01*
X10000000Y-160000000D02*
X12000000Y-160000000D01*
X10690476Y-35222176D02*
X11309523Y-35222176D01*
X10566666Y-35593604D02*
X10999999Y-34293604D01*
X10999999Y-34293604D02*
X11433333Y-35593604D01*
X11092857Y-84912652D02*
X11278571Y-84974557D01*
X11278571Y-84974557D02*
X11340476Y-85036461D01*
X11340476Y-85036461D02*
X11402380Y-85160271D01*
X11402380Y-85160271D02*
X11402380Y-85345985D01*
X11402380Y-85345985D02*
X11340476Y-85469795D01*
X11340476Y-85469795D02*
X11278571Y-85531700D01*
X11278571Y-85531700D02*
X11154761Y-85593604D01*
X11154761Y-85593604D02*
X10659523Y-85593604D01*
X10659523Y-85593604D02*
X10659523Y-84293604D01*
X10659523Y-84293604D02*
X11092857Y-84293604D01*
X11092857Y-84293604D02*
X11216666Y-84355509D01*
X11216666Y-84355509D02*
X11278571Y-84417414D01*
X11278571Y-84417414D02*
X11340476Y-84541223D01*
X11340476Y-84541223D02*
X11340476Y-84665033D01*
X11340476Y-84665033D02*
X11278571Y-84788842D01*
X11278571Y-84788842D02*
X11216666Y-84850747D01*
X11216666Y-84850747D02*
X11092857Y-84912652D01*
X11092857Y-84912652D02*
X10659523Y-84912652D01*
X11402380Y-135469795D02*
X11340476Y-135531700D01*
X11340476Y-135531700D02*
X11154761Y-135593604D01*
X11154761Y-135593604D02*
X11030952Y-135593604D01*
X11030952Y-135593604D02*
X10845238Y-135531700D01*
X10845238Y-135531700D02*
X10721428Y-135407890D01*
X10721428Y-135407890D02*
X10659523Y-135284080D01*
X10659523Y-135284080D02*
X10597619Y-135036461D01*
X10597619Y-135036461D02*
X10597619Y-134850747D01*
X10597619Y-134850747D02*
X10659523Y-134603128D01*
X10659523Y-134603128D02*
X10721428Y-134479319D01*
X10721428Y-134479319D02*
X10845238Y-134355509D01*
X10845238Y-134355509D02*
X11030952Y-134293604D01*
X11030952Y-134293604D02*
X11154761Y-134293604D01*
X11154761Y-134293604D02*
X11340476Y-134355509D01*
X11340476Y-134355509D02*
X11402380Y-134417414D01*
X10659523Y-185593604D02*
X10659523Y-184293604D01*
X10659523Y-184293604D02*
X10969047Y-184293604D01*
X10969047Y-184293604D02*
X11154761Y-184355509D01*
X11154761Y-184355509D02*
X11278571Y-184479319D01*
X11278571Y-184479319D02*
X11340476Y-184603128D01*
X11340476Y-184603128D02*
X11402380Y-184850747D01*
X11402380Y-184850747D02*
X11402380Y-185036461D01*
X11402380Y-185036461D02*
X11340476Y-185284080D01*
X11340476Y-185284080D02*
X11278571Y-185407890D01*
X11278571Y-185407890D02*
X11154761Y-185531700D01*
X11154761Y-185531700D02*
X10969047Y-185593604D01*
X10969047Y-185593604D02*
X10659523Y-185593604D01*
X138005800Y-60000000D02*
X136005800Y-60000000D01*
X138005800Y-110000000D02*
X136005800Y-110000000D01*
X138005800Y-160000000D02*
X136005800Y-160000000D01*
X136696276Y-35222176D02*
X137315323Y-35222176D01*
X136572466Y-35593604D02*
X137005799Y-34293604D01*
X137005799Y-34293604D02*
X137439133Y-35593604D01*
X137098657Y-84912652D02*
X137284371Y-84974557D01*
X137284371Y-84974557D02*
X137346276Y-85036461D01*
X137346276Y-85036461D02*
X137408180Y-85160271D01*
X137408180Y-85160271D02*
X137408180Y-85345985D01*
X137408180Y-85345985D02*
X137346276Y-85469795D01*
X137346276Y-85469795D02*
X137284371Y-85531700D01*
X137284371Y-85531700D02*
X137160561Y-85593604D01*
X137160561Y-85593604D02*
X136665323Y-85593604D01*
X136665323Y-85593604D02*
X136665323Y-84293604D01*
X136665323Y-84293604D02*
X137098657Y-84293604D01*
X137098657Y-84293604D02*
X137222466Y-84355509D01*
X137222466Y-84355509D02*
X137284371Y-84417414D01*
X137284371Y-84417414D02*
X137346276Y-84541223D01*
X137346276Y-84541223D02*
X137346276Y-84665033D01*
X137346276Y-84665033D02*
X137284371Y-84788842D01*
X137284371Y-84788842D02*
X137222466Y-84850747D01*
X137222466Y-84850747D02*
X137098657Y-84912652D01*
X137098657Y-84912652D02*
X136665323Y-84912652D01*
X137408180Y-135469795D02*
X137346276Y-135531700D01*
X137346276Y-135531700D02*
X137160561Y-135593604D01*
X137160561Y-135593604D02*
X137036752Y-135593604D01*
X137036752Y-135593604D02*
X136851038Y-135531700D01*
X136851038Y-135531700D02*
X136727228Y-135407890D01*
X136727228Y-135407890D02*
X136665323Y-135284080D01*
X136665323Y-135284080D02*
X136603419Y-135036461D01*
X136603419Y-135036461D02*
X136603419Y-134850747D01*
X136603419Y-134850747D02*
X136665323Y-134603128D01*
X136665323Y-134603128D02*
X136727228Y-134479319D01*
X136727228Y-134479319D02*
X136851038Y-134355509D01*
X136851038Y-134355509D02*
X137036752Y-134293604D01*
X137036752Y-134293604D02*
X137160561Y-134293604D01*
X137160561Y-134293604D02*
X137346276Y-134355509D01*
X137346276Y-134355509D02*
X137408180Y-134417414D01*
X136665323Y-185593604D02*
X136665323Y-184293604D01*
X136665323Y-184293604D02*
X136974847Y-184293604D01*
X136974847Y-184293604D02*
X137160561Y-184355509D01*
X137160561Y-184355509D02*
X137284371Y-184479319D01*
X137284371Y-184479319D02*
X137346276Y-184603128D01*
X137346276Y-184603128D02*
X137408180Y-184850747D01*
X137408180Y-184850747D02*
X137408180Y-185036461D01*
X137408180Y-185036461D02*
X137346276Y-185284080D01*
X137346276Y-185284080D02*
X137284371Y-185407890D01*
X137284371Y-185407890D02*
X137160561Y-185531700D01*
X137160561Y-185531700D02*
X136974847Y-185593604D01*
X136974847Y-185593604D02*
X136665323Y-185593604D01*
X51461626Y-193793328D02*
X51461626Y-192293328D01*
X51461626Y-192293328D02*
X51818769Y-192293328D01*
X51818769Y-192293328D02*
X52033055Y-192364757D01*
X52033055Y-192364757D02*
X52175912Y-192507614D01*
X52175912Y-192507614D02*
X52247341Y-192650471D01*
X52247341Y-192650471D02*
X52318769Y-192936185D01*
X52318769Y-192936185D02*
X52318769Y-193150471D01*
X52318769Y-193150471D02*
X52247341Y-193436185D01*
X52247341Y-193436185D02*
X52175912Y-193579042D01*
X52175912Y-193579042D02*
X52033055Y-193721900D01*
X52033055Y-193721900D02*
X51818769Y-193793328D01*
X51818769Y-193793328D02*
X51461626Y-193793328D01*
X53604484Y-193793328D02*
X53604484Y-193007614D01*
X53604484Y-193007614D02*
X53533055Y-192864757D01*
X53533055Y-192864757D02*
X53390198Y-192793328D01*
X53390198Y-192793328D02*
X53104484Y-192793328D01*
X53104484Y-192793328D02*
X52961626Y-192864757D01*
X53604484Y-193721900D02*
X53461626Y-193793328D01*
X53461626Y-193793328D02*
X53104484Y-193793328D01*
X53104484Y-193793328D02*
X52961626Y-193721900D01*
X52961626Y-193721900D02*
X52890198Y-193579042D01*
X52890198Y-193579042D02*
X52890198Y-193436185D01*
X52890198Y-193436185D02*
X52961626Y-193293328D01*
X52961626Y-193293328D02*
X53104484Y-193221900D01*
X53104484Y-193221900D02*
X53461626Y-193221900D01*
X53461626Y-193221900D02*
X53604484Y-193150471D01*
X54104484Y-192793328D02*
X54675912Y-192793328D01*
X54318769Y-192293328D02*
X54318769Y-193579042D01*
X54318769Y-193579042D02*
X54390198Y-193721900D01*
X54390198Y-193721900D02*
X54533055Y-193793328D01*
X54533055Y-193793328D02*
X54675912Y-193793328D01*
X55747341Y-193721900D02*
X55604484Y-193793328D01*
X55604484Y-193793328D02*
X55318770Y-193793328D01*
X55318770Y-193793328D02*
X55175912Y-193721900D01*
X55175912Y-193721900D02*
X55104484Y-193579042D01*
X55104484Y-193579042D02*
X55104484Y-193007614D01*
X55104484Y-193007614D02*
X55175912Y-192864757D01*
X55175912Y-192864757D02*
X55318770Y-192793328D01*
X55318770Y-192793328D02*
X55604484Y-192793328D01*
X55604484Y-192793328D02*
X55747341Y-192864757D01*
X55747341Y-192864757D02*
X55818770Y-193007614D01*
X55818770Y-193007614D02*
X55818770Y-193150471D01*
X55818770Y-193150471D02*
X55104484Y-193293328D01*
X56461626Y-193650471D02*
X56533055Y-193721900D01*
X56533055Y-193721900D02*
X56461626Y-193793328D01*
X56461626Y-193793328D02*
X56390198Y-193721900D01*
X56390198Y-193721900D02*
X56461626Y-193650471D01*
X56461626Y-193650471D02*
X56461626Y-193793328D01*
X56461626Y-192864757D02*
X56533055Y-192936185D01*
X56533055Y-192936185D02*
X56461626Y-193007614D01*
X56461626Y-193007614D02*
X56390198Y-192936185D01*
X56390198Y-192936185D02*
X56461626Y-192864757D01*
X56461626Y-192864757D02*
X56461626Y-193007614D01*
X58247341Y-192436185D02*
X58318769Y-192364757D01*
X58318769Y-192364757D02*
X58461627Y-192293328D01*
X58461627Y-192293328D02*
X58818769Y-192293328D01*
X58818769Y-192293328D02*
X58961627Y-192364757D01*
X58961627Y-192364757D02*
X59033055Y-192436185D01*
X59033055Y-192436185D02*
X59104484Y-192579042D01*
X59104484Y-192579042D02*
X59104484Y-192721900D01*
X59104484Y-192721900D02*
X59033055Y-192936185D01*
X59033055Y-192936185D02*
X58175912Y-193793328D01*
X58175912Y-193793328D02*
X59104484Y-193793328D01*
X60033055Y-192293328D02*
X60175912Y-192293328D01*
X60175912Y-192293328D02*
X60318769Y-192364757D01*
X60318769Y-192364757D02*
X60390198Y-192436185D01*
X60390198Y-192436185D02*
X60461626Y-192579042D01*
X60461626Y-192579042D02*
X60533055Y-192864757D01*
X60533055Y-192864757D02*
X60533055Y-193221900D01*
X60533055Y-193221900D02*
X60461626Y-193507614D01*
X60461626Y-193507614D02*
X60390198Y-193650471D01*
X60390198Y-193650471D02*
X60318769Y-193721900D01*
X60318769Y-193721900D02*
X60175912Y-193793328D01*
X60175912Y-193793328D02*
X60033055Y-193793328D01*
X60033055Y-193793328D02*
X59890198Y-193721900D01*
X59890198Y-193721900D02*
X59818769Y-193650471D01*
X59818769Y-193650471D02*
X59747340Y-193507614D01*
X59747340Y-193507614D02*
X59675912Y-193221900D01*
X59675912Y-193221900D02*
X59675912Y-192864757D01*
X59675912Y-192864757D02*
X59747340Y-192579042D01*
X59747340Y-192579042D02*
X59818769Y-192436185D01*
X59818769Y-192436185D02*
X59890198Y-192364757D01*
X59890198Y-192364757D02*
X60033055Y-192293328D01*
X61104483Y-192436185D02*
X61175911Y-192364757D01*
X61175911Y-192364757D02*
X61318769Y-192293328D01*
X61318769Y-192293328D02*
X61675911Y-192293328D01*
X61675911Y-192293328D02*
X61818769Y-192364757D01*
X61818769Y-192364757D02*
X61890197Y-192436185D01*
X61890197Y-192436185D02*
X61961626Y-192579042D01*
X61961626Y-192579042D02*
X61961626Y-192721900D01*
X61961626Y-192721900D02*
X61890197Y-192936185D01*
X61890197Y-192936185D02*
X61033054Y-193793328D01*
X61033054Y-193793328D02*
X61961626Y-193793328D01*
X63247340Y-192293328D02*
X62961625Y-192293328D01*
X62961625Y-192293328D02*
X62818768Y-192364757D01*
X62818768Y-192364757D02*
X62747340Y-192436185D01*
X62747340Y-192436185D02*
X62604482Y-192650471D01*
X62604482Y-192650471D02*
X62533054Y-192936185D01*
X62533054Y-192936185D02*
X62533054Y-193507614D01*
X62533054Y-193507614D02*
X62604482Y-193650471D01*
X62604482Y-193650471D02*
X62675911Y-193721900D01*
X62675911Y-193721900D02*
X62818768Y-193793328D01*
X62818768Y-193793328D02*
X63104482Y-193793328D01*
X63104482Y-193793328D02*
X63247340Y-193721900D01*
X63247340Y-193721900D02*
X63318768Y-193650471D01*
X63318768Y-193650471D02*
X63390197Y-193507614D01*
X63390197Y-193507614D02*
X63390197Y-193150471D01*
X63390197Y-193150471D02*
X63318768Y-193007614D01*
X63318768Y-193007614D02*
X63247340Y-192936185D01*
X63247340Y-192936185D02*
X63104482Y-192864757D01*
X63104482Y-192864757D02*
X62818768Y-192864757D01*
X62818768Y-192864757D02*
X62675911Y-192936185D01*
X62675911Y-192936185D02*
X62604482Y-193007614D01*
X62604482Y-193007614D02*
X62533054Y-193150471D01*
X64033053Y-193221900D02*
X65175911Y-193221900D01*
X66175911Y-192293328D02*
X66318768Y-192293328D01*
X66318768Y-192293328D02*
X66461625Y-192364757D01*
X66461625Y-192364757D02*
X66533054Y-192436185D01*
X66533054Y-192436185D02*
X66604482Y-192579042D01*
X66604482Y-192579042D02*
X66675911Y-192864757D01*
X66675911Y-192864757D02*
X66675911Y-193221900D01*
X66675911Y-193221900D02*
X66604482Y-193507614D01*
X66604482Y-193507614D02*
X66533054Y-193650471D01*
X66533054Y-193650471D02*
X66461625Y-193721900D01*
X66461625Y-193721900D02*
X66318768Y-193793328D01*
X66318768Y-193793328D02*
X66175911Y-193793328D01*
X66175911Y-193793328D02*
X66033054Y-193721900D01*
X66033054Y-193721900D02*
X65961625Y-193650471D01*
X65961625Y-193650471D02*
X65890196Y-193507614D01*
X65890196Y-193507614D02*
X65818768Y-193221900D01*
X65818768Y-193221900D02*
X65818768Y-192864757D01*
X65818768Y-192864757D02*
X65890196Y-192579042D01*
X65890196Y-192579042D02*
X65961625Y-192436185D01*
X65961625Y-192436185D02*
X66033054Y-192364757D01*
X66033054Y-192364757D02*
X66175911Y-192293328D01*
X67961625Y-192293328D02*
X67675910Y-192293328D01*
X67675910Y-192293328D02*
X67533053Y-192364757D01*
X67533053Y-192364757D02*
X67461625Y-192436185D01*
X67461625Y-192436185D02*
X67318767Y-192650471D01*
X67318767Y-192650471D02*
X67247339Y-192936185D01*
X67247339Y-192936185D02*
X67247339Y-193507614D01*
X67247339Y-193507614D02*
X67318767Y-193650471D01*
X67318767Y-193650471D02*
X67390196Y-193721900D01*
X67390196Y-193721900D02*
X67533053Y-193793328D01*
X67533053Y-193793328D02*
X67818767Y-193793328D01*
X67818767Y-193793328D02*
X67961625Y-193721900D01*
X67961625Y-193721900D02*
X68033053Y-193650471D01*
X68033053Y-193650471D02*
X68104482Y-193507614D01*
X68104482Y-193507614D02*
X68104482Y-193150471D01*
X68104482Y-193150471D02*
X68033053Y-193007614D01*
X68033053Y-193007614D02*
X67961625Y-192936185D01*
X67961625Y-192936185D02*
X67818767Y-192864757D01*
X67818767Y-192864757D02*
X67533053Y-192864757D01*
X67533053Y-192864757D02*
X67390196Y-192936185D01*
X67390196Y-192936185D02*
X67318767Y-193007614D01*
X67318767Y-193007614D02*
X67247339Y-193150471D01*
X68747338Y-193221900D02*
X69890196Y-193221900D01*
X70890196Y-192293328D02*
X71033053Y-192293328D01*
X71033053Y-192293328D02*
X71175910Y-192364757D01*
X71175910Y-192364757D02*
X71247339Y-192436185D01*
X71247339Y-192436185D02*
X71318767Y-192579042D01*
X71318767Y-192579042D02*
X71390196Y-192864757D01*
X71390196Y-192864757D02*
X71390196Y-193221900D01*
X71390196Y-193221900D02*
X71318767Y-193507614D01*
X71318767Y-193507614D02*
X71247339Y-193650471D01*
X71247339Y-193650471D02*
X71175910Y-193721900D01*
X71175910Y-193721900D02*
X71033053Y-193793328D01*
X71033053Y-193793328D02*
X70890196Y-193793328D01*
X70890196Y-193793328D02*
X70747339Y-193721900D01*
X70747339Y-193721900D02*
X70675910Y-193650471D01*
X70675910Y-193650471D02*
X70604481Y-193507614D01*
X70604481Y-193507614D02*
X70533053Y-193221900D01*
X70533053Y-193221900D02*
X70533053Y-192864757D01*
X70533053Y-192864757D02*
X70604481Y-192579042D01*
X70604481Y-192579042D02*
X70675910Y-192436185D01*
X70675910Y-192436185D02*
X70747339Y-192364757D01*
X70747339Y-192364757D02*
X70890196Y-192293328D01*
X72104481Y-193793328D02*
X72390195Y-193793328D01*
X72390195Y-193793328D02*
X72533052Y-193721900D01*
X72533052Y-193721900D02*
X72604481Y-193650471D01*
X72604481Y-193650471D02*
X72747338Y-193436185D01*
X72747338Y-193436185D02*
X72818767Y-193150471D01*
X72818767Y-193150471D02*
X72818767Y-192579042D01*
X72818767Y-192579042D02*
X72747338Y-192436185D01*
X72747338Y-192436185D02*
X72675910Y-192364757D01*
X72675910Y-192364757D02*
X72533052Y-192293328D01*
X72533052Y-192293328D02*
X72247338Y-192293328D01*
X72247338Y-192293328D02*
X72104481Y-192364757D01*
X72104481Y-192364757D02*
X72033052Y-192436185D01*
X72033052Y-192436185D02*
X71961624Y-192579042D01*
X71961624Y-192579042D02*
X71961624Y-192936185D01*
X71961624Y-192936185D02*
X72033052Y-193079042D01*
X72033052Y-193079042D02*
X72104481Y-193150471D01*
X72104481Y-193150471D02*
X72247338Y-193221900D01*
X72247338Y-193221900D02*
X72533052Y-193221900D01*
X72533052Y-193221900D02*
X72675910Y-193150471D01*
X72675910Y-193150471D02*
X72747338Y-193079042D01*
X72747338Y-193079042D02*
X72818767Y-192936185D01*
X28005800Y-194507200D02*
X136005800Y-194507200D01*
X29461626Y-196593328D02*
X29461626Y-195093328D01*
X30318769Y-196593328D02*
X29675912Y-195736185D01*
X30318769Y-195093328D02*
X29461626Y-195950471D01*
X30961626Y-196593328D02*
X30961626Y-195593328D01*
X30961626Y-195093328D02*
X30890198Y-195164757D01*
X30890198Y-195164757D02*
X30961626Y-195236185D01*
X30961626Y-195236185D02*
X31033055Y-195164757D01*
X31033055Y-195164757D02*
X30961626Y-195093328D01*
X30961626Y-195093328D02*
X30961626Y-195236185D01*
X32533055Y-196450471D02*
X32461627Y-196521900D01*
X32461627Y-196521900D02*
X32247341Y-196593328D01*
X32247341Y-196593328D02*
X32104484Y-196593328D01*
X32104484Y-196593328D02*
X31890198Y-196521900D01*
X31890198Y-196521900D02*
X31747341Y-196379042D01*
X31747341Y-196379042D02*
X31675912Y-196236185D01*
X31675912Y-196236185D02*
X31604484Y-195950471D01*
X31604484Y-195950471D02*
X31604484Y-195736185D01*
X31604484Y-195736185D02*
X31675912Y-195450471D01*
X31675912Y-195450471D02*
X31747341Y-195307614D01*
X31747341Y-195307614D02*
X31890198Y-195164757D01*
X31890198Y-195164757D02*
X32104484Y-195093328D01*
X32104484Y-195093328D02*
X32247341Y-195093328D01*
X32247341Y-195093328D02*
X32461627Y-195164757D01*
X32461627Y-195164757D02*
X32533055Y-195236185D01*
X33818770Y-196593328D02*
X33818770Y-195807614D01*
X33818770Y-195807614D02*
X33747341Y-195664757D01*
X33747341Y-195664757D02*
X33604484Y-195593328D01*
X33604484Y-195593328D02*
X33318770Y-195593328D01*
X33318770Y-195593328D02*
X33175912Y-195664757D01*
X33818770Y-196521900D02*
X33675912Y-196593328D01*
X33675912Y-196593328D02*
X33318770Y-196593328D01*
X33318770Y-196593328D02*
X33175912Y-196521900D01*
X33175912Y-196521900D02*
X33104484Y-196379042D01*
X33104484Y-196379042D02*
X33104484Y-196236185D01*
X33104484Y-196236185D02*
X33175912Y-196093328D01*
X33175912Y-196093328D02*
X33318770Y-196021900D01*
X33318770Y-196021900D02*
X33675912Y-196021900D01*
X33675912Y-196021900D02*
X33818770Y-195950471D01*
X35175913Y-196593328D02*
X35175913Y-195093328D01*
X35175913Y-196521900D02*
X35033055Y-196593328D01*
X35033055Y-196593328D02*
X34747341Y-196593328D01*
X34747341Y-196593328D02*
X34604484Y-196521900D01*
X34604484Y-196521900D02*
X34533055Y-196450471D01*
X34533055Y-196450471D02*
X34461627Y-196307614D01*
X34461627Y-196307614D02*
X34461627Y-195879042D01*
X34461627Y-195879042D02*
X34533055Y-195736185D01*
X34533055Y-195736185D02*
X34604484Y-195664757D01*
X34604484Y-195664757D02*
X34747341Y-195593328D01*
X34747341Y-195593328D02*
X35033055Y-195593328D01*
X35033055Y-195593328D02*
X35175913Y-195664757D01*
X37033055Y-195807614D02*
X37533055Y-195807614D01*
X37747341Y-196593328D02*
X37033055Y-196593328D01*
X37033055Y-196593328D02*
X37033055Y-195093328D01*
X37033055Y-195093328D02*
X37747341Y-195093328D01*
X38390198Y-196450471D02*
X38461627Y-196521900D01*
X38461627Y-196521900D02*
X38390198Y-196593328D01*
X38390198Y-196593328D02*
X38318770Y-196521900D01*
X38318770Y-196521900D02*
X38390198Y-196450471D01*
X38390198Y-196450471D02*
X38390198Y-196593328D01*
X39104484Y-196593328D02*
X39104484Y-195093328D01*
X39104484Y-195093328D02*
X39461627Y-195093328D01*
X39461627Y-195093328D02*
X39675913Y-195164757D01*
X39675913Y-195164757D02*
X39818770Y-195307614D01*
X39818770Y-195307614D02*
X39890199Y-195450471D01*
X39890199Y-195450471D02*
X39961627Y-195736185D01*
X39961627Y-195736185D02*
X39961627Y-195950471D01*
X39961627Y-195950471D02*
X39890199Y-196236185D01*
X39890199Y-196236185D02*
X39818770Y-196379042D01*
X39818770Y-196379042D02*
X39675913Y-196521900D01*
X39675913Y-196521900D02*
X39461627Y-196593328D01*
X39461627Y-196593328D02*
X39104484Y-196593328D01*
X40604484Y-196450471D02*
X40675913Y-196521900D01*
X40675913Y-196521900D02*
X40604484Y-196593328D01*
X40604484Y-196593328D02*
X40533056Y-196521900D01*
X40533056Y-196521900D02*
X40604484Y-196450471D01*
X40604484Y-196450471D02*
X40604484Y-196593328D01*
X41247342Y-196164757D02*
X41961628Y-196164757D01*
X41104485Y-196593328D02*
X41604485Y-195093328D01*
X41604485Y-195093328D02*
X42104485Y-196593328D01*
X42604484Y-196450471D02*
X42675913Y-196521900D01*
X42675913Y-196521900D02*
X42604484Y-196593328D01*
X42604484Y-196593328D02*
X42533056Y-196521900D01*
X42533056Y-196521900D02*
X42604484Y-196450471D01*
X42604484Y-196450471D02*
X42604484Y-196593328D01*
X45247342Y-196593328D02*
X44390199Y-196593328D01*
X44818770Y-196593328D02*
X44818770Y-195093328D01*
X44818770Y-195093328D02*
X44675913Y-195307614D01*
X44675913Y-195307614D02*
X44533056Y-195450471D01*
X44533056Y-195450471D02*
X44390199Y-195521900D01*
X46175913Y-195093328D02*
X46318770Y-195093328D01*
X46318770Y-195093328D02*
X46461627Y-195164757D01*
X46461627Y-195164757D02*
X46533056Y-195236185D01*
X46533056Y-195236185D02*
X46604484Y-195379042D01*
X46604484Y-195379042D02*
X46675913Y-195664757D01*
X46675913Y-195664757D02*
X46675913Y-196021900D01*
X46675913Y-196021900D02*
X46604484Y-196307614D01*
X46604484Y-196307614D02*
X46533056Y-196450471D01*
X46533056Y-196450471D02*
X46461627Y-196521900D01*
X46461627Y-196521900D02*
X46318770Y-196593328D01*
X46318770Y-196593328D02*
X46175913Y-196593328D01*
X46175913Y-196593328D02*
X46033056Y-196521900D01*
X46033056Y-196521900D02*
X45961627Y-196450471D01*
X45961627Y-196450471D02*
X45890198Y-196307614D01*
X45890198Y-196307614D02*
X45818770Y-196021900D01*
X45818770Y-196021900D02*
X45818770Y-195664757D01*
X45818770Y-195664757D02*
X45890198Y-195379042D01*
X45890198Y-195379042D02*
X45961627Y-195236185D01*
X45961627Y-195236185D02*
X46033056Y-195164757D01*
X46033056Y-195164757D02*
X46175913Y-195093328D01*
X47318769Y-196450471D02*
X47390198Y-196521900D01*
X47390198Y-196521900D02*
X47318769Y-196593328D01*
X47318769Y-196593328D02*
X47247341Y-196521900D01*
X47247341Y-196521900D02*
X47318769Y-196450471D01*
X47318769Y-196450471D02*
X47318769Y-196593328D01*
X48318770Y-195093328D02*
X48461627Y-195093328D01*
X48461627Y-195093328D02*
X48604484Y-195164757D01*
X48604484Y-195164757D02*
X48675913Y-195236185D01*
X48675913Y-195236185D02*
X48747341Y-195379042D01*
X48747341Y-195379042D02*
X48818770Y-195664757D01*
X48818770Y-195664757D02*
X48818770Y-196021900D01*
X48818770Y-196021900D02*
X48747341Y-196307614D01*
X48747341Y-196307614D02*
X48675913Y-196450471D01*
X48675913Y-196450471D02*
X48604484Y-196521900D01*
X48604484Y-196521900D02*
X48461627Y-196593328D01*
X48461627Y-196593328D02*
X48318770Y-196593328D01*
X48318770Y-196593328D02*
X48175913Y-196521900D01*
X48175913Y-196521900D02*
X48104484Y-196450471D01*
X48104484Y-196450471D02*
X48033055Y-196307614D01*
X48033055Y-196307614D02*
X47961627Y-196021900D01*
X47961627Y-196021900D02*
X47961627Y-195664757D01*
X47961627Y-195664757D02*
X48033055Y-195379042D01*
X48033055Y-195379042D02*
X48104484Y-195236185D01*
X48104484Y-195236185D02*
X48175913Y-195164757D01*
X48175913Y-195164757D02*
X48318770Y-195093328D01*
X49461626Y-196450471D02*
X49533055Y-196521900D01*
X49533055Y-196521900D02*
X49461626Y-196593328D01*
X49461626Y-196593328D02*
X49390198Y-196521900D01*
X49390198Y-196521900D02*
X49461626Y-196450471D01*
X49461626Y-196450471D02*
X49461626Y-196593328D01*
X50461627Y-195093328D02*
X50604484Y-195093328D01*
X50604484Y-195093328D02*
X50747341Y-195164757D01*
X50747341Y-195164757D02*
X50818770Y-195236185D01*
X50818770Y-195236185D02*
X50890198Y-195379042D01*
X50890198Y-195379042D02*
X50961627Y-195664757D01*
X50961627Y-195664757D02*
X50961627Y-196021900D01*
X50961627Y-196021900D02*
X50890198Y-196307614D01*
X50890198Y-196307614D02*
X50818770Y-196450471D01*
X50818770Y-196450471D02*
X50747341Y-196521900D01*
X50747341Y-196521900D02*
X50604484Y-196593328D01*
X50604484Y-196593328D02*
X50461627Y-196593328D01*
X50461627Y-196593328D02*
X50318770Y-196521900D01*
X50318770Y-196521900D02*
X50247341Y-196450471D01*
X50247341Y-196450471D02*
X50175912Y-196307614D01*
X50175912Y-196307614D02*
X50104484Y-196021900D01*
X50104484Y-196021900D02*
X50104484Y-195664757D01*
X50104484Y-195664757D02*
X50175912Y-195379042D01*
X50175912Y-195379042D02*
X50247341Y-195236185D01*
X50247341Y-195236185D02*
X50318770Y-195164757D01*
X50318770Y-195164757D02*
X50461627Y-195093328D01*
X28005800Y-191507200D02*
X136005800Y-191507200D01*
D11*
X115417453Y-193785528D02*
X114917453Y-193071242D01*
X114560310Y-193785528D02*
X114560310Y-192285528D01*
X114560310Y-192285528D02*
X115131739Y-192285528D01*
X115131739Y-192285528D02*
X115274596Y-192356957D01*
X115274596Y-192356957D02*
X115346025Y-192428385D01*
X115346025Y-192428385D02*
X115417453Y-192571242D01*
X115417453Y-192571242D02*
X115417453Y-192785528D01*
X115417453Y-192785528D02*
X115346025Y-192928385D01*
X115346025Y-192928385D02*
X115274596Y-192999814D01*
X115274596Y-192999814D02*
X115131739Y-193071242D01*
X115131739Y-193071242D02*
X114560310Y-193071242D01*
X116631739Y-193714100D02*
X116488882Y-193785528D01*
X116488882Y-193785528D02*
X116203168Y-193785528D01*
X116203168Y-193785528D02*
X116060310Y-193714100D01*
X116060310Y-193714100D02*
X115988882Y-193571242D01*
X115988882Y-193571242D02*
X115988882Y-192999814D01*
X115988882Y-192999814D02*
X116060310Y-192856957D01*
X116060310Y-192856957D02*
X116203168Y-192785528D01*
X116203168Y-192785528D02*
X116488882Y-192785528D01*
X116488882Y-192785528D02*
X116631739Y-192856957D01*
X116631739Y-192856957D02*
X116703168Y-192999814D01*
X116703168Y-192999814D02*
X116703168Y-193142671D01*
X116703168Y-193142671D02*
X115988882Y-193285528D01*
X117203167Y-192785528D02*
X117560310Y-193785528D01*
X117560310Y-193785528D02*
X117917453Y-192785528D01*
X118488881Y-193642671D02*
X118560310Y-193714100D01*
X118560310Y-193714100D02*
X118488881Y-193785528D01*
X118488881Y-193785528D02*
X118417453Y-193714100D01*
X118417453Y-193714100D02*
X118488881Y-193642671D01*
X118488881Y-193642671D02*
X118488881Y-193785528D01*
X118488881Y-192856957D02*
X118560310Y-192928385D01*
X118560310Y-192928385D02*
X118488881Y-192999814D01*
X118488881Y-192999814D02*
X118417453Y-192928385D01*
X118417453Y-192928385D02*
X118488881Y-192856957D01*
X118488881Y-192856957D02*
X118488881Y-192999814D01*
D10*
X29390198Y-193721900D02*
X29604484Y-193793328D01*
X29604484Y-193793328D02*
X29961626Y-193793328D01*
X29961626Y-193793328D02*
X30104484Y-193721900D01*
X30104484Y-193721900D02*
X30175912Y-193650471D01*
X30175912Y-193650471D02*
X30247341Y-193507614D01*
X30247341Y-193507614D02*
X30247341Y-193364757D01*
X30247341Y-193364757D02*
X30175912Y-193221900D01*
X30175912Y-193221900D02*
X30104484Y-193150471D01*
X30104484Y-193150471D02*
X29961626Y-193079042D01*
X29961626Y-193079042D02*
X29675912Y-193007614D01*
X29675912Y-193007614D02*
X29533055Y-192936185D01*
X29533055Y-192936185D02*
X29461626Y-192864757D01*
X29461626Y-192864757D02*
X29390198Y-192721900D01*
X29390198Y-192721900D02*
X29390198Y-192579042D01*
X29390198Y-192579042D02*
X29461626Y-192436185D01*
X29461626Y-192436185D02*
X29533055Y-192364757D01*
X29533055Y-192364757D02*
X29675912Y-192293328D01*
X29675912Y-192293328D02*
X30033055Y-192293328D01*
X30033055Y-192293328D02*
X30247341Y-192364757D01*
X30890197Y-193793328D02*
X30890197Y-192793328D01*
X30890197Y-192293328D02*
X30818769Y-192364757D01*
X30818769Y-192364757D02*
X30890197Y-192436185D01*
X30890197Y-192436185D02*
X30961626Y-192364757D01*
X30961626Y-192364757D02*
X30890197Y-192293328D01*
X30890197Y-192293328D02*
X30890197Y-192436185D01*
X31461626Y-192793328D02*
X32247341Y-192793328D01*
X32247341Y-192793328D02*
X31461626Y-193793328D01*
X31461626Y-193793328D02*
X32247341Y-193793328D01*
X33390198Y-193721900D02*
X33247341Y-193793328D01*
X33247341Y-193793328D02*
X32961627Y-193793328D01*
X32961627Y-193793328D02*
X32818769Y-193721900D01*
X32818769Y-193721900D02*
X32747341Y-193579042D01*
X32747341Y-193579042D02*
X32747341Y-193007614D01*
X32747341Y-193007614D02*
X32818769Y-192864757D01*
X32818769Y-192864757D02*
X32961627Y-192793328D01*
X32961627Y-192793328D02*
X33247341Y-192793328D01*
X33247341Y-192793328D02*
X33390198Y-192864757D01*
X33390198Y-192864757D02*
X33461627Y-193007614D01*
X33461627Y-193007614D02*
X33461627Y-193150471D01*
X33461627Y-193150471D02*
X32747341Y-193293328D01*
X34104483Y-193650471D02*
X34175912Y-193721900D01*
X34175912Y-193721900D02*
X34104483Y-193793328D01*
X34104483Y-193793328D02*
X34033055Y-193721900D01*
X34033055Y-193721900D02*
X34104483Y-193650471D01*
X34104483Y-193650471D02*
X34104483Y-193793328D01*
X34104483Y-192864757D02*
X34175912Y-192936185D01*
X34175912Y-192936185D02*
X34104483Y-193007614D01*
X34104483Y-193007614D02*
X34033055Y-192936185D01*
X34033055Y-192936185D02*
X34104483Y-192864757D01*
X34104483Y-192864757D02*
X34104483Y-193007614D01*
X35890198Y-193364757D02*
X36604484Y-193364757D01*
X35747341Y-193793328D02*
X36247341Y-192293328D01*
X36247341Y-192293328D02*
X36747341Y-193793328D01*
X37961626Y-192293328D02*
X37247340Y-192293328D01*
X37247340Y-192293328D02*
X37175912Y-193007614D01*
X37175912Y-193007614D02*
X37247340Y-192936185D01*
X37247340Y-192936185D02*
X37390198Y-192864757D01*
X37390198Y-192864757D02*
X37747340Y-192864757D01*
X37747340Y-192864757D02*
X37890198Y-192936185D01*
X37890198Y-192936185D02*
X37961626Y-193007614D01*
X37961626Y-193007614D02*
X38033055Y-193150471D01*
X38033055Y-193150471D02*
X38033055Y-193507614D01*
X38033055Y-193507614D02*
X37961626Y-193650471D01*
X37961626Y-193650471D02*
X37890198Y-193721900D01*
X37890198Y-193721900D02*
X37747340Y-193793328D01*
X37747340Y-193793328D02*
X37390198Y-193793328D01*
X37390198Y-193793328D02*
X37247340Y-193721900D01*
X37247340Y-193721900D02*
X37175912Y-193650471D01*
X114461626Y-196593328D02*
X114461626Y-195093328D01*
X115818770Y-196593328D02*
X115818770Y-195093328D01*
X115818770Y-196521900D02*
X115675912Y-196593328D01*
X115675912Y-196593328D02*
X115390198Y-196593328D01*
X115390198Y-196593328D02*
X115247341Y-196521900D01*
X115247341Y-196521900D02*
X115175912Y-196450471D01*
X115175912Y-196450471D02*
X115104484Y-196307614D01*
X115104484Y-196307614D02*
X115104484Y-195879042D01*
X115104484Y-195879042D02*
X115175912Y-195736185D01*
X115175912Y-195736185D02*
X115247341Y-195664757D01*
X115247341Y-195664757D02*
X115390198Y-195593328D01*
X115390198Y-195593328D02*
X115675912Y-195593328D01*
X115675912Y-195593328D02*
X115818770Y-195664757D01*
X116533055Y-196450471D02*
X116604484Y-196521900D01*
X116604484Y-196521900D02*
X116533055Y-196593328D01*
X116533055Y-196593328D02*
X116461627Y-196521900D01*
X116461627Y-196521900D02*
X116533055Y-196450471D01*
X116533055Y-196450471D02*
X116533055Y-196593328D01*
X116533055Y-195664757D02*
X116604484Y-195736185D01*
X116604484Y-195736185D02*
X116533055Y-195807614D01*
X116533055Y-195807614D02*
X116461627Y-195736185D01*
X116461627Y-195736185D02*
X116533055Y-195664757D01*
X116533055Y-195664757D02*
X116533055Y-195807614D01*
X118604484Y-195736185D02*
X118461627Y-195664757D01*
X118461627Y-195664757D02*
X118390198Y-195593328D01*
X118390198Y-195593328D02*
X118318770Y-195450471D01*
X118318770Y-195450471D02*
X118318770Y-195379042D01*
X118318770Y-195379042D02*
X118390198Y-195236185D01*
X118390198Y-195236185D02*
X118461627Y-195164757D01*
X118461627Y-195164757D02*
X118604484Y-195093328D01*
X118604484Y-195093328D02*
X118890198Y-195093328D01*
X118890198Y-195093328D02*
X119033056Y-195164757D01*
X119033056Y-195164757D02*
X119104484Y-195236185D01*
X119104484Y-195236185D02*
X119175913Y-195379042D01*
X119175913Y-195379042D02*
X119175913Y-195450471D01*
X119175913Y-195450471D02*
X119104484Y-195593328D01*
X119104484Y-195593328D02*
X119033056Y-195664757D01*
X119033056Y-195664757D02*
X118890198Y-195736185D01*
X118890198Y-195736185D02*
X118604484Y-195736185D01*
X118604484Y-195736185D02*
X118461627Y-195807614D01*
X118461627Y-195807614D02*
X118390198Y-195879042D01*
X118390198Y-195879042D02*
X118318770Y-196021900D01*
X118318770Y-196021900D02*
X118318770Y-196307614D01*
X118318770Y-196307614D02*
X118390198Y-196450471D01*
X118390198Y-196450471D02*
X118461627Y-196521900D01*
X118461627Y-196521900D02*
X118604484Y-196593328D01*
X118604484Y-196593328D02*
X118890198Y-196593328D01*
X118890198Y-196593328D02*
X119033056Y-196521900D01*
X119033056Y-196521900D02*
X119104484Y-196450471D01*
X119104484Y-196450471D02*
X119175913Y-196307614D01*
X119175913Y-196307614D02*
X119175913Y-196021900D01*
X119175913Y-196021900D02*
X119104484Y-195879042D01*
X119104484Y-195879042D02*
X119033056Y-195807614D01*
X119033056Y-195807614D02*
X118890198Y-195736185D01*
X120890198Y-195021900D02*
X119604484Y-196950471D01*
X121461627Y-196593328D02*
X121747341Y-196593328D01*
X121747341Y-196593328D02*
X121890198Y-196521900D01*
X121890198Y-196521900D02*
X121961627Y-196450471D01*
X121961627Y-196450471D02*
X122104484Y-196236185D01*
X122104484Y-196236185D02*
X122175913Y-195950471D01*
X122175913Y-195950471D02*
X122175913Y-195379042D01*
X122175913Y-195379042D02*
X122104484Y-195236185D01*
X122104484Y-195236185D02*
X122033056Y-195164757D01*
X122033056Y-195164757D02*
X121890198Y-195093328D01*
X121890198Y-195093328D02*
X121604484Y-195093328D01*
X121604484Y-195093328D02*
X121461627Y-195164757D01*
X121461627Y-195164757D02*
X121390198Y-195236185D01*
X121390198Y-195236185D02*
X121318770Y-195379042D01*
X121318770Y-195379042D02*
X121318770Y-195736185D01*
X121318770Y-195736185D02*
X121390198Y-195879042D01*
X121390198Y-195879042D02*
X121461627Y-195950471D01*
X121461627Y-195950471D02*
X121604484Y-196021900D01*
X121604484Y-196021900D02*
X121890198Y-196021900D01*
X121890198Y-196021900D02*
X122033056Y-195950471D01*
X122033056Y-195950471D02*
X122104484Y-195879042D01*
X122104484Y-195879042D02*
X122175913Y-195736185D01*
X28005800Y-187507200D02*
X136005800Y-187507200D01*
D12*
X29697528Y-188211638D02*
X30840385Y-188211638D01*
X30018957Y-190211638D02*
X30268957Y-188211638D01*
X31257052Y-190211638D02*
X31423719Y-188878304D01*
X31507052Y-188211638D02*
X31399909Y-188306876D01*
X31399909Y-188306876D02*
X31483243Y-188402114D01*
X31483243Y-188402114D02*
X31590386Y-188306876D01*
X31590386Y-188306876D02*
X31507052Y-188211638D01*
X31507052Y-188211638D02*
X31483243Y-188402114D01*
X32090386Y-188878304D02*
X32852290Y-188878304D01*
X32459433Y-188211638D02*
X32245148Y-189925923D01*
X32245148Y-189925923D02*
X32316576Y-190116400D01*
X32316576Y-190116400D02*
X32495148Y-190211638D01*
X32495148Y-190211638D02*
X32685624Y-190211638D01*
X33638005Y-190211638D02*
X33459433Y-190116400D01*
X33459433Y-190116400D02*
X33388005Y-189925923D01*
X33388005Y-189925923D02*
X33602290Y-188211638D01*
X35173719Y-190116400D02*
X34971338Y-190211638D01*
X34971338Y-190211638D02*
X34590385Y-190211638D01*
X34590385Y-190211638D02*
X34411814Y-190116400D01*
X34411814Y-190116400D02*
X34340385Y-189925923D01*
X34340385Y-189925923D02*
X34435624Y-189164019D01*
X34435624Y-189164019D02*
X34554671Y-188973542D01*
X34554671Y-188973542D02*
X34757052Y-188878304D01*
X34757052Y-188878304D02*
X35138004Y-188878304D01*
X35138004Y-188878304D02*
X35316576Y-188973542D01*
X35316576Y-188973542D02*
X35388004Y-189164019D01*
X35388004Y-189164019D02*
X35364195Y-189354495D01*
X35364195Y-189354495D02*
X34388004Y-189544971D01*
X36138005Y-190021161D02*
X36221338Y-190116400D01*
X36221338Y-190116400D02*
X36114195Y-190211638D01*
X36114195Y-190211638D02*
X36030862Y-190116400D01*
X36030862Y-190116400D02*
X36138005Y-190021161D01*
X36138005Y-190021161D02*
X36114195Y-190211638D01*
X36268957Y-188973542D02*
X36352290Y-189068780D01*
X36352290Y-189068780D02*
X36245148Y-189164019D01*
X36245148Y-189164019D02*
X36161814Y-189068780D01*
X36161814Y-189068780D02*
X36268957Y-188973542D01*
X36268957Y-188973542D02*
X36245148Y-189164019D01*
X38554672Y-188211638D02*
X39697529Y-188211638D01*
X38876101Y-190211638D02*
X39126101Y-188211638D01*
X40399911Y-190211638D02*
X40221339Y-190116400D01*
X40221339Y-190116400D02*
X40138006Y-190021161D01*
X40138006Y-190021161D02*
X40066577Y-189830685D01*
X40066577Y-189830685D02*
X40138006Y-189259257D01*
X40138006Y-189259257D02*
X40257053Y-189068780D01*
X40257053Y-189068780D02*
X40364196Y-188973542D01*
X40364196Y-188973542D02*
X40566577Y-188878304D01*
X40566577Y-188878304D02*
X40852291Y-188878304D01*
X40852291Y-188878304D02*
X41030863Y-188973542D01*
X41030863Y-188973542D02*
X41114196Y-189068780D01*
X41114196Y-189068780D02*
X41185625Y-189259257D01*
X41185625Y-189259257D02*
X41114196Y-189830685D01*
X41114196Y-189830685D02*
X40995149Y-190021161D01*
X40995149Y-190021161D02*
X40888006Y-190116400D01*
X40888006Y-190116400D02*
X40685625Y-190211638D01*
X40685625Y-190211638D02*
X40399911Y-190211638D01*
X42090387Y-188878304D02*
X41840387Y-190878304D01*
X42078482Y-188973542D02*
X42280863Y-188878304D01*
X42280863Y-188878304D02*
X42661815Y-188878304D01*
X42661815Y-188878304D02*
X42840387Y-188973542D01*
X42840387Y-188973542D02*
X42923720Y-189068780D01*
X42923720Y-189068780D02*
X42995149Y-189259257D01*
X42995149Y-189259257D02*
X42923720Y-189830685D01*
X42923720Y-189830685D02*
X42804673Y-190021161D01*
X42804673Y-190021161D02*
X42697530Y-190116400D01*
X42697530Y-190116400D02*
X42495149Y-190211638D01*
X42495149Y-190211638D02*
X42114196Y-190211638D01*
X42114196Y-190211638D02*
X41935625Y-190116400D01*
X46209435Y-190211638D02*
X45257054Y-190211638D01*
X45257054Y-190211638D02*
X45507054Y-188211638D01*
X47733245Y-190211638D02*
X47864197Y-189164019D01*
X47864197Y-189164019D02*
X47792769Y-188973542D01*
X47792769Y-188973542D02*
X47614197Y-188878304D01*
X47614197Y-188878304D02*
X47233245Y-188878304D01*
X47233245Y-188878304D02*
X47030864Y-188973542D01*
X47745150Y-190116400D02*
X47542769Y-190211638D01*
X47542769Y-190211638D02*
X47066578Y-190211638D01*
X47066578Y-190211638D02*
X46888007Y-190116400D01*
X46888007Y-190116400D02*
X46816578Y-189925923D01*
X46816578Y-189925923D02*
X46840388Y-189735447D01*
X46840388Y-189735447D02*
X46959436Y-189544971D01*
X46959436Y-189544971D02*
X47161817Y-189449733D01*
X47161817Y-189449733D02*
X47638007Y-189449733D01*
X47638007Y-189449733D02*
X47840388Y-189354495D01*
X48661817Y-188878304D02*
X48971341Y-190211638D01*
X49614198Y-188878304D02*
X48971341Y-190211638D01*
X48971341Y-190211638D02*
X48721341Y-190687828D01*
X48721341Y-190687828D02*
X48614198Y-190783066D01*
X48614198Y-190783066D02*
X48411817Y-190878304D01*
X50983246Y-190116400D02*
X50780865Y-190211638D01*
X50780865Y-190211638D02*
X50399912Y-190211638D01*
X50399912Y-190211638D02*
X50221341Y-190116400D01*
X50221341Y-190116400D02*
X50149912Y-189925923D01*
X50149912Y-189925923D02*
X50245151Y-189164019D01*
X50245151Y-189164019D02*
X50364198Y-188973542D01*
X50364198Y-188973542D02*
X50566579Y-188878304D01*
X50566579Y-188878304D02*
X50947531Y-188878304D01*
X50947531Y-188878304D02*
X51126103Y-188973542D01*
X51126103Y-188973542D02*
X51197531Y-189164019D01*
X51197531Y-189164019D02*
X51173722Y-189354495D01*
X51173722Y-189354495D02*
X50197531Y-189544971D01*
X51923722Y-190211638D02*
X52090389Y-188878304D01*
X52042770Y-189259257D02*
X52161817Y-189068780D01*
X52161817Y-189068780D02*
X52268960Y-188973542D01*
X52268960Y-188973542D02*
X52471341Y-188878304D01*
X52471341Y-188878304D02*
X52661817Y-188878304D01*
X56376103Y-188116400D02*
X54340389Y-190687828D01*
X58304675Y-190211638D02*
X58554675Y-188211638D01*
X58554675Y-188211638D02*
X59316580Y-188211638D01*
X59316580Y-188211638D02*
X59495151Y-188306876D01*
X59495151Y-188306876D02*
X59578485Y-188402114D01*
X59578485Y-188402114D02*
X59649913Y-188592590D01*
X59649913Y-188592590D02*
X59614199Y-188878304D01*
X59614199Y-188878304D02*
X59495151Y-189068780D01*
X59495151Y-189068780D02*
X59388009Y-189164019D01*
X59388009Y-189164019D02*
X59185628Y-189259257D01*
X59185628Y-189259257D02*
X58423723Y-189259257D01*
X60304675Y-190211638D02*
X60471342Y-188878304D01*
X60423723Y-189259257D02*
X60542770Y-189068780D01*
X60542770Y-189068780D02*
X60649913Y-188973542D01*
X60649913Y-188973542D02*
X60852294Y-188878304D01*
X60852294Y-188878304D02*
X61042770Y-188878304D01*
X61828485Y-190211638D02*
X61649913Y-190116400D01*
X61649913Y-190116400D02*
X61566580Y-190021161D01*
X61566580Y-190021161D02*
X61495151Y-189830685D01*
X61495151Y-189830685D02*
X61566580Y-189259257D01*
X61566580Y-189259257D02*
X61685627Y-189068780D01*
X61685627Y-189068780D02*
X61792770Y-188973542D01*
X61792770Y-188973542D02*
X61995151Y-188878304D01*
X61995151Y-188878304D02*
X62280865Y-188878304D01*
X62280865Y-188878304D02*
X62459437Y-188973542D01*
X62459437Y-188973542D02*
X62542770Y-189068780D01*
X62542770Y-189068780D02*
X62614199Y-189259257D01*
X62614199Y-189259257D02*
X62542770Y-189830685D01*
X62542770Y-189830685D02*
X62423723Y-190021161D01*
X62423723Y-190021161D02*
X62316580Y-190116400D01*
X62316580Y-190116400D02*
X62114199Y-190211638D01*
X62114199Y-190211638D02*
X61828485Y-190211638D01*
X63233247Y-188878304D02*
X63995151Y-188878304D01*
X63602294Y-188211638D02*
X63388009Y-189925923D01*
X63388009Y-189925923D02*
X63459437Y-190116400D01*
X63459437Y-190116400D02*
X63638009Y-190211638D01*
X63638009Y-190211638D02*
X63828485Y-190211638D01*
X64780866Y-190211638D02*
X64602294Y-190116400D01*
X64602294Y-190116400D02*
X64518961Y-190021161D01*
X64518961Y-190021161D02*
X64447532Y-189830685D01*
X64447532Y-189830685D02*
X64518961Y-189259257D01*
X64518961Y-189259257D02*
X64638008Y-189068780D01*
X64638008Y-189068780D02*
X64745151Y-188973542D01*
X64745151Y-188973542D02*
X64947532Y-188878304D01*
X64947532Y-188878304D02*
X65233246Y-188878304D01*
X65233246Y-188878304D02*
X65411818Y-188973542D01*
X65411818Y-188973542D02*
X65495151Y-189068780D01*
X65495151Y-189068780D02*
X65566580Y-189259257D01*
X65566580Y-189259257D02*
X65495151Y-189830685D01*
X65495151Y-189830685D02*
X65376104Y-190021161D01*
X65376104Y-190021161D02*
X65268961Y-190116400D01*
X65268961Y-190116400D02*
X65066580Y-190211638D01*
X65066580Y-190211638D02*
X64780866Y-190211638D01*
X66185628Y-188878304D02*
X66947532Y-188878304D01*
X66554675Y-188211638D02*
X66340390Y-189925923D01*
X66340390Y-189925923D02*
X66411818Y-190116400D01*
X66411818Y-190116400D02*
X66590390Y-190211638D01*
X66590390Y-190211638D02*
X66780866Y-190211638D01*
X67447532Y-190211638D02*
X67614199Y-188878304D01*
X67697532Y-188211638D02*
X67590389Y-188306876D01*
X67590389Y-188306876D02*
X67673723Y-188402114D01*
X67673723Y-188402114D02*
X67780866Y-188306876D01*
X67780866Y-188306876D02*
X67697532Y-188211638D01*
X67697532Y-188211638D02*
X67673723Y-188402114D01*
X68566580Y-188878304D02*
X68316580Y-190878304D01*
X68554675Y-188973542D02*
X68757056Y-188878304D01*
X68757056Y-188878304D02*
X69138008Y-188878304D01*
X69138008Y-188878304D02*
X69316580Y-188973542D01*
X69316580Y-188973542D02*
X69399913Y-189068780D01*
X69399913Y-189068780D02*
X69471342Y-189259257D01*
X69471342Y-189259257D02*
X69399913Y-189830685D01*
X69399913Y-189830685D02*
X69280866Y-190021161D01*
X69280866Y-190021161D02*
X69173723Y-190116400D01*
X69173723Y-190116400D02*
X68971342Y-190211638D01*
X68971342Y-190211638D02*
X68590389Y-190211638D01*
X68590389Y-190211638D02*
X68411818Y-190116400D01*
X70495152Y-190211638D02*
X70316580Y-190116400D01*
X70316580Y-190116400D02*
X70233247Y-190021161D01*
X70233247Y-190021161D02*
X70161818Y-189830685D01*
X70161818Y-189830685D02*
X70233247Y-189259257D01*
X70233247Y-189259257D02*
X70352294Y-189068780D01*
X70352294Y-189068780D02*
X70459437Y-188973542D01*
X70459437Y-188973542D02*
X70661818Y-188878304D01*
X70661818Y-188878304D02*
X70947532Y-188878304D01*
X70947532Y-188878304D02*
X71126104Y-188973542D01*
X71126104Y-188973542D02*
X71209437Y-189068780D01*
X71209437Y-189068780D02*
X71280866Y-189259257D01*
X71280866Y-189259257D02*
X71209437Y-189830685D01*
X71209437Y-189830685D02*
X71090390Y-190021161D01*
X71090390Y-190021161D02*
X70983247Y-190116400D01*
X70983247Y-190116400D02*
X70780866Y-190211638D01*
X70780866Y-190211638D02*
X70495152Y-190211638D01*
X74340390Y-189164019D02*
X74614200Y-189259257D01*
X74614200Y-189259257D02*
X74697533Y-189354495D01*
X74697533Y-189354495D02*
X74768962Y-189544971D01*
X74768962Y-189544971D02*
X74733247Y-189830685D01*
X74733247Y-189830685D02*
X74614200Y-190021161D01*
X74614200Y-190021161D02*
X74507057Y-190116400D01*
X74507057Y-190116400D02*
X74304676Y-190211638D01*
X74304676Y-190211638D02*
X73542771Y-190211638D01*
X73542771Y-190211638D02*
X73792771Y-188211638D01*
X73792771Y-188211638D02*
X74459438Y-188211638D01*
X74459438Y-188211638D02*
X74638009Y-188306876D01*
X74638009Y-188306876D02*
X74721343Y-188402114D01*
X74721343Y-188402114D02*
X74792771Y-188592590D01*
X74792771Y-188592590D02*
X74768962Y-188783066D01*
X74768962Y-188783066D02*
X74649914Y-188973542D01*
X74649914Y-188973542D02*
X74542771Y-189068780D01*
X74542771Y-189068780D02*
X74340390Y-189164019D01*
X74340390Y-189164019D02*
X73673724Y-189164019D01*
X75828486Y-190211638D02*
X75649914Y-190116400D01*
X75649914Y-190116400D02*
X75566581Y-190021161D01*
X75566581Y-190021161D02*
X75495152Y-189830685D01*
X75495152Y-189830685D02*
X75566581Y-189259257D01*
X75566581Y-189259257D02*
X75685628Y-189068780D01*
X75685628Y-189068780D02*
X75792771Y-188973542D01*
X75792771Y-188973542D02*
X75995152Y-188878304D01*
X75995152Y-188878304D02*
X76280866Y-188878304D01*
X76280866Y-188878304D02*
X76459438Y-188973542D01*
X76459438Y-188973542D02*
X76542771Y-189068780D01*
X76542771Y-189068780D02*
X76614200Y-189259257D01*
X76614200Y-189259257D02*
X76542771Y-189830685D01*
X76542771Y-189830685D02*
X76423724Y-190021161D01*
X76423724Y-190021161D02*
X76316581Y-190116400D01*
X76316581Y-190116400D02*
X76114200Y-190211638D01*
X76114200Y-190211638D02*
X75828486Y-190211638D01*
X77638010Y-190211638D02*
X77459438Y-190116400D01*
X77459438Y-190116400D02*
X77376105Y-190021161D01*
X77376105Y-190021161D02*
X77304676Y-189830685D01*
X77304676Y-189830685D02*
X77376105Y-189259257D01*
X77376105Y-189259257D02*
X77495152Y-189068780D01*
X77495152Y-189068780D02*
X77602295Y-188973542D01*
X77602295Y-188973542D02*
X77804676Y-188878304D01*
X77804676Y-188878304D02*
X78090390Y-188878304D01*
X78090390Y-188878304D02*
X78268962Y-188973542D01*
X78268962Y-188973542D02*
X78352295Y-189068780D01*
X78352295Y-189068780D02*
X78423724Y-189259257D01*
X78423724Y-189259257D02*
X78352295Y-189830685D01*
X78352295Y-189830685D02*
X78233248Y-190021161D01*
X78233248Y-190021161D02*
X78126105Y-190116400D01*
X78126105Y-190116400D02*
X77923724Y-190211638D01*
X77923724Y-190211638D02*
X77638010Y-190211638D01*
X79078486Y-190116400D02*
X79257057Y-190211638D01*
X79257057Y-190211638D02*
X79638010Y-190211638D01*
X79638010Y-190211638D02*
X79840391Y-190116400D01*
X79840391Y-190116400D02*
X79959438Y-189925923D01*
X79959438Y-189925923D02*
X79971343Y-189830685D01*
X79971343Y-189830685D02*
X79899914Y-189640209D01*
X79899914Y-189640209D02*
X79721343Y-189544971D01*
X79721343Y-189544971D02*
X79435629Y-189544971D01*
X79435629Y-189544971D02*
X79257057Y-189449733D01*
X79257057Y-189449733D02*
X79185629Y-189259257D01*
X79185629Y-189259257D02*
X79197534Y-189164019D01*
X79197534Y-189164019D02*
X79316581Y-188973542D01*
X79316581Y-188973542D02*
X79518962Y-188878304D01*
X79518962Y-188878304D02*
X79804676Y-188878304D01*
X79804676Y-188878304D02*
X79983248Y-188973542D01*
X80661820Y-188878304D02*
X81423724Y-188878304D01*
X81030867Y-188211638D02*
X80816582Y-189925923D01*
X80816582Y-189925923D02*
X80888010Y-190116400D01*
X80888010Y-190116400D02*
X81066582Y-190211638D01*
X81066582Y-190211638D02*
X81257058Y-190211638D01*
X83447534Y-190211638D02*
X83697534Y-188211638D01*
X83697534Y-188211638D02*
X84173725Y-188211638D01*
X84173725Y-188211638D02*
X84447534Y-188306876D01*
X84447534Y-188306876D02*
X84614201Y-188497352D01*
X84614201Y-188497352D02*
X84685629Y-188687828D01*
X84685629Y-188687828D02*
X84733249Y-189068780D01*
X84733249Y-189068780D02*
X84697534Y-189354495D01*
X84697534Y-189354495D02*
X84554677Y-189735447D01*
X84554677Y-189735447D02*
X84435629Y-189925923D01*
X84435629Y-189925923D02*
X84221344Y-190116400D01*
X84221344Y-190116400D02*
X83923725Y-190211638D01*
X83923725Y-190211638D02*
X83447534Y-190211638D01*
X86614201Y-190021161D02*
X86507058Y-190116400D01*
X86507058Y-190116400D02*
X86209439Y-190211638D01*
X86209439Y-190211638D02*
X86018963Y-190211638D01*
X86018963Y-190211638D02*
X85745153Y-190116400D01*
X85745153Y-190116400D02*
X85578487Y-189925923D01*
X85578487Y-189925923D02*
X85507058Y-189735447D01*
X85507058Y-189735447D02*
X85459439Y-189354495D01*
X85459439Y-189354495D02*
X85495153Y-189068780D01*
X85495153Y-189068780D02*
X85638010Y-188687828D01*
X85638010Y-188687828D02*
X85757058Y-188497352D01*
X85757058Y-188497352D02*
X85971344Y-188306876D01*
X85971344Y-188306876D02*
X86268963Y-188211638D01*
X86268963Y-188211638D02*
X86459439Y-188211638D01*
X86459439Y-188211638D02*
X86733249Y-188306876D01*
X86733249Y-188306876D02*
X86816582Y-188402114D01*
X87542772Y-189449733D02*
X89066582Y-189449733D01*
X89923724Y-190211638D02*
X90173724Y-188211638D01*
X90173724Y-188211638D02*
X90649915Y-188211638D01*
X90649915Y-188211638D02*
X90923724Y-188306876D01*
X90923724Y-188306876D02*
X91090391Y-188497352D01*
X91090391Y-188497352D02*
X91161819Y-188687828D01*
X91161819Y-188687828D02*
X91209439Y-189068780D01*
X91209439Y-189068780D02*
X91173724Y-189354495D01*
X91173724Y-189354495D02*
X91030867Y-189735447D01*
X91030867Y-189735447D02*
X90911819Y-189925923D01*
X90911819Y-189925923D02*
X90697534Y-190116400D01*
X90697534Y-190116400D02*
X90399915Y-190211638D01*
X90399915Y-190211638D02*
X89923724Y-190211638D01*
X93090391Y-190021161D02*
X92983248Y-190116400D01*
X92983248Y-190116400D02*
X92685629Y-190211638D01*
X92685629Y-190211638D02*
X92495153Y-190211638D01*
X92495153Y-190211638D02*
X92221343Y-190116400D01*
X92221343Y-190116400D02*
X92054677Y-189925923D01*
X92054677Y-189925923D02*
X91983248Y-189735447D01*
X91983248Y-189735447D02*
X91935629Y-189354495D01*
X91935629Y-189354495D02*
X91971343Y-189068780D01*
X91971343Y-189068780D02*
X92114200Y-188687828D01*
X92114200Y-188687828D02*
X92233248Y-188497352D01*
X92233248Y-188497352D02*
X92447534Y-188306876D01*
X92447534Y-188306876D02*
X92745153Y-188211638D01*
X92745153Y-188211638D02*
X92935629Y-188211638D01*
X92935629Y-188211638D02*
X93209439Y-188306876D01*
X93209439Y-188306876D02*
X93292772Y-188402114D01*
D10*
X29961626Y-185607614D02*
X29461626Y-185607614D01*
X29461626Y-186393328D02*
X29461626Y-184893328D01*
X29461626Y-184893328D02*
X30175912Y-184893328D01*
X30747340Y-186393328D02*
X30747340Y-185393328D01*
X30747340Y-184893328D02*
X30675912Y-184964757D01*
X30675912Y-184964757D02*
X30747340Y-185036185D01*
X30747340Y-185036185D02*
X30818769Y-184964757D01*
X30818769Y-184964757D02*
X30747340Y-184893328D01*
X30747340Y-184893328D02*
X30747340Y-185036185D01*
X31675912Y-186393328D02*
X31533055Y-186321900D01*
X31533055Y-186321900D02*
X31461626Y-186179042D01*
X31461626Y-186179042D02*
X31461626Y-184893328D01*
X32818769Y-186321900D02*
X32675912Y-186393328D01*
X32675912Y-186393328D02*
X32390198Y-186393328D01*
X32390198Y-186393328D02*
X32247340Y-186321900D01*
X32247340Y-186321900D02*
X32175912Y-186179042D01*
X32175912Y-186179042D02*
X32175912Y-185607614D01*
X32175912Y-185607614D02*
X32247340Y-185464757D01*
X32247340Y-185464757D02*
X32390198Y-185393328D01*
X32390198Y-185393328D02*
X32675912Y-185393328D01*
X32675912Y-185393328D02*
X32818769Y-185464757D01*
X32818769Y-185464757D02*
X32890198Y-185607614D01*
X32890198Y-185607614D02*
X32890198Y-185750471D01*
X32890198Y-185750471D02*
X32175912Y-185893328D01*
X33533054Y-186250471D02*
X33604483Y-186321900D01*
X33604483Y-186321900D02*
X33533054Y-186393328D01*
X33533054Y-186393328D02*
X33461626Y-186321900D01*
X33461626Y-186321900D02*
X33533054Y-186250471D01*
X33533054Y-186250471D02*
X33533054Y-186393328D01*
X33533054Y-185464757D02*
X33604483Y-185536185D01*
X33604483Y-185536185D02*
X33533054Y-185607614D01*
X33533054Y-185607614D02*
X33461626Y-185536185D01*
X33461626Y-185536185D02*
X33533054Y-185464757D01*
X33533054Y-185464757D02*
X33533054Y-185607614D01*
X35890197Y-185607614D02*
X36104483Y-185679042D01*
X36104483Y-185679042D02*
X36175912Y-185750471D01*
X36175912Y-185750471D02*
X36247340Y-185893328D01*
X36247340Y-185893328D02*
X36247340Y-186107614D01*
X36247340Y-186107614D02*
X36175912Y-186250471D01*
X36175912Y-186250471D02*
X36104483Y-186321900D01*
X36104483Y-186321900D02*
X35961626Y-186393328D01*
X35961626Y-186393328D02*
X35390197Y-186393328D01*
X35390197Y-186393328D02*
X35390197Y-184893328D01*
X35390197Y-184893328D02*
X35890197Y-184893328D01*
X35890197Y-184893328D02*
X36033055Y-184964757D01*
X36033055Y-184964757D02*
X36104483Y-185036185D01*
X36104483Y-185036185D02*
X36175912Y-185179042D01*
X36175912Y-185179042D02*
X36175912Y-185321900D01*
X36175912Y-185321900D02*
X36104483Y-185464757D01*
X36104483Y-185464757D02*
X36033055Y-185536185D01*
X36033055Y-185536185D02*
X35890197Y-185607614D01*
X35890197Y-185607614D02*
X35390197Y-185607614D01*
X37104483Y-186393328D02*
X36961626Y-186321900D01*
X36961626Y-186321900D02*
X36890197Y-186250471D01*
X36890197Y-186250471D02*
X36818769Y-186107614D01*
X36818769Y-186107614D02*
X36818769Y-185679042D01*
X36818769Y-185679042D02*
X36890197Y-185536185D01*
X36890197Y-185536185D02*
X36961626Y-185464757D01*
X36961626Y-185464757D02*
X37104483Y-185393328D01*
X37104483Y-185393328D02*
X37318769Y-185393328D01*
X37318769Y-185393328D02*
X37461626Y-185464757D01*
X37461626Y-185464757D02*
X37533055Y-185536185D01*
X37533055Y-185536185D02*
X37604483Y-185679042D01*
X37604483Y-185679042D02*
X37604483Y-186107614D01*
X37604483Y-186107614D02*
X37533055Y-186250471D01*
X37533055Y-186250471D02*
X37461626Y-186321900D01*
X37461626Y-186321900D02*
X37318769Y-186393328D01*
X37318769Y-186393328D02*
X37104483Y-186393328D01*
X38461626Y-186393328D02*
X38318769Y-186321900D01*
X38318769Y-186321900D02*
X38247340Y-186250471D01*
X38247340Y-186250471D02*
X38175912Y-186107614D01*
X38175912Y-186107614D02*
X38175912Y-185679042D01*
X38175912Y-185679042D02*
X38247340Y-185536185D01*
X38247340Y-185536185D02*
X38318769Y-185464757D01*
X38318769Y-185464757D02*
X38461626Y-185393328D01*
X38461626Y-185393328D02*
X38675912Y-185393328D01*
X38675912Y-185393328D02*
X38818769Y-185464757D01*
X38818769Y-185464757D02*
X38890198Y-185536185D01*
X38890198Y-185536185D02*
X38961626Y-185679042D01*
X38961626Y-185679042D02*
X38961626Y-186107614D01*
X38961626Y-186107614D02*
X38890198Y-186250471D01*
X38890198Y-186250471D02*
X38818769Y-186321900D01*
X38818769Y-186321900D02*
X38675912Y-186393328D01*
X38675912Y-186393328D02*
X38461626Y-186393328D01*
X39533055Y-186321900D02*
X39675912Y-186393328D01*
X39675912Y-186393328D02*
X39961626Y-186393328D01*
X39961626Y-186393328D02*
X40104483Y-186321900D01*
X40104483Y-186321900D02*
X40175912Y-186179042D01*
X40175912Y-186179042D02*
X40175912Y-186107614D01*
X40175912Y-186107614D02*
X40104483Y-185964757D01*
X40104483Y-185964757D02*
X39961626Y-185893328D01*
X39961626Y-185893328D02*
X39747341Y-185893328D01*
X39747341Y-185893328D02*
X39604483Y-185821900D01*
X39604483Y-185821900D02*
X39533055Y-185679042D01*
X39533055Y-185679042D02*
X39533055Y-185607614D01*
X39533055Y-185607614D02*
X39604483Y-185464757D01*
X39604483Y-185464757D02*
X39747341Y-185393328D01*
X39747341Y-185393328D02*
X39961626Y-185393328D01*
X39961626Y-185393328D02*
X40104483Y-185464757D01*
X40604484Y-185393328D02*
X41175912Y-185393328D01*
X40818769Y-184893328D02*
X40818769Y-186179042D01*
X40818769Y-186179042D02*
X40890198Y-186321900D01*
X40890198Y-186321900D02*
X41033055Y-186393328D01*
X41033055Y-186393328D02*
X41175912Y-186393328D01*
X41318770Y-186536185D02*
X42461627Y-186536185D01*
X42604484Y-184893328D02*
X43104484Y-186393328D01*
X43104484Y-186393328D02*
X43604484Y-184893328D01*
X44033055Y-185036185D02*
X44104483Y-184964757D01*
X44104483Y-184964757D02*
X44247341Y-184893328D01*
X44247341Y-184893328D02*
X44604483Y-184893328D01*
X44604483Y-184893328D02*
X44747341Y-184964757D01*
X44747341Y-184964757D02*
X44818769Y-185036185D01*
X44818769Y-185036185D02*
X44890198Y-185179042D01*
X44890198Y-185179042D02*
X44890198Y-185321900D01*
X44890198Y-185321900D02*
X44818769Y-185536185D01*
X44818769Y-185536185D02*
X43961626Y-186393328D01*
X43961626Y-186393328D02*
X44890198Y-186393328D01*
X45533054Y-186250471D02*
X45604483Y-186321900D01*
X45604483Y-186321900D02*
X45533054Y-186393328D01*
X45533054Y-186393328D02*
X45461626Y-186321900D01*
X45461626Y-186321900D02*
X45533054Y-186250471D01*
X45533054Y-186250471D02*
X45533054Y-186393328D01*
X46247340Y-186393328D02*
X46247340Y-184893328D01*
X46390198Y-185821900D02*
X46818769Y-186393328D01*
X46818769Y-185393328D02*
X46247340Y-185964757D01*
X47461626Y-186393328D02*
X47461626Y-185393328D01*
X47461626Y-184893328D02*
X47390198Y-184964757D01*
X47390198Y-184964757D02*
X47461626Y-185036185D01*
X47461626Y-185036185D02*
X47533055Y-184964757D01*
X47533055Y-184964757D02*
X47461626Y-184893328D01*
X47461626Y-184893328D02*
X47461626Y-185036185D01*
X48818770Y-186321900D02*
X48675912Y-186393328D01*
X48675912Y-186393328D02*
X48390198Y-186393328D01*
X48390198Y-186393328D02*
X48247341Y-186321900D01*
X48247341Y-186321900D02*
X48175912Y-186250471D01*
X48175912Y-186250471D02*
X48104484Y-186107614D01*
X48104484Y-186107614D02*
X48104484Y-185679042D01*
X48104484Y-185679042D02*
X48175912Y-185536185D01*
X48175912Y-185536185D02*
X48247341Y-185464757D01*
X48247341Y-185464757D02*
X48390198Y-185393328D01*
X48390198Y-185393328D02*
X48675912Y-185393328D01*
X48675912Y-185393328D02*
X48818770Y-185464757D01*
X50104484Y-186393328D02*
X50104484Y-185607614D01*
X50104484Y-185607614D02*
X50033055Y-185464757D01*
X50033055Y-185464757D02*
X49890198Y-185393328D01*
X49890198Y-185393328D02*
X49604484Y-185393328D01*
X49604484Y-185393328D02*
X49461626Y-185464757D01*
X50104484Y-186321900D02*
X49961626Y-186393328D01*
X49961626Y-186393328D02*
X49604484Y-186393328D01*
X49604484Y-186393328D02*
X49461626Y-186321900D01*
X49461626Y-186321900D02*
X49390198Y-186179042D01*
X49390198Y-186179042D02*
X49390198Y-186036185D01*
X49390198Y-186036185D02*
X49461626Y-185893328D01*
X49461626Y-185893328D02*
X49604484Y-185821900D01*
X49604484Y-185821900D02*
X49961626Y-185821900D01*
X49961626Y-185821900D02*
X50104484Y-185750471D01*
X51461627Y-186393328D02*
X51461627Y-184893328D01*
X51461627Y-186321900D02*
X51318769Y-186393328D01*
X51318769Y-186393328D02*
X51033055Y-186393328D01*
X51033055Y-186393328D02*
X50890198Y-186321900D01*
X50890198Y-186321900D02*
X50818769Y-186250471D01*
X50818769Y-186250471D02*
X50747341Y-186107614D01*
X50747341Y-186107614D02*
X50747341Y-185679042D01*
X50747341Y-185679042D02*
X50818769Y-185536185D01*
X50818769Y-185536185D02*
X50890198Y-185464757D01*
X50890198Y-185464757D02*
X51033055Y-185393328D01*
X51033055Y-185393328D02*
X51318769Y-185393328D01*
X51318769Y-185393328D02*
X51461627Y-185464757D01*
X51818770Y-186536185D02*
X52961627Y-186536185D01*
X53318769Y-185393328D02*
X53318769Y-186893328D01*
X53318769Y-185464757D02*
X53461627Y-185393328D01*
X53461627Y-185393328D02*
X53747341Y-185393328D01*
X53747341Y-185393328D02*
X53890198Y-185464757D01*
X53890198Y-185464757D02*
X53961627Y-185536185D01*
X53961627Y-185536185D02*
X54033055Y-185679042D01*
X54033055Y-185679042D02*
X54033055Y-186107614D01*
X54033055Y-186107614D02*
X53961627Y-186250471D01*
X53961627Y-186250471D02*
X53890198Y-186321900D01*
X53890198Y-186321900D02*
X53747341Y-186393328D01*
X53747341Y-186393328D02*
X53461627Y-186393328D01*
X53461627Y-186393328D02*
X53318769Y-186321900D01*
X55318770Y-186321900D02*
X55175912Y-186393328D01*
X55175912Y-186393328D02*
X54890198Y-186393328D01*
X54890198Y-186393328D02*
X54747341Y-186321900D01*
X54747341Y-186321900D02*
X54675912Y-186250471D01*
X54675912Y-186250471D02*
X54604484Y-186107614D01*
X54604484Y-186107614D02*
X54604484Y-185679042D01*
X54604484Y-185679042D02*
X54675912Y-185536185D01*
X54675912Y-185536185D02*
X54747341Y-185464757D01*
X54747341Y-185464757D02*
X54890198Y-185393328D01*
X54890198Y-185393328D02*
X55175912Y-185393328D01*
X55175912Y-185393328D02*
X55318770Y-185464757D01*
X55961626Y-186393328D02*
X55961626Y-184893328D01*
X55961626Y-185464757D02*
X56104484Y-185393328D01*
X56104484Y-185393328D02*
X56390198Y-185393328D01*
X56390198Y-185393328D02*
X56533055Y-185464757D01*
X56533055Y-185464757D02*
X56604484Y-185536185D01*
X56604484Y-185536185D02*
X56675912Y-185679042D01*
X56675912Y-185679042D02*
X56675912Y-186107614D01*
X56675912Y-186107614D02*
X56604484Y-186250471D01*
X56604484Y-186250471D02*
X56533055Y-186321900D01*
X56533055Y-186321900D02*
X56390198Y-186393328D01*
X56390198Y-186393328D02*
X56104484Y-186393328D01*
X56104484Y-186393328D02*
X55961626Y-186321900D01*
X28005800Y-181507200D02*
X136005800Y-181507200D01*
X29390198Y-183621900D02*
X29604484Y-183693328D01*
X29604484Y-183693328D02*
X29961626Y-183693328D01*
X29961626Y-183693328D02*
X30104484Y-183621900D01*
X30104484Y-183621900D02*
X30175912Y-183550471D01*
X30175912Y-183550471D02*
X30247341Y-183407614D01*
X30247341Y-183407614D02*
X30247341Y-183264757D01*
X30247341Y-183264757D02*
X30175912Y-183121900D01*
X30175912Y-183121900D02*
X30104484Y-183050471D01*
X30104484Y-183050471D02*
X29961626Y-182979042D01*
X29961626Y-182979042D02*
X29675912Y-182907614D01*
X29675912Y-182907614D02*
X29533055Y-182836185D01*
X29533055Y-182836185D02*
X29461626Y-182764757D01*
X29461626Y-182764757D02*
X29390198Y-182621900D01*
X29390198Y-182621900D02*
X29390198Y-182479042D01*
X29390198Y-182479042D02*
X29461626Y-182336185D01*
X29461626Y-182336185D02*
X29533055Y-182264757D01*
X29533055Y-182264757D02*
X29675912Y-182193328D01*
X29675912Y-182193328D02*
X30033055Y-182193328D01*
X30033055Y-182193328D02*
X30247341Y-182264757D01*
X30890197Y-183693328D02*
X30890197Y-182193328D01*
X31533055Y-183693328D02*
X31533055Y-182907614D01*
X31533055Y-182907614D02*
X31461626Y-182764757D01*
X31461626Y-182764757D02*
X31318769Y-182693328D01*
X31318769Y-182693328D02*
X31104483Y-182693328D01*
X31104483Y-182693328D02*
X30961626Y-182764757D01*
X30961626Y-182764757D02*
X30890197Y-182836185D01*
X32818769Y-183621900D02*
X32675912Y-183693328D01*
X32675912Y-183693328D02*
X32390198Y-183693328D01*
X32390198Y-183693328D02*
X32247340Y-183621900D01*
X32247340Y-183621900D02*
X32175912Y-183479042D01*
X32175912Y-183479042D02*
X32175912Y-182907614D01*
X32175912Y-182907614D02*
X32247340Y-182764757D01*
X32247340Y-182764757D02*
X32390198Y-182693328D01*
X32390198Y-182693328D02*
X32675912Y-182693328D01*
X32675912Y-182693328D02*
X32818769Y-182764757D01*
X32818769Y-182764757D02*
X32890198Y-182907614D01*
X32890198Y-182907614D02*
X32890198Y-183050471D01*
X32890198Y-183050471D02*
X32175912Y-183193328D01*
X34104483Y-183621900D02*
X33961626Y-183693328D01*
X33961626Y-183693328D02*
X33675912Y-183693328D01*
X33675912Y-183693328D02*
X33533054Y-183621900D01*
X33533054Y-183621900D02*
X33461626Y-183479042D01*
X33461626Y-183479042D02*
X33461626Y-182907614D01*
X33461626Y-182907614D02*
X33533054Y-182764757D01*
X33533054Y-182764757D02*
X33675912Y-182693328D01*
X33675912Y-182693328D02*
X33961626Y-182693328D01*
X33961626Y-182693328D02*
X34104483Y-182764757D01*
X34104483Y-182764757D02*
X34175912Y-182907614D01*
X34175912Y-182907614D02*
X34175912Y-183050471D01*
X34175912Y-183050471D02*
X33461626Y-183193328D01*
X34604483Y-182693328D02*
X35175911Y-182693328D01*
X34818768Y-182193328D02*
X34818768Y-183479042D01*
X34818768Y-183479042D02*
X34890197Y-183621900D01*
X34890197Y-183621900D02*
X35033054Y-183693328D01*
X35033054Y-183693328D02*
X35175911Y-183693328D01*
X35675911Y-183550471D02*
X35747340Y-183621900D01*
X35747340Y-183621900D02*
X35675911Y-183693328D01*
X35675911Y-183693328D02*
X35604483Y-183621900D01*
X35604483Y-183621900D02*
X35675911Y-183550471D01*
X35675911Y-183550471D02*
X35675911Y-183693328D01*
X35675911Y-182764757D02*
X35747340Y-182836185D01*
X35747340Y-182836185D02*
X35675911Y-182907614D01*
X35675911Y-182907614D02*
X35604483Y-182836185D01*
X35604483Y-182836185D02*
X35675911Y-182764757D01*
X35675911Y-182764757D02*
X35675911Y-182907614D01*
D11*
X29560310Y-179185528D02*
X29560310Y-180399814D01*
X29560310Y-180399814D02*
X29631739Y-180542671D01*
X29631739Y-180542671D02*
X29703168Y-180614100D01*
X29703168Y-180614100D02*
X29846025Y-180685528D01*
X29846025Y-180685528D02*
X30131739Y-180685528D01*
X30131739Y-180685528D02*
X30274596Y-180614100D01*
X30274596Y-180614100D02*
X30346025Y-180542671D01*
X30346025Y-180542671D02*
X30417453Y-180399814D01*
X30417453Y-180399814D02*
X30417453Y-179185528D01*
X31131739Y-179685528D02*
X31131739Y-180685528D01*
X31131739Y-179828385D02*
X31203168Y-179756957D01*
X31203168Y-179756957D02*
X31346025Y-179685528D01*
X31346025Y-179685528D02*
X31560311Y-179685528D01*
X31560311Y-179685528D02*
X31703168Y-179756957D01*
X31703168Y-179756957D02*
X31774597Y-179899814D01*
X31774597Y-179899814D02*
X31774597Y-180685528D01*
X32488882Y-180685528D02*
X32488882Y-179685528D01*
X32488882Y-179185528D02*
X32417454Y-179256957D01*
X32417454Y-179256957D02*
X32488882Y-179328385D01*
X32488882Y-179328385D02*
X32560311Y-179256957D01*
X32560311Y-179256957D02*
X32488882Y-179185528D01*
X32488882Y-179185528D02*
X32488882Y-179328385D01*
X33060311Y-179685528D02*
X33417454Y-180685528D01*
X33417454Y-180685528D02*
X33774597Y-179685528D01*
X34917454Y-180614100D02*
X34774597Y-180685528D01*
X34774597Y-180685528D02*
X34488883Y-180685528D01*
X34488883Y-180685528D02*
X34346025Y-180614100D01*
X34346025Y-180614100D02*
X34274597Y-180471242D01*
X34274597Y-180471242D02*
X34274597Y-179899814D01*
X34274597Y-179899814D02*
X34346025Y-179756957D01*
X34346025Y-179756957D02*
X34488883Y-179685528D01*
X34488883Y-179685528D02*
X34774597Y-179685528D01*
X34774597Y-179685528D02*
X34917454Y-179756957D01*
X34917454Y-179756957D02*
X34988883Y-179899814D01*
X34988883Y-179899814D02*
X34988883Y-180042671D01*
X34988883Y-180042671D02*
X34274597Y-180185528D01*
X35631739Y-180685528D02*
X35631739Y-179685528D01*
X35631739Y-179971242D02*
X35703168Y-179828385D01*
X35703168Y-179828385D02*
X35774597Y-179756957D01*
X35774597Y-179756957D02*
X35917454Y-179685528D01*
X35917454Y-179685528D02*
X36060311Y-179685528D01*
X36488882Y-180614100D02*
X36631739Y-180685528D01*
X36631739Y-180685528D02*
X36917453Y-180685528D01*
X36917453Y-180685528D02*
X37060310Y-180614100D01*
X37060310Y-180614100D02*
X37131739Y-180471242D01*
X37131739Y-180471242D02*
X37131739Y-180399814D01*
X37131739Y-180399814D02*
X37060310Y-180256957D01*
X37060310Y-180256957D02*
X36917453Y-180185528D01*
X36917453Y-180185528D02*
X36703168Y-180185528D01*
X36703168Y-180185528D02*
X36560310Y-180114100D01*
X36560310Y-180114100D02*
X36488882Y-179971242D01*
X36488882Y-179971242D02*
X36488882Y-179899814D01*
X36488882Y-179899814D02*
X36560310Y-179756957D01*
X36560310Y-179756957D02*
X36703168Y-179685528D01*
X36703168Y-179685528D02*
X36917453Y-179685528D01*
X36917453Y-179685528D02*
X37060310Y-179756957D01*
X37774596Y-180685528D02*
X37774596Y-179685528D01*
X37774596Y-179185528D02*
X37703168Y-179256957D01*
X37703168Y-179256957D02*
X37774596Y-179328385D01*
X37774596Y-179328385D02*
X37846025Y-179256957D01*
X37846025Y-179256957D02*
X37774596Y-179185528D01*
X37774596Y-179185528D02*
X37774596Y-179328385D01*
X39131740Y-180685528D02*
X39131740Y-179185528D01*
X39131740Y-180614100D02*
X38988882Y-180685528D01*
X38988882Y-180685528D02*
X38703168Y-180685528D01*
X38703168Y-180685528D02*
X38560311Y-180614100D01*
X38560311Y-180614100D02*
X38488882Y-180542671D01*
X38488882Y-180542671D02*
X38417454Y-180399814D01*
X38417454Y-180399814D02*
X38417454Y-179971242D01*
X38417454Y-179971242D02*
X38488882Y-179828385D01*
X38488882Y-179828385D02*
X38560311Y-179756957D01*
X38560311Y-179756957D02*
X38703168Y-179685528D01*
X38703168Y-179685528D02*
X38988882Y-179685528D01*
X38988882Y-179685528D02*
X39131740Y-179756957D01*
X40488883Y-180685528D02*
X40488883Y-179899814D01*
X40488883Y-179899814D02*
X40417454Y-179756957D01*
X40417454Y-179756957D02*
X40274597Y-179685528D01*
X40274597Y-179685528D02*
X39988883Y-179685528D01*
X39988883Y-179685528D02*
X39846025Y-179756957D01*
X40488883Y-180614100D02*
X40346025Y-180685528D01*
X40346025Y-180685528D02*
X39988883Y-180685528D01*
X39988883Y-180685528D02*
X39846025Y-180614100D01*
X39846025Y-180614100D02*
X39774597Y-180471242D01*
X39774597Y-180471242D02*
X39774597Y-180328385D01*
X39774597Y-180328385D02*
X39846025Y-180185528D01*
X39846025Y-180185528D02*
X39988883Y-180114100D01*
X39988883Y-180114100D02*
X40346025Y-180114100D01*
X40346025Y-180114100D02*
X40488883Y-180042671D01*
X41846026Y-180685528D02*
X41846026Y-179185528D01*
X41846026Y-180614100D02*
X41703168Y-180685528D01*
X41703168Y-180685528D02*
X41417454Y-180685528D01*
X41417454Y-180685528D02*
X41274597Y-180614100D01*
X41274597Y-180614100D02*
X41203168Y-180542671D01*
X41203168Y-180542671D02*
X41131740Y-180399814D01*
X41131740Y-180399814D02*
X41131740Y-179971242D01*
X41131740Y-179971242D02*
X41203168Y-179828385D01*
X41203168Y-179828385D02*
X41274597Y-179756957D01*
X41274597Y-179756957D02*
X41417454Y-179685528D01*
X41417454Y-179685528D02*
X41703168Y-179685528D01*
X41703168Y-179685528D02*
X41846026Y-179756957D01*
X44346026Y-180685528D02*
X44346026Y-179185528D01*
X44346026Y-180614100D02*
X44203168Y-180685528D01*
X44203168Y-180685528D02*
X43917454Y-180685528D01*
X43917454Y-180685528D02*
X43774597Y-180614100D01*
X43774597Y-180614100D02*
X43703168Y-180542671D01*
X43703168Y-180542671D02*
X43631740Y-180399814D01*
X43631740Y-180399814D02*
X43631740Y-179971242D01*
X43631740Y-179971242D02*
X43703168Y-179828385D01*
X43703168Y-179828385D02*
X43774597Y-179756957D01*
X43774597Y-179756957D02*
X43917454Y-179685528D01*
X43917454Y-179685528D02*
X44203168Y-179685528D01*
X44203168Y-179685528D02*
X44346026Y-179756957D01*
X45631740Y-180614100D02*
X45488883Y-180685528D01*
X45488883Y-180685528D02*
X45203169Y-180685528D01*
X45203169Y-180685528D02*
X45060311Y-180614100D01*
X45060311Y-180614100D02*
X44988883Y-180471242D01*
X44988883Y-180471242D02*
X44988883Y-179899814D01*
X44988883Y-179899814D02*
X45060311Y-179756957D01*
X45060311Y-179756957D02*
X45203169Y-179685528D01*
X45203169Y-179685528D02*
X45488883Y-179685528D01*
X45488883Y-179685528D02*
X45631740Y-179756957D01*
X45631740Y-179756957D02*
X45703169Y-179899814D01*
X45703169Y-179899814D02*
X45703169Y-180042671D01*
X45703169Y-180042671D02*
X44988883Y-180185528D01*
X48346025Y-180542671D02*
X48274597Y-180614100D01*
X48274597Y-180614100D02*
X48060311Y-180685528D01*
X48060311Y-180685528D02*
X47917454Y-180685528D01*
X47917454Y-180685528D02*
X47703168Y-180614100D01*
X47703168Y-180614100D02*
X47560311Y-180471242D01*
X47560311Y-180471242D02*
X47488882Y-180328385D01*
X47488882Y-180328385D02*
X47417454Y-180042671D01*
X47417454Y-180042671D02*
X47417454Y-179828385D01*
X47417454Y-179828385D02*
X47488882Y-179542671D01*
X47488882Y-179542671D02*
X47560311Y-179399814D01*
X47560311Y-179399814D02*
X47703168Y-179256957D01*
X47703168Y-179256957D02*
X47917454Y-179185528D01*
X47917454Y-179185528D02*
X48060311Y-179185528D01*
X48060311Y-179185528D02*
X48274597Y-179256957D01*
X48274597Y-179256957D02*
X48346025Y-179328385D01*
X49631740Y-180685528D02*
X49631740Y-179899814D01*
X49631740Y-179899814D02*
X49560311Y-179756957D01*
X49560311Y-179756957D02*
X49417454Y-179685528D01*
X49417454Y-179685528D02*
X49131740Y-179685528D01*
X49131740Y-179685528D02*
X48988882Y-179756957D01*
X49631740Y-180614100D02*
X49488882Y-180685528D01*
X49488882Y-180685528D02*
X49131740Y-180685528D01*
X49131740Y-180685528D02*
X48988882Y-180614100D01*
X48988882Y-180614100D02*
X48917454Y-180471242D01*
X48917454Y-180471242D02*
X48917454Y-180328385D01*
X48917454Y-180328385D02*
X48988882Y-180185528D01*
X48988882Y-180185528D02*
X49131740Y-180114100D01*
X49131740Y-180114100D02*
X49488882Y-180114100D01*
X49488882Y-180114100D02*
X49631740Y-180042671D01*
X50346025Y-179685528D02*
X50346025Y-180685528D01*
X50346025Y-179828385D02*
X50417454Y-179756957D01*
X50417454Y-179756957D02*
X50560311Y-179685528D01*
X50560311Y-179685528D02*
X50774597Y-179685528D01*
X50774597Y-179685528D02*
X50917454Y-179756957D01*
X50917454Y-179756957D02*
X50988883Y-179899814D01*
X50988883Y-179899814D02*
X50988883Y-180685528D01*
X51488883Y-179685528D02*
X52060311Y-179685528D01*
X51703168Y-179185528D02*
X51703168Y-180471242D01*
X51703168Y-180471242D02*
X51774597Y-180614100D01*
X51774597Y-180614100D02*
X51917454Y-180685528D01*
X51917454Y-180685528D02*
X52060311Y-180685528D01*
X53203169Y-180685528D02*
X53203169Y-179899814D01*
X53203169Y-179899814D02*
X53131740Y-179756957D01*
X53131740Y-179756957D02*
X52988883Y-179685528D01*
X52988883Y-179685528D02*
X52703169Y-179685528D01*
X52703169Y-179685528D02*
X52560311Y-179756957D01*
X53203169Y-180614100D02*
X53060311Y-180685528D01*
X53060311Y-180685528D02*
X52703169Y-180685528D01*
X52703169Y-180685528D02*
X52560311Y-180614100D01*
X52560311Y-180614100D02*
X52488883Y-180471242D01*
X52488883Y-180471242D02*
X52488883Y-180328385D01*
X52488883Y-180328385D02*
X52560311Y-180185528D01*
X52560311Y-180185528D02*
X52703169Y-180114100D01*
X52703169Y-180114100D02*
X53060311Y-180114100D01*
X53060311Y-180114100D02*
X53203169Y-180042671D01*
X53917454Y-180685528D02*
X53917454Y-179185528D01*
X53917454Y-179756957D02*
X54060312Y-179685528D01*
X54060312Y-179685528D02*
X54346026Y-179685528D01*
X54346026Y-179685528D02*
X54488883Y-179756957D01*
X54488883Y-179756957D02*
X54560312Y-179828385D01*
X54560312Y-179828385D02*
X54631740Y-179971242D01*
X54631740Y-179971242D02*
X54631740Y-180399814D01*
X54631740Y-180399814D02*
X54560312Y-180542671D01*
X54560312Y-180542671D02*
X54488883Y-180614100D01*
X54488883Y-180614100D02*
X54346026Y-180685528D01*
X54346026Y-180685528D02*
X54060312Y-180685528D01*
X54060312Y-180685528D02*
X53917454Y-180614100D01*
X55274597Y-180685528D02*
X55274597Y-179685528D01*
X55274597Y-179971242D02*
X55346026Y-179828385D01*
X55346026Y-179828385D02*
X55417455Y-179756957D01*
X55417455Y-179756957D02*
X55560312Y-179685528D01*
X55560312Y-179685528D02*
X55703169Y-179685528D01*
X56203168Y-180685528D02*
X56203168Y-179685528D01*
X56203168Y-179185528D02*
X56131740Y-179256957D01*
X56131740Y-179256957D02*
X56203168Y-179328385D01*
X56203168Y-179328385D02*
X56274597Y-179256957D01*
X56274597Y-179256957D02*
X56203168Y-179185528D01*
X56203168Y-179185528D02*
X56203168Y-179328385D01*
X57560312Y-180685528D02*
X57560312Y-179899814D01*
X57560312Y-179899814D02*
X57488883Y-179756957D01*
X57488883Y-179756957D02*
X57346026Y-179685528D01*
X57346026Y-179685528D02*
X57060312Y-179685528D01*
X57060312Y-179685528D02*
X56917454Y-179756957D01*
X57560312Y-180614100D02*
X57417454Y-180685528D01*
X57417454Y-180685528D02*
X57060312Y-180685528D01*
X57060312Y-180685528D02*
X56917454Y-180614100D01*
X56917454Y-180614100D02*
X56846026Y-180471242D01*
X56846026Y-180471242D02*
X56846026Y-180328385D01*
X56846026Y-180328385D02*
X56917454Y-180185528D01*
X56917454Y-180185528D02*
X57060312Y-180114100D01*
X57060312Y-180114100D02*
X57417454Y-180114100D01*
X57417454Y-180114100D02*
X57560312Y-180042671D01*
D10*
X29247341Y-176193328D02*
X30104484Y-176193328D01*
X29675912Y-177693328D02*
X29675912Y-176193328D01*
X31104483Y-176907614D02*
X30604483Y-176907614D01*
X30604483Y-177693328D02*
X30604483Y-176193328D01*
X30604483Y-176193328D02*
X31318769Y-176193328D01*
X32675912Y-176264757D02*
X32533055Y-176193328D01*
X32533055Y-176193328D02*
X32318769Y-176193328D01*
X32318769Y-176193328D02*
X32104483Y-176264757D01*
X32104483Y-176264757D02*
X31961626Y-176407614D01*
X31961626Y-176407614D02*
X31890197Y-176550471D01*
X31890197Y-176550471D02*
X31818769Y-176836185D01*
X31818769Y-176836185D02*
X31818769Y-177050471D01*
X31818769Y-177050471D02*
X31890197Y-177336185D01*
X31890197Y-177336185D02*
X31961626Y-177479042D01*
X31961626Y-177479042D02*
X32104483Y-177621900D01*
X32104483Y-177621900D02*
X32318769Y-177693328D01*
X32318769Y-177693328D02*
X32461626Y-177693328D01*
X32461626Y-177693328D02*
X32675912Y-177621900D01*
X32675912Y-177621900D02*
X32747340Y-177550471D01*
X32747340Y-177550471D02*
X32747340Y-177050471D01*
X32747340Y-177050471D02*
X32461626Y-177050471D01*
X34533054Y-177121900D02*
X35675912Y-177121900D01*
X37961626Y-176193328D02*
X37961626Y-177264757D01*
X37961626Y-177264757D02*
X37890197Y-177479042D01*
X37890197Y-177479042D02*
X37747340Y-177621900D01*
X37747340Y-177621900D02*
X37533054Y-177693328D01*
X37533054Y-177693328D02*
X37390197Y-177693328D01*
X39318769Y-177693328D02*
X39318769Y-176907614D01*
X39318769Y-176907614D02*
X39247340Y-176764757D01*
X39247340Y-176764757D02*
X39104483Y-176693328D01*
X39104483Y-176693328D02*
X38818769Y-176693328D01*
X38818769Y-176693328D02*
X38675911Y-176764757D01*
X39318769Y-177621900D02*
X39175911Y-177693328D01*
X39175911Y-177693328D02*
X38818769Y-177693328D01*
X38818769Y-177693328D02*
X38675911Y-177621900D01*
X38675911Y-177621900D02*
X38604483Y-177479042D01*
X38604483Y-177479042D02*
X38604483Y-177336185D01*
X38604483Y-177336185D02*
X38675911Y-177193328D01*
X38675911Y-177193328D02*
X38818769Y-177121900D01*
X38818769Y-177121900D02*
X39175911Y-177121900D01*
X39175911Y-177121900D02*
X39318769Y-177050471D01*
X39890197Y-176693328D02*
X40247340Y-177693328D01*
X40247340Y-177693328D02*
X40604483Y-176693328D01*
X41175911Y-177693328D02*
X41175911Y-176693328D01*
X41175911Y-176193328D02*
X41104483Y-176264757D01*
X41104483Y-176264757D02*
X41175911Y-176336185D01*
X41175911Y-176336185D02*
X41247340Y-176264757D01*
X41247340Y-176264757D02*
X41175911Y-176193328D01*
X41175911Y-176193328D02*
X41175911Y-176336185D01*
X42461626Y-177621900D02*
X42318769Y-177693328D01*
X42318769Y-177693328D02*
X42033055Y-177693328D01*
X42033055Y-177693328D02*
X41890197Y-177621900D01*
X41890197Y-177621900D02*
X41818769Y-177479042D01*
X41818769Y-177479042D02*
X41818769Y-176907614D01*
X41818769Y-176907614D02*
X41890197Y-176764757D01*
X41890197Y-176764757D02*
X42033055Y-176693328D01*
X42033055Y-176693328D02*
X42318769Y-176693328D01*
X42318769Y-176693328D02*
X42461626Y-176764757D01*
X42461626Y-176764757D02*
X42533055Y-176907614D01*
X42533055Y-176907614D02*
X42533055Y-177050471D01*
X42533055Y-177050471D02*
X41818769Y-177193328D01*
X43175911Y-177693328D02*
X43175911Y-176693328D01*
X43175911Y-176979042D02*
X43247340Y-176836185D01*
X43247340Y-176836185D02*
X43318769Y-176764757D01*
X43318769Y-176764757D02*
X43461626Y-176693328D01*
X43461626Y-176693328D02*
X43604483Y-176693328D01*
X45033054Y-176193328D02*
X45533054Y-177693328D01*
X45533054Y-177693328D02*
X46033054Y-176193328D01*
X47175911Y-177693328D02*
X47175911Y-176907614D01*
X47175911Y-176907614D02*
X47104482Y-176764757D01*
X47104482Y-176764757D02*
X46961625Y-176693328D01*
X46961625Y-176693328D02*
X46675911Y-176693328D01*
X46675911Y-176693328D02*
X46533053Y-176764757D01*
X47175911Y-177621900D02*
X47033053Y-177693328D01*
X47033053Y-177693328D02*
X46675911Y-177693328D01*
X46675911Y-177693328D02*
X46533053Y-177621900D01*
X46533053Y-177621900D02*
X46461625Y-177479042D01*
X46461625Y-177479042D02*
X46461625Y-177336185D01*
X46461625Y-177336185D02*
X46533053Y-177193328D01*
X46533053Y-177193328D02*
X46675911Y-177121900D01*
X46675911Y-177121900D02*
X47033053Y-177121900D01*
X47033053Y-177121900D02*
X47175911Y-177050471D01*
X47890196Y-177693328D02*
X47890196Y-176693328D01*
X47890196Y-176979042D02*
X47961625Y-176836185D01*
X47961625Y-176836185D02*
X48033054Y-176764757D01*
X48033054Y-176764757D02*
X48175911Y-176693328D01*
X48175911Y-176693328D02*
X48318768Y-176693328D01*
X49461625Y-177693328D02*
X49461625Y-176907614D01*
X49461625Y-176907614D02*
X49390196Y-176764757D01*
X49390196Y-176764757D02*
X49247339Y-176693328D01*
X49247339Y-176693328D02*
X48961625Y-176693328D01*
X48961625Y-176693328D02*
X48818767Y-176764757D01*
X49461625Y-177621900D02*
X49318767Y-177693328D01*
X49318767Y-177693328D02*
X48961625Y-177693328D01*
X48961625Y-177693328D02*
X48818767Y-177621900D01*
X48818767Y-177621900D02*
X48747339Y-177479042D01*
X48747339Y-177479042D02*
X48747339Y-177336185D01*
X48747339Y-177336185D02*
X48818767Y-177193328D01*
X48818767Y-177193328D02*
X48961625Y-177121900D01*
X48961625Y-177121900D02*
X49318767Y-177121900D01*
X49318767Y-177121900D02*
X49461625Y-177050471D01*
X50104482Y-177621900D02*
X50247339Y-177693328D01*
X50247339Y-177693328D02*
X50533053Y-177693328D01*
X50533053Y-177693328D02*
X50675910Y-177621900D01*
X50675910Y-177621900D02*
X50747339Y-177479042D01*
X50747339Y-177479042D02*
X50747339Y-177407614D01*
X50747339Y-177407614D02*
X50675910Y-177264757D01*
X50675910Y-177264757D02*
X50533053Y-177193328D01*
X50533053Y-177193328D02*
X50318768Y-177193328D01*
X50318768Y-177193328D02*
X50175910Y-177121900D01*
X50175910Y-177121900D02*
X50104482Y-176979042D01*
X50104482Y-176979042D02*
X50104482Y-176907614D01*
X50104482Y-176907614D02*
X50175910Y-176764757D01*
X50175910Y-176764757D02*
X50318768Y-176693328D01*
X50318768Y-176693328D02*
X50533053Y-176693328D01*
X50533053Y-176693328D02*
X50675910Y-176764757D01*
X52533053Y-177693328D02*
X52533053Y-176193328D01*
X52533053Y-176193328D02*
X52890196Y-176193328D01*
X52890196Y-176193328D02*
X53104482Y-176264757D01*
X53104482Y-176264757D02*
X53247339Y-176407614D01*
X53247339Y-176407614D02*
X53318768Y-176550471D01*
X53318768Y-176550471D02*
X53390196Y-176836185D01*
X53390196Y-176836185D02*
X53390196Y-177050471D01*
X53390196Y-177050471D02*
X53318768Y-177336185D01*
X53318768Y-177336185D02*
X53247339Y-177479042D01*
X53247339Y-177479042D02*
X53104482Y-177621900D01*
X53104482Y-177621900D02*
X52890196Y-177693328D01*
X52890196Y-177693328D02*
X52533053Y-177693328D01*
X54247339Y-177693328D02*
X54104482Y-177621900D01*
X54104482Y-177621900D02*
X54033053Y-177550471D01*
X54033053Y-177550471D02*
X53961625Y-177407614D01*
X53961625Y-177407614D02*
X53961625Y-176979042D01*
X53961625Y-176979042D02*
X54033053Y-176836185D01*
X54033053Y-176836185D02*
X54104482Y-176764757D01*
X54104482Y-176764757D02*
X54247339Y-176693328D01*
X54247339Y-176693328D02*
X54461625Y-176693328D01*
X54461625Y-176693328D02*
X54604482Y-176764757D01*
X54604482Y-176764757D02*
X54675911Y-176836185D01*
X54675911Y-176836185D02*
X54747339Y-176979042D01*
X54747339Y-176979042D02*
X54747339Y-177407614D01*
X54747339Y-177407614D02*
X54675911Y-177550471D01*
X54675911Y-177550471D02*
X54604482Y-177621900D01*
X54604482Y-177621900D02*
X54461625Y-177693328D01*
X54461625Y-177693328D02*
X54247339Y-177693328D01*
X55390196Y-177693328D02*
X55390196Y-176693328D01*
X55390196Y-176836185D02*
X55461625Y-176764757D01*
X55461625Y-176764757D02*
X55604482Y-176693328D01*
X55604482Y-176693328D02*
X55818768Y-176693328D01*
X55818768Y-176693328D02*
X55961625Y-176764757D01*
X55961625Y-176764757D02*
X56033054Y-176907614D01*
X56033054Y-176907614D02*
X56033054Y-177693328D01*
X56033054Y-176907614D02*
X56104482Y-176764757D01*
X56104482Y-176764757D02*
X56247339Y-176693328D01*
X56247339Y-176693328D02*
X56461625Y-176693328D01*
X56461625Y-176693328D02*
X56604482Y-176764757D01*
X56604482Y-176764757D02*
X56675911Y-176907614D01*
X56675911Y-176907614D02*
X56675911Y-177693328D01*
X57390196Y-177693328D02*
X57390196Y-176693328D01*
X57533054Y-176121900D02*
X57318768Y-176336185D01*
X58104482Y-176693328D02*
X58104482Y-177693328D01*
X58104482Y-176836185D02*
X58175911Y-176764757D01*
X58175911Y-176764757D02*
X58318768Y-176693328D01*
X58318768Y-176693328D02*
X58533054Y-176693328D01*
X58533054Y-176693328D02*
X58675911Y-176764757D01*
X58675911Y-176764757D02*
X58747340Y-176907614D01*
X58747340Y-176907614D02*
X58747340Y-177693328D01*
X60104483Y-176693328D02*
X60104483Y-177907614D01*
X60104483Y-177907614D02*
X60033054Y-178050471D01*
X60033054Y-178050471D02*
X59961625Y-178121900D01*
X59961625Y-178121900D02*
X59818768Y-178193328D01*
X59818768Y-178193328D02*
X59604483Y-178193328D01*
X59604483Y-178193328D02*
X59461625Y-178121900D01*
X60104483Y-177621900D02*
X59961625Y-177693328D01*
X59961625Y-177693328D02*
X59675911Y-177693328D01*
X59675911Y-177693328D02*
X59533054Y-177621900D01*
X59533054Y-177621900D02*
X59461625Y-177550471D01*
X59461625Y-177550471D02*
X59390197Y-177407614D01*
X59390197Y-177407614D02*
X59390197Y-176979042D01*
X59390197Y-176979042D02*
X59461625Y-176836185D01*
X59461625Y-176836185D02*
X59533054Y-176764757D01*
X59533054Y-176764757D02*
X59675911Y-176693328D01*
X59675911Y-176693328D02*
X59961625Y-176693328D01*
X59961625Y-176693328D02*
X60104483Y-176764757D01*
X61461626Y-176693328D02*
X61461626Y-177693328D01*
X60818768Y-176693328D02*
X60818768Y-177479042D01*
X60818768Y-177479042D02*
X60890197Y-177621900D01*
X60890197Y-177621900D02*
X61033054Y-177693328D01*
X61033054Y-177693328D02*
X61247340Y-177693328D01*
X61247340Y-177693328D02*
X61390197Y-177621900D01*
X61390197Y-177621900D02*
X61461626Y-177550471D01*
X62747340Y-177621900D02*
X62604483Y-177693328D01*
X62604483Y-177693328D02*
X62318769Y-177693328D01*
X62318769Y-177693328D02*
X62175911Y-177621900D01*
X62175911Y-177621900D02*
X62104483Y-177479042D01*
X62104483Y-177479042D02*
X62104483Y-176907614D01*
X62104483Y-176907614D02*
X62175911Y-176764757D01*
X62175911Y-176764757D02*
X62318769Y-176693328D01*
X62318769Y-176693328D02*
X62604483Y-176693328D01*
X62604483Y-176693328D02*
X62747340Y-176764757D01*
X62747340Y-176764757D02*
X62818769Y-176907614D01*
X62818769Y-176907614D02*
X62818769Y-177050471D01*
X62818769Y-177050471D02*
X62104483Y-177193328D01*
X63318768Y-176693328D02*
X64104483Y-176693328D01*
X64104483Y-176693328D02*
X63318768Y-177693328D01*
X63318768Y-177693328D02*
X64104483Y-177693328D01*
X29461626Y-174693328D02*
X29461626Y-173193328D01*
X29461626Y-173907614D02*
X30318769Y-173907614D01*
X30318769Y-174693328D02*
X30318769Y-173193328D01*
X31247341Y-174693328D02*
X31104484Y-174621900D01*
X31104484Y-174621900D02*
X31033055Y-174550471D01*
X31033055Y-174550471D02*
X30961627Y-174407614D01*
X30961627Y-174407614D02*
X30961627Y-173979042D01*
X30961627Y-173979042D02*
X31033055Y-173836185D01*
X31033055Y-173836185D02*
X31104484Y-173764757D01*
X31104484Y-173764757D02*
X31247341Y-173693328D01*
X31247341Y-173693328D02*
X31461627Y-173693328D01*
X31461627Y-173693328D02*
X31604484Y-173764757D01*
X31604484Y-173764757D02*
X31675913Y-173836185D01*
X31675913Y-173836185D02*
X31747341Y-173979042D01*
X31747341Y-173979042D02*
X31747341Y-174407614D01*
X31747341Y-174407614D02*
X31675913Y-174550471D01*
X31675913Y-174550471D02*
X31604484Y-174621900D01*
X31604484Y-174621900D02*
X31461627Y-174693328D01*
X31461627Y-174693328D02*
X31247341Y-174693328D01*
X32390198Y-173693328D02*
X32390198Y-174979042D01*
X32390198Y-174979042D02*
X32318770Y-175121900D01*
X32318770Y-175121900D02*
X32175913Y-175193328D01*
X32175913Y-175193328D02*
X32104484Y-175193328D01*
X32390198Y-173193328D02*
X32318770Y-173264757D01*
X32318770Y-173264757D02*
X32390198Y-173336185D01*
X32390198Y-173336185D02*
X32461627Y-173264757D01*
X32461627Y-173264757D02*
X32390198Y-173193328D01*
X32390198Y-173193328D02*
X32390198Y-173336185D01*
X33747342Y-174693328D02*
X33747342Y-173907614D01*
X33747342Y-173907614D02*
X33675913Y-173764757D01*
X33675913Y-173764757D02*
X33533056Y-173693328D01*
X33533056Y-173693328D02*
X33247342Y-173693328D01*
X33247342Y-173693328D02*
X33104484Y-173764757D01*
X33747342Y-174621900D02*
X33604484Y-174693328D01*
X33604484Y-174693328D02*
X33247342Y-174693328D01*
X33247342Y-174693328D02*
X33104484Y-174621900D01*
X33104484Y-174621900D02*
X33033056Y-174479042D01*
X33033056Y-174479042D02*
X33033056Y-174336185D01*
X33033056Y-174336185D02*
X33104484Y-174193328D01*
X33104484Y-174193328D02*
X33247342Y-174121900D01*
X33247342Y-174121900D02*
X33604484Y-174121900D01*
X33604484Y-174121900D02*
X33747342Y-174050471D01*
X34461627Y-174550471D02*
X34533056Y-174621900D01*
X34533056Y-174621900D02*
X34461627Y-174693328D01*
X34461627Y-174693328D02*
X34390199Y-174621900D01*
X34390199Y-174621900D02*
X34461627Y-174550471D01*
X34461627Y-174550471D02*
X34461627Y-174693328D01*
X34461627Y-173764757D02*
X34533056Y-173836185D01*
X34533056Y-173836185D02*
X34461627Y-173907614D01*
X34461627Y-173907614D02*
X34390199Y-173836185D01*
X34390199Y-173836185D02*
X34461627Y-173764757D01*
X34461627Y-173764757D02*
X34461627Y-173907614D01*
X37104485Y-174693328D02*
X36247342Y-174693328D01*
X36675913Y-174693328D02*
X36675913Y-173193328D01*
X36675913Y-173193328D02*
X36533056Y-173407614D01*
X36533056Y-173407614D02*
X36390199Y-173550471D01*
X36390199Y-173550471D02*
X36247342Y-173621900D01*
X38818770Y-173121900D02*
X37533056Y-175050471D01*
X39175913Y-173193328D02*
X40104485Y-173193328D01*
X40104485Y-173193328D02*
X39604485Y-173764757D01*
X39604485Y-173764757D02*
X39818770Y-173764757D01*
X39818770Y-173764757D02*
X39961628Y-173836185D01*
X39961628Y-173836185D02*
X40033056Y-173907614D01*
X40033056Y-173907614D02*
X40104485Y-174050471D01*
X40104485Y-174050471D02*
X40104485Y-174407614D01*
X40104485Y-174407614D02*
X40033056Y-174550471D01*
X40033056Y-174550471D02*
X39961628Y-174621900D01*
X39961628Y-174621900D02*
X39818770Y-174693328D01*
X39818770Y-174693328D02*
X39390199Y-174693328D01*
X39390199Y-174693328D02*
X39247342Y-174621900D01*
X39247342Y-174621900D02*
X39175913Y-174550471D01*
X48005800Y-191507200D02*
X48005800Y-194507200D01*
X112005800Y-191507200D02*
X112005800Y-198007200D01*
D13*
%TO.C,R3*%
X85500000Y-108590000D03*
X85500000Y-116210000D03*
%TD*%
%TO.C,C5*%
X85500000Y-121300000D03*
X85500000Y-126300000D03*
%TD*%
D14*
%TO.C,U1*%
X97310000Y-121310000D03*
D13*
X97310000Y-118770000D03*
X97310000Y-116230000D03*
X97310000Y-113690000D03*
X89690000Y-113690000D03*
X89690000Y-116230000D03*
X89690000Y-118770000D03*
X89690000Y-121310000D03*
%TD*%
%TO.C,R4*%
X102000000Y-118800000D03*
X102000000Y-111180000D03*
%TD*%
D15*
%TO.C,C6*%
X77600000Y-121300000D03*
D13*
X77600000Y-124800000D03*
%TD*%
D16*
%TO.C,*%
X107000000Y-55500000D03*
%TD*%
D17*
%TO.C,Jv1*%
X64545000Y-57500000D03*
D18*
X59465000Y-57500000D03*
%TD*%
D16*
%TO.C,*%
X107000000Y-125500000D03*
%TD*%
D13*
%TO.C,C4*%
X64200000Y-76800000D03*
X59200000Y-76800000D03*
%TD*%
D19*
%TO.C,J2*%
X81360000Y-62720000D03*
D20*
X81360000Y-65260000D03*
X81360000Y-67800000D03*
X81360000Y-70340000D03*
X81360000Y-72880000D03*
X81360000Y-75420000D03*
X81360000Y-77960000D03*
X81360000Y-80500000D03*
X81360000Y-83040000D03*
X81360000Y-85580000D03*
X81360000Y-88120000D03*
X81360000Y-90660000D03*
X81360000Y-93200000D03*
X81360000Y-95740000D03*
X81360000Y-98280000D03*
%TD*%
D21*
%TO.C,Q2*%
X56800000Y-89200000D03*
D22*
X54260000Y-89200000D03*
X51720000Y-89200000D03*
%TD*%
D16*
%TO.C,*%
X47000000Y-125500000D03*
%TD*%
D18*
%TO.C,L1*%
X54200000Y-103300000D03*
X54200000Y-98300000D03*
%TD*%
D23*
%TO.C,R1*%
X70900000Y-68300000D03*
X45500000Y-68300000D03*
%TD*%
D19*
%TO.C,J3*%
X107000000Y-62720000D03*
D20*
X107000000Y-65260000D03*
X107000000Y-67800000D03*
X107000000Y-70340000D03*
X107000000Y-72880000D03*
X107000000Y-75420000D03*
X107000000Y-77960000D03*
X107000000Y-80500000D03*
X107000000Y-83040000D03*
X107000000Y-85580000D03*
X107000000Y-88120000D03*
X107000000Y-90660000D03*
X107000000Y-93200000D03*
X107000000Y-95740000D03*
X107000000Y-98280000D03*
%TD*%
D24*
%TO.C,Jv2*%
X59455000Y-123500000D03*
D18*
X64535000Y-123500000D03*
%TD*%
D13*
%TO.C,R2*%
X65180000Y-89200000D03*
X72800000Y-89200000D03*
%TD*%
D25*
%TO.C,C3*%
X71047349Y-76700000D03*
D13*
X74547349Y-76700000D03*
%TD*%
%TO.C,C2*%
X60100000Y-112600000D03*
X65100000Y-112600000D03*
%TD*%
D14*
%TO.C,C1*%
X54000000Y-112600000D03*
D13*
X50500000Y-112600000D03*
%TD*%
D16*
%TO.C,*%
X47000000Y-55500000D03*
%TD*%
D26*
%TO.C,D1*%
X64480000Y-82500000D03*
D27*
X54320000Y-82500000D03*
%TD*%
M02*
